{"glyphs":{"0":{"ha":914,"x_min":47,"x_max":871,"o":"m 171 4 q 47 330 47 164 q 186 611 47 496 q 542 726 325 726 q 771 692 657 726 q 871 421 871 567 q 722 104 871 239 q 363 -31 572 -31 q 171 4 271 -31 m 382 606 q 333 409 333 522 q 383 201 333 296 q 518 65 432 106 q 583 258 583 149 q 530 463 583 368 q 382 606 476 557 z "},"1":{"ha":600,"x_min":24,"x_max":532,"o":"m 532 497 q 503 0 532 221 l 188 0 q 194 223 194 118 q 179 450 194 328 q 86 386 140 419 q 24 496 44 461 q 365 694 217 568 l 529 694 q 532 497 532 564 z "},"2":{"ha":790,"x_min":31,"x_max":746,"o":"m 279 99 q 426 90 347 90 q 549 121 506 90 q 614 213 592 151 l 746 206 q 690 0 726 81 l 31 0 l 40 8 q 354 483 354 308 q 286 614 354 561 q 179 483 213 561 q 115 503 158 489 q 47 524 71 517 q 213 694 118 636 l 590 694 q 733 506 693 617 q 560 298 679 404 q 279 99 442 192 z "},"3":{"ha":706,"x_min":22,"x_max":694,"o":"m 378 596 q 301 604 354 604 q 217 597 247 604 q 172 573 186 590 q 153 544 157 556 q 139 493 147 533 q 22 496 97 493 q 67 694 43 603 l 683 694 q 401 407 604 528 q 694 275 575 358 q 490 0 621 108 l 56 0 q 247 153 149 58 q 383 317 346 247 q 300 363 351 339 q 210 394 249 386 q 378 596 315 456 z "},"4":{"ha":819,"x_min":32,"x_max":817,"o":"m 374 196 l 374 218 q 358 383 374 288 l 707 383 q 694 197 707 342 q 817 244 758 210 q 756 104 789 176 l 686 104 l 674 0 l 354 0 q 368 104 360 24 l 56 104 q 32 226 43 179 q 181 446 118 313 q 263 694 244 579 l 565 694 q 389 442 515 568 q 174 242 300 350 l 149 221 q 374 196 242 196 z "},"5":{"ha":674,"x_min":13,"x_max":669,"o":"m 500 694 q 669 726 561 694 q 635 665 653 700 q 607 611 618 631 q 536 604 576 604 l 325 604 q 275 439 292 539 q 484 422 369 439 q 669 376 599 406 q 467 0 607 153 l 32 0 q 331 325 242 135 q 183 363 275 347 q 13 378 90 378 l 13 388 q 27 556 13 469 q 67 694 42 643 l 500 694 z "},"6":{"ha":750,"x_min":44,"x_max":744,"o":"m 44 299 q 183 694 44 544 l 600 694 q 403 443 461 610 q 717 383 543 438 q 744 210 744 310 q 685 0 744 111 l 119 0 q 65 124 86 43 q 44 299 44 206 m 381 367 q 364 220 364 293 q 376 90 364 147 q 446 203 417 138 q 478 319 475 269 q 381 367 443 350 z "},"7":{"ha":760,"x_min":17,"x_max":750,"o":"m 314 604 l 292 604 q 181 581 215 604 q 133 492 147 557 l 17 496 q 58 682 25 547 l 61 694 l 750 694 q 630 316 701 507 q 489 0 558 125 l 57 0 q 422 596 279 221 q 314 604 369 604 z "},"8":{"ha":739,"x_min":6,"x_max":732,"o":"m 632 0 l 119 0 q 6 219 43 100 q 189 381 85 315 q 86 560 125 465 q 196 696 144 650 l 560 696 q 651 531 636 619 q 547 399 607 449 q 656 315 606 371 q 732 197 707 260 q 632 0 696 75 m 239 243 q 290 137 239 176 q 410 92 342 97 q 359 201 401 143 q 251 308 317 260 q 239 243 239 272 m 471 479 q 432 563 471 526 q 308 604 393 600 q 460 435 340 492 q 471 479 471 454 z "},"9":{"ha":768,"x_min":39,"x_max":738,"o":"m 738 397 q 599 0 738 144 l 182 0 q 379 251 321 88 q 67 311 244 257 q 39 485 39 385 q 97 694 39 586 l 664 694 q 717 572 697 651 q 738 397 738 492 m 401 329 q 419 481 419 411 q 407 604 419 550 q 337 492 367 558 q 304 376 307 425 q 401 329 333 347 z "},"\u0000":{"ha":0,"x_min":0,"x_max":0,"o":""},"\r":{"ha":486,"x_min":0,"x_max":0,"o":""}," ":{"ha":486,"x_min":0,"x_max":0,"o":""},"!":{"ha":419,"x_min":21,"x_max":393,"o":"m 21 763 l 393 718 q 347 431 386 583 q 261 192 308 279 q 122 214 178 197 q 21 763 113 518 m 264 128 l 310 128 q 261 -7 289 46 q 172 -8 246 -8 q 46 0 97 -8 q 76 142 74 63 q 264 128 156 128 z "},"\"":{"ha":321,"x_min":29,"x_max":294,"o":"m 201 490 q 211 632 211 607 q 200 797 211 657 l 293 797 q 286 649 286 732 q 294 490 286 565 l 201 490 m 31 490 q 40 632 40 607 q 29 797 40 657 l 122 797 q 115 648 115 731 q 124 490 115 565 l 31 490 z "},"#":{"ha":532,"x_min":10,"x_max":522,"o":"m 240 232 l 189 231 q 167 69 179 169 l 74 69 q 108 228 86 122 q 10 222 44 225 l 26 315 l 125 311 q 143 411 132 344 q 49 406 79 408 q 67 499 54 431 l 158 494 q 182 651 175 600 l 275 651 q 239 493 250 546 q 290 492 256 492 q 340 493 324 492 q 355 581 347 529 q 365 651 363 633 l 458 651 q 422 494 436 557 l 522 499 q 504 406 510 431 q 406 411 472 408 q 386 311 392 344 l 482 315 l 465 222 q 372 228 436 225 q 350 69 356 122 l 256 69 q 292 231 269 122 l 240 232 m 203 310 q 255 308 219 308 q 308 310 290 308 q 328 414 314 344 l 222 414 q 203 310 208 344 z "},"$":{"ha":906,"x_min":17,"x_max":892,"o":"m 328 -81 l 331 -31 q 17 1 138 -26 q 64 185 44 132 q 243 190 157 189 q 228 128 228 151 q 343 61 228 61 q 553 76 458 61 q 438 169 515 117 q 297 265 361 222 q 167 380 232 307 q 75 539 103 453 q 167 693 118 625 q 331 718 246 710 q 328 778 328 738 l 417 778 q 415 724 415 760 q 493 726 465 726 q 492 778 492 743 l 579 778 l 578 725 q 851 693 726 718 q 810 526 828 578 q 719 523 775 525 q 631 519 664 521 q 644 576 644 558 q 614 622 644 611 q 497 633 583 633 q 344 618 411 633 q 546 461 413 519 q 661 411 603 436 q 892 254 807 351 q 789 1 860 113 q 578 -28 713 -19 q 579 -81 578 -64 l 492 -81 q 493 -31 492 -47 q 415 -32 467 -32 q 417 -81 415 -65 l 328 -81 z "},"%":{"ha":750,"x_min":6,"x_max":740,"o":"m 517 283 q 507 199 507 244 q 527 101 507 154 q 579 26 547 47 q 594 110 594 61 q 574 210 594 160 q 517 283 553 260 m 172 -50 l 117 -18 q 560 749 338 347 l 615 717 q 172 -50 375 325 m 160 661 q 150 576 150 622 q 170 477 150 531 q 222 403 190 424 q 238 487 238 438 q 217 586 238 536 q 160 661 196 636 m 63 372 q 6 530 6 450 q 71 665 6 610 q 239 719 136 719 q 335 707 285 719 q 382 566 382 646 q 315 422 382 486 q 151 357 249 357 q 63 372 111 357 m 421 -6 q 364 151 364 69 q 430 288 364 232 q 599 343 496 343 q 693 331 643 343 q 740 189 740 267 q 672 46 740 111 q 507 -19 604 -19 q 421 -6 463 -19 z "},"&":{"ha":1035,"x_min":8,"x_max":1028,"o":"m 150 601 q 235 746 183 686 l 553 746 q 625 608 604 683 q 577 547 610 572 q 534 514 544 522 q 491 485 524 506 q 457 463 458 464 q 608 297 511 385 q 636 376 614 311 l 785 376 q 700 228 754 300 q 1028 0 853 99 l 638 0 q 549 68 597 26 q 464 0 522 44 l 133 0 q 8 242 51 75 q 250 428 79 340 q 150 601 197 507 m 300 353 q 276 284 276 328 q 325 178 276 240 q 433 75 374 117 q 488 125 463 97 q 300 353 394 219 m 413 519 q 446 578 446 543 q 408 647 446 613 q 325 690 371 681 q 413 519 356 597 z "},"'":{"ha":178,"x_min":42,"x_max":136,"o":"m 43 490 q 53 632 53 607 q 42 797 53 657 l 135 797 q 128 648 128 731 q 136 490 128 565 l 43 490 z "},"(":{"ha":282,"x_min":7,"x_max":283,"o":"m 182 408 q 283 -158 182 103 q 128 -131 228 -151 q 7 338 7 56 q 142 840 7 619 l 235 840 q 182 408 182 631 z "},")":{"ha":288,"x_min":0,"x_max":276,"o":"m 101 274 q 0 840 101 579 q 156 813 42 835 q 276 345 276 628 q 142 -158 276 63 l 49 -158 q 101 274 101 51 z "},"*":{"ha":379,"x_min":13,"x_max":372,"o":"m 13 322 l 13 396 q 138 392 75 392 l 71 497 l 135 533 q 192 419 153 494 q 250 533 225 479 l 314 497 q 247 392 269 431 l 372 396 l 372 322 q 244 329 329 326 q 314 222 289 257 l 250 186 q 192 296 218 250 l 135 186 q 71 222 113 197 q 140 329 110 278 q 13 322 57 326 z "},"+":{"ha":378,"x_min":8,"x_max":368,"o":"m 218 318 q 225 168 218 251 l 151 168 q 157 318 154 218 q 8 311 92 318 l 8 385 q 157 379 60 382 q 151 528 154 476 l 225 528 q 218 379 218 444 q 368 385 318 382 l 368 311 q 218 318 285 318 z "},",":{"ha":299,"x_min":22,"x_max":286,"o":"m 156 -8 q 22 0 68 -8 q 53 142 50 63 q 286 126 139 126 q 189 -122 261 -11 q 124 -110 154 -118 q 156 -8 156 -56 z "},"-":{"ha":529,"x_min":17,"x_max":508,"o":"m 129 424 l 222 422 q 508 446 436 422 q 404 311 464 374 l 363 311 q 17 340 153 311 l 38 358 q 129 424 97 411 z "},".":{"ha":304,"x_min":25,"x_max":289,"o":"m 240 -7 q 152 -8 225 -8 q 25 0 79 -8 q 56 142 53 64 q 289 128 135 128 q 240 -7 269 50 z "},"/":{"ha":517,"x_min":-83,"x_max":581,"o":"m 394 815 q 581 843 503 843 q 101 -131 356 447 l 88 -133 q -83 -158 -15 -158 q 394 815 150 254 z "},":":{"ha":285,"x_min":11,"x_max":275,"o":"m 229 128 l 275 128 q 226 -7 254 46 q 138 -8 211 -8 q 11 0 64 -8 q 42 142 39 63 q 229 128 122 128 m 239 606 l 275 606 q 226 472 256 526 q 130 471 210 471 q 11 479 50 471 q 42 621 39 542 q 239 606 125 606 z "},";":{"ha":288,"x_min":17,"x_max":281,"o":"m 243 607 l 281 607 q 232 474 265 536 q 131 471 199 471 q 17 481 64 471 q 47 621 44 543 q 243 607 131 607 m 47 143 q 281 128 135 128 q 183 -121 258 -10 q 118 -108 153 -117 q 151 -7 149 -56 q 17 1 63 -7 q 47 143 44 64 z "},"<":{"ha":486,"x_min":28,"x_max":460,"o":"m 333 0 l 28 307 l 333 613 l 460 613 l 200 307 l 460 0 l 333 0 z "},"=":{"ha":399,"x_min":18,"x_max":378,"o":"m 18 307 q 192 303 103 303 q 378 307 282 303 l 378 235 q 194 242 274 242 q 18 235 115 242 l 18 307 m 18 443 q 197 438 97 438 q 378 443 296 438 l 378 369 q 198 376 278 376 q 18 369 118 376 l 18 443 z "},">":{"ha":486,"x_min":46,"x_max":478,"o":"m 478 307 l 172 0 l 46 0 l 306 307 l 46 613 l 172 613 l 478 307 z "},"?":{"ha":656,"x_min":21,"x_max":651,"o":"m 21 731 q 322 763 160 763 q 568 708 485 763 q 651 563 651 653 q 610 461 646 513 q 533 372 574 410 q 393 193 417 267 q 254 214 297 203 q 323 365 265 250 q 381 542 381 481 q 353 654 381 604 q 288 667 317 667 q 228 660 258 667 q 251 558 238 604 q 74 568 174 558 q 21 731 38 644 m 393 -7 q 306 -8 378 -8 q 178 0 233 -8 q 208 142 206 67 q 442 128 281 128 q 393 -7 422 50 z "},"@":{"ha":750,"x_min":28,"x_max":722,"o":"m 682 347 q 592 565 682 475 q 375 656 503 656 q 157 565 247 656 q 67 347 67 475 q 157 130 67 219 q 375 40 247 40 q 564 106 476 40 l 592 76 q 364 0 497 0 q 129 101 231 0 q 28 347 28 203 q 129 593 28 492 q 375 694 231 694 q 621 593 519 694 q 722 347 722 492 q 680 208 722 265 q 549 151 638 151 q 407 256 442 151 q 366 216 415 256 q 310 175 317 176 l 149 175 q 143 253 143 203 q 157 343 143 303 q 255 394 208 360 q 321 468 301 428 q 281 521 301 497 l 510 521 q 556 356 533 464 q 590 232 578 249 q 619 217 603 218 q 666 262 650 217 q 682 347 682 307 m 394 307 q 347 422 374 375 q 310 242 317 335 q 394 307 353 264 z "},"A":{"ha":983,"x_min":85,"x_max":958,"o":"m 958 11 l 958 0 l 636 0 q 613 164 631 76 q 418 0 515 67 l 94 0 q 85 151 85 57 q 113 339 85 244 q 305 438 213 368 q 439 588 397 507 q 360 694 400 649 l 821 694 q 958 11 958 393 m 588 265 q 493 499 553 385 q 418 136 428 307 q 588 265 521 192 z "},"B":{"ha":965,"x_min":97,"x_max":911,"o":"m 447 90 q 601 106 542 90 q 460 335 576 260 q 447 90 447 211 m 97 417 q 124 694 97 563 l 894 694 q 656 413 832 500 q 911 254 815 356 q 851 0 899 125 l 153 0 q 97 417 97 193 m 471 431 q 597 493 539 449 q 681 603 656 538 q 500 596 569 603 q 471 431 483 515 z "},"C":{"ha":878,"x_min":53,"x_max":836,"o":"m 624 610 q 530 618 575 618 q 421 603 485 618 q 400 432 400 515 q 592 101 400 217 q 822 313 719 186 q 829 143 826 257 q 619 17 726 63 q 353 -29 513 -29 l 321 -29 q 124 131 196 25 q 53 353 53 236 q 181 617 53 508 q 551 726 308 726 q 836 692 688 726 q 781 526 814 604 q 600 518 693 518 q 624 610 614 557 z "},"D":{"ha":997,"x_min":103,"x_max":933,"o":"m 438 726 q 874 660 706 726 q 933 418 933 540 q 826 146 933 261 q 406 -19 671 -19 q 157 1 314 -19 q 103 517 103 281 q 111 694 103 599 q 438 726 335 726 m 479 622 q 454 248 454 361 q 458 64 454 135 q 576 199 533 104 q 618 392 618 294 q 583 553 618 490 q 479 622 547 615 z "},"E":{"ha":932,"x_min":89,"x_max":854,"o":"m 576 415 l 707 407 q 736 408 726 407 l 671 286 l 658 286 q 583 301 632 286 q 514 315 535 315 q 424 242 457 315 q 415 106 418 174 q 529 92 488 92 l 542 92 q 637 118 601 92 q 688 213 672 144 l 854 206 q 799 0 833 86 l 117 0 q 89 372 89 188 q 108 694 89 557 l 853 694 q 808 483 828 544 q 658 478 726 479 q 669 538 669 510 q 569 604 669 604 q 486 596 532 604 q 439 364 456 464 q 576 415 494 415 z "},"F":{"ha":860,"x_min":92,"x_max":853,"o":"m 574 394 l 706 386 q 733 388 724 386 l 668 265 l 656 265 q 581 280 629 265 q 511 294 532 294 q 424 224 457 294 q 417 99 417 144 q 419 0 417 53 l 118 0 q 92 367 92 178 q 111 693 92 557 l 853 693 q 808 483 828 543 l 658 476 q 671 536 671 511 q 569 603 671 603 q 488 596 525 603 q 438 343 457 472 q 574 394 493 394 z "},"G":{"ha":938,"x_min":40,"x_max":863,"o":"m 578 68 l 579 126 q 563 361 579 225 l 863 361 q 843 0 863 164 q 397 -31 628 -31 l 308 -31 q 111 128 182 24 q 40 351 40 233 q 167 617 40 508 q 539 726 294 726 q 824 692 667 726 q 769 525 800 597 q 588 517 685 519 q 610 610 603 564 q 519 618 565 618 q 408 603 472 618 q 386 432 386 508 q 438 216 386 317 q 578 68 490 115 z "},"H":{"ha":1028,"x_min":88,"x_max":971,"o":"m 971 579 q 918 0 971 307 l 586 0 q 615 353 608 164 q 454 407 543 397 q 410 0 446 203 l 94 0 q 113 326 113 136 q 88 694 113 515 l 454 694 q 457 525 457 638 q 617 457 538 500 q 607 694 617 586 l 968 694 q 971 579 971 617 z "},"I":{"ha":550,"x_min":94,"x_max":474,"o":"m 474 694 l 474 657 q 428 0 474 290 l 94 0 q 121 295 121 128 q 99 694 121 463 l 474 694 z "},"J":{"ha":738,"x_min":7,"x_max":622,"o":"m 267 -62 q 276 237 276 46 q 244 694 276 428 l 619 694 q 622 532 622 642 q 583 0 622 238 q 483 -76 529 -51 q 421 -109 438 -100 q 361 -137 404 -118 q 310 -160 318 -156 q 7 -97 132 -146 q 15 72 10 -6 q 267 -62 144 -21 z "},"K":{"ha":982,"x_min":57,"x_max":969,"o":"m 792 704 l 838 704 q 969 725 926 704 q 851 568 908 635 l 829 568 q 692 590 758 568 q 540 383 597 513 q 868 339 688 346 q 925 0 910 233 l 565 0 q 494 190 542 103 q 394 308 446 276 q 385 125 385 194 q 389 0 385 56 l 83 0 q 57 345 57 204 q 78 694 57 486 l 464 694 q 407 406 422 522 q 538 578 469 508 q 701 697 607 649 q 792 704 738 704 z "},"L":{"ha":836,"x_min":56,"x_max":819,"o":"m 381 107 q 506 92 446 92 q 601 119 565 92 q 653 213 636 146 l 819 207 q 764 0 799 82 l 82 0 q 56 368 56 178 q 75 694 56 558 l 475 694 q 381 107 383 343 z "},"M":{"ha":1461,"x_min":50,"x_max":1397,"o":"m 913 631 q 901 694 913 668 l 1297 694 q 1372 368 1347 561 q 1397 0 1396 175 l 1076 0 q 994 482 1067 250 q 864 0 874 246 l 592 0 q 453 483 556 272 q 378 156 378 307 q 397 0 378 74 l 60 0 q 50 151 50 57 q 78 339 50 244 q 267 435 176 368 q 401 581 358 501 q 325 694 365 640 l 764 694 q 843 383 817 551 q 913 631 913 513 z "},"N":{"ha":993,"x_min":32,"x_max":906,"o":"m 897 694 q 906 387 906 549 q 892 0 906 225 l 758 0 q 264 393 489 144 q 275 202 275 300 q 268 0 275 104 l 106 0 q 133 316 133 171 q 119 546 133 461 q 32 694 64 629 l 426 694 q 585 488 485 594 q 778 322 686 382 q 732 694 778 525 l 897 694 z "},"O":{"ha":914,"x_min":47,"x_max":871,"o":"m 171 4 q 47 329 47 163 q 186 611 47 496 q 542 726 325 726 q 771 692 657 726 q 871 421 871 565 q 722 104 871 239 q 363 -31 574 -31 q 171 4 272 -31 m 382 606 q 333 410 333 522 q 383 202 333 297 q 518 65 432 107 q 583 258 583 149 q 530 463 583 368 q 382 606 476 557 z "},"P":{"ha":924,"x_min":53,"x_max":865,"o":"m 408 174 q 415 0 408 94 l 110 0 q 53 469 53 221 q 68 694 53 596 l 821 694 q 865 321 861 538 q 408 201 660 229 l 408 174 m 410 297 q 558 342 499 308 q 439 603 536 489 q 410 297 417 465 z "},"Q":{"ha":925,"x_min":56,"x_max":982,"o":"m 179 4 q 56 328 56 163 q 194 610 56 494 q 550 726 333 726 q 778 693 669 726 q 879 419 879 565 q 706 82 879 221 q 761 96 721 85 q 827 107 801 107 q 882 97 853 107 l 982 -32 q 901 1 954 1 q 758 -14 847 1 q 638 -31 669 -29 q 582 11 610 -18 q 381 -31 481 -31 q 179 4 281 -31 m 390 604 q 340 408 340 518 q 390 202 340 297 q 526 65 440 107 q 592 258 592 149 q 538 463 592 368 q 390 604 485 557 z "},"R":{"ha":981,"x_min":88,"x_max":943,"o":"m 864 453 l 863 406 q 585 313 751 346 q 815 281 704 281 l 844 281 q 943 0 921 168 l 583 0 q 527 167 569 97 q 424 263 485 238 q 422 168 422 239 q 431 0 422 97 l 128 0 q 88 374 88 201 q 107 694 88 547 l 832 694 q 864 453 864 554 m 453 601 q 428 361 436 479 q 553 415 504 372 q 453 601 526 508 z "},"S":{"ha":882,"x_min":-19,"x_max":876,"o":"m 588 611 q 469 619 532 619 q 346 611 406 619 q 435 507 383 547 q 565 427 486 467 q 692 354 643 388 q 801 244 742 321 q 876 85 861 168 q 700 -67 810 -1 q 475 -156 590 -133 q 278 -112 397 -149 q 100 -75 160 -75 q -19 -112 40 -75 q 63 65 6 -42 l 74 65 q 241 38 163 65 q 384 -18 319 10 q 488 -46 449 -46 q 546 -40 528 -46 q 489 111 546 51 q 437 160 458 143 q 371 208 415 178 l 347 225 q 192 358 253 290 q 103 524 131 425 q 190 694 147 622 q 464 726 322 726 l 525 726 q 799 693 644 726 q 744 528 776 601 q 564 519 628 519 q 588 611 576 551 z "},"T":{"ha":979,"x_min":1,"x_max":975,"o":"m 656 604 q 619 246 619 385 q 631 0 619 107 l 328 0 q 281 475 281 221 q 283 604 281 518 q 139 444 165 569 l 1 453 l 51 694 l 975 694 q 911 444 947 542 l 771 453 q 776 497 776 475 q 743 578 776 551 q 656 604 710 604 z "},"U":{"ha":974,"x_min":100,"x_max":919,"o":"m 914 694 q 919 431 919 604 q 897 63 919 258 q 551 -31 753 -31 q 118 63 283 -31 q 100 353 100 213 q 121 694 100 494 l 494 694 q 436 115 439 393 q 604 63 494 63 q 772 101 714 63 q 775 233 775 147 q 736 694 775 453 l 914 694 z "},"V":{"ha":976,"x_min":11,"x_max":932,"o":"m 596 474 q 560 694 596 575 l 931 694 q 932 633 932 674 q 885 340 932 456 q 680 228 757 285 q 603 113 603 172 q 654 0 603 53 l 306 0 q 11 694 71 299 l 390 694 q 521 199 396 440 q 596 474 596 324 z "},"W":{"ha":1444,"x_min":19,"x_max":1431,"o":"m 1090 481 q 1057 694 1090 589 l 1429 694 q 1431 633 1431 674 q 1383 339 1431 456 q 1178 243 1260 303 q 1096 120 1096 183 q 1153 0 1096 57 l 803 0 q 657 296 717 128 q 611 120 611 192 q 651 0 611 49 l 303 0 q 121 328 196 142 q 19 694 46 514 l 389 694 q 511 199 413 396 q 582 492 582 319 q 558 694 582 585 l 889 694 q 1019 199 911 419 q 1090 481 1090 329 z "},"X":{"ha":974,"x_min":11,"x_max":1015,"o":"m 936 668 q 859 657 892 657 q 797 661 826 657 q 600 471 715 603 q 868 0 768 208 l 522 0 q 408 221 465 122 q 171 -168 254 1 q 89 -187 143 -175 q 11 -204 35 -199 q 360 301 128 4 q 36 694 217 525 l 468 694 q 557 539 500 626 q 600 590 568 551 q 650 647 632 628 q 697 694 668 667 q 815 771 754 749 q 911 785 839 778 q 1015 814 983 793 q 936 668 982 738 z "},"Y":{"ha":956,"x_min":49,"x_max":994,"o":"m 917 668 q 838 657 869 657 q 776 661 806 657 q 699 524 733 610 q 647 369 664 438 q 608 203 629 301 q 397 -511 503 -300 q 225 -551 328 -532 q 450 0 364 -314 l 163 0 q 49 694 53 356 l 454 694 q 425 420 425 565 q 472 89 425 275 q 506 220 482 126 q 540 354 529 314 q 574 468 551 394 q 616 578 597 542 q 663 661 635 615 q 794 772 713 743 q 890 787 818 779 q 994 815 963 794 q 917 668 957 729 z "},"Z":{"ha":886,"x_min":26,"x_max":875,"o":"m 550 93 l 563 93 q 657 119 621 93 q 708 213 693 146 q 875 207 811 210 q 819 0 854 86 l 26 0 q 438 597 214 336 q 346 604 404 604 q 240 569 288 604 q 181 475 193 533 q 44 485 74 482 l 88 694 l 861 694 q 433 107 615 428 q 550 93 506 93 z "},"[":{"ha":346,"x_min":57,"x_max":325,"o":"m 276 -161 q 153 -162 249 -162 q 57 -151 57 -162 q 86 432 86 160 q 81 854 86 704 q 325 840 168 840 q 276 704 304 760 q 232 703 265 703 q 215 251 215 463 q 217 -24 215 40 q 282 -26 267 -26 q 308 -26 297 -26 q 325 -25 319 -25 q 276 -161 304 -106 z "},"\\":{"ha":517,"x_min":-61,"x_max":603,"o":"m 125 815 q 603 -158 369 254 q 432 -133 535 -158 l 418 -131 q -61 843 164 447 q 125 815 17 843 z "},"]":{"ha":344,"x_min":21,"x_max":289,"o":"m 254 85 q 257 -157 254 4 q 97 -161 136 -161 q 21 -154 58 -161 q 51 -10 49 -90 q 83 -14 63 -11 l 113 -19 q 131 428 131 215 q 129 703 131 640 q 21 711 58 703 q 51 854 49 778 q 268 839 100 839 q 289 840 289 839 q 254 85 254 488 z "},"^":{"ha":597,"x_min":18,"x_max":576,"o":"m 147 474 l 18 474 l 229 694 l 367 694 l 576 474 l 449 474 l 297 594 l 147 474 z "},"_":{"ha":739,"x_min":22,"x_max":713,"o":"m 22 96 q 367 89 165 89 q 713 96 568 89 l 713 1 q 367 11 511 11 q 22 1 224 11 l 22 96 z "},"`":{"ha":379,"x_min":43,"x_max":340,"o":"m 197 944 q 340 764 240 829 l 249 764 q 165 806 197 788 q 98 856 133 824 q 43 925 63 888 l 197 944 z "},"a":{"ha":985,"x_min":85,"x_max":958,"o":"m 958 11 l 958 0 l 636 0 q 613 164 631 79 q 418 0 526 76 l 94 0 q 85 151 85 57 q 113 339 85 244 q 305 438 213 368 q 439 588 397 507 q 360 694 401 646 l 821 694 q 958 11 958 396 m 588 265 q 493 499 551 389 q 418 136 428 307 q 588 265 518 188 z "},"b":{"ha":965,"x_min":97,"x_max":911,"o":"m 447 90 q 601 106 542 90 q 460 335 576 260 q 447 90 447 211 m 97 417 q 124 694 97 563 l 894 694 q 656 413 832 500 q 911 254 815 356 q 851 0 899 125 l 153 0 q 97 417 97 193 m 471 431 q 597 493 539 449 q 681 603 656 538 q 500 596 569 603 q 471 431 483 515 z "},"c":{"ha":878,"x_min":53,"x_max":836,"o":"m 624 610 q 530 618 575 618 q 421 603 485 618 q 400 432 400 515 q 592 101 400 217 q 822 313 719 186 q 829 143 826 257 q 619 17 726 63 q 353 -29 513 -29 l 321 -29 q 124 131 196 25 q 53 353 53 236 q 181 617 53 508 q 551 726 308 726 q 836 692 688 726 q 781 526 814 604 q 600 518 693 518 q 624 610 614 557 z "},"d":{"ha":997,"x_min":103,"x_max":933,"o":"m 438 726 q 874 660 706 726 q 933 418 933 540 q 826 146 933 261 q 406 -19 671 -19 q 157 1 314 -19 q 103 517 103 281 q 111 694 103 599 q 438 726 335 726 m 479 622 q 454 248 454 361 q 458 64 454 135 q 576 199 533 104 q 618 392 618 294 q 583 553 618 490 q 479 622 547 615 z "},"e":{"ha":932,"x_min":89,"x_max":854,"o":"m 576 415 l 707 407 q 736 408 726 407 l 671 286 l 658 286 q 583 301 632 286 q 514 315 535 315 q 424 242 457 315 q 415 106 418 174 q 529 92 488 92 l 542 92 q 637 118 601 92 q 688 213 672 144 l 854 206 q 799 0 833 86 l 117 0 q 89 372 89 188 q 108 694 89 557 l 853 694 q 808 483 828 544 q 658 478 726 479 q 669 538 669 510 q 569 604 669 604 q 486 596 532 604 q 439 364 456 464 q 576 415 494 415 z "},"f":{"ha":860,"x_min":92,"x_max":853,"o":"m 574 394 l 706 386 q 733 388 724 386 l 668 265 l 656 265 q 581 280 629 265 q 511 294 532 294 q 424 224 457 294 q 417 99 417 144 q 419 0 417 53 l 118 0 q 92 367 92 178 q 111 693 92 557 l 853 693 q 808 483 828 543 l 658 476 q 671 536 671 511 q 569 603 671 603 q 488 596 525 603 q 438 343 457 472 q 574 394 493 394 z "},"g":{"ha":938,"x_min":40,"x_max":863,"o":"m 578 68 l 579 126 q 563 361 579 225 l 863 361 q 843 0 863 164 q 397 -31 628 -31 l 308 -31 q 111 128 182 24 q 40 351 40 233 q 167 617 40 508 q 539 726 294 726 q 824 692 667 726 q 769 525 800 597 q 588 517 685 519 q 610 610 603 564 q 519 618 565 618 q 408 603 472 618 q 386 432 386 508 q 438 216 386 317 q 578 68 490 115 z "},"h":{"ha":1028,"x_min":88,"x_max":971,"o":"m 971 579 q 918 0 971 307 l 586 0 q 615 353 608 164 q 454 407 543 397 q 410 0 446 203 l 94 0 q 113 326 113 136 q 88 694 113 515 l 454 694 q 457 525 457 638 q 617 457 538 500 q 607 694 617 586 l 968 694 q 971 579 971 617 z "},"i":{"ha":550,"x_min":94,"x_max":474,"o":"m 474 694 l 474 657 q 428 0 474 290 l 94 0 q 121 295 121 128 q 99 694 121 463 l 474 694 z "},"j":{"ha":738,"x_min":7,"x_max":622,"o":"m 267 -62 q 276 237 276 46 q 244 694 276 428 l 619 694 q 622 532 622 642 q 583 0 622 238 q 483 -76 529 -51 q 421 -109 438 -100 q 361 -137 404 -118 q 310 -160 318 -156 q 7 -97 132 -146 q 15 72 10 -6 q 267 -62 144 -21 z "},"k":{"ha":982,"x_min":57,"x_max":969,"o":"m 792 704 l 838 704 q 969 725 926 704 q 851 568 908 635 l 829 568 q 692 590 758 568 q 540 383 597 513 q 868 339 688 346 q 925 0 910 233 l 565 0 q 494 190 542 103 q 394 308 446 276 q 385 125 385 194 q 389 0 385 56 l 83 0 q 57 345 57 204 q 78 694 57 486 l 464 694 q 407 406 422 522 q 538 578 469 508 q 701 697 607 649 q 792 704 738 704 z "},"l":{"ha":836,"x_min":56,"x_max":819,"o":"m 381 107 q 506 92 446 92 q 601 119 565 92 q 653 213 636 146 l 819 207 q 764 0 799 82 l 82 0 q 56 368 56 178 q 75 694 56 558 l 475 694 q 381 107 383 343 z "},"m":{"ha":1461,"x_min":50,"x_max":1397,"o":"m 913 631 q 901 694 913 668 l 1297 694 q 1372 368 1347 561 q 1397 0 1396 175 l 1076 0 q 994 482 1067 250 q 864 0 874 246 l 592 0 q 453 483 556 272 q 378 156 378 307 q 397 0 378 74 l 60 0 q 50 151 50 57 q 78 339 50 244 q 267 435 176 368 q 401 581 358 501 q 325 694 365 640 l 764 694 q 843 383 817 551 q 913 631 913 513 z "},"n":{"ha":993,"x_min":32,"x_max":906,"o":"m 897 694 q 906 387 906 549 q 892 0 906 225 l 758 0 q 264 393 489 144 q 275 202 275 300 q 268 0 275 104 l 106 0 q 133 316 133 171 q 119 546 133 461 q 32 694 64 629 l 426 694 q 585 488 485 594 q 778 322 686 382 q 732 694 778 525 l 897 694 z "},"o":{"ha":914,"x_min":47,"x_max":871,"o":"m 171 4 q 47 329 47 163 q 186 611 47 496 q 542 726 325 726 q 771 692 657 726 q 871 421 871 565 q 722 104 871 239 q 363 -31 574 -31 q 171 4 272 -31 m 382 606 q 333 410 333 522 q 383 202 333 297 q 518 65 432 107 q 583 258 583 149 q 530 463 583 368 q 382 606 476 557 z "},"p":{"ha":924,"x_min":53,"x_max":865,"o":"m 408 174 q 415 0 408 94 l 110 0 q 53 469 53 221 q 68 694 53 596 l 821 694 q 865 321 861 538 q 408 201 660 229 l 408 174 m 410 297 q 558 342 499 308 q 439 603 536 489 q 410 297 417 465 z "},"q":{"ha":925,"x_min":56,"x_max":982,"o":"m 179 4 q 56 328 56 163 q 194 610 56 494 q 550 726 333 726 q 778 693 669 726 q 879 419 879 565 q 706 82 879 221 q 761 96 721 85 q 827 107 801 107 q 882 97 853 107 l 982 -32 q 901 1 954 1 q 758 -14 847 1 q 638 -31 669 -29 q 582 11 610 -18 q 381 -31 481 -31 q 179 4 281 -31 m 390 604 q 340 408 340 518 q 390 202 340 297 q 526 65 440 107 q 592 258 592 149 q 538 463 592 368 q 390 604 485 557 z "},"r":{"ha":981,"x_min":88,"x_max":943,"o":"m 864 453 l 863 406 q 585 313 751 346 q 815 281 704 281 l 844 281 q 943 0 921 168 l 583 0 q 527 167 569 97 q 424 263 485 238 q 422 168 422 239 q 431 0 422 97 l 128 0 q 88 374 88 201 q 107 694 88 547 l 832 694 q 864 453 864 554 m 453 601 q 428 361 436 479 q 553 415 504 372 q 453 601 526 508 z "},"s":{"ha":882,"x_min":-19,"x_max":876,"o":"m 588 611 q 469 619 532 619 q 346 611 406 619 q 435 507 383 547 q 565 427 486 467 q 692 354 643 388 q 801 244 742 321 q 876 85 861 168 q 700 -67 810 -1 q 475 -156 590 -133 q 278 -112 397 -149 q 100 -75 160 -75 q -19 -112 40 -75 q 63 65 6 -42 l 74 65 q 241 38 163 65 q 384 -18 319 10 q 488 -46 449 -46 q 546 -40 528 -46 q 489 111 546 51 q 437 160 458 143 q 371 208 415 178 l 347 225 q 192 358 253 290 q 103 524 131 425 q 190 694 147 622 q 464 726 322 726 l 525 726 q 799 693 644 726 q 744 528 776 601 q 564 519 628 519 q 588 611 576 551 z "},"t":{"ha":979,"x_min":1,"x_max":975,"o":"m 656 604 q 619 246 619 385 q 631 0 619 107 l 328 0 q 281 475 281 221 q 283 604 281 518 q 139 444 165 569 l 1 453 l 51 694 l 975 694 q 911 444 947 542 l 771 453 q 776 497 776 475 q 743 578 776 551 q 656 604 710 604 z "},"u":{"ha":974,"x_min":100,"x_max":919,"o":"m 914 694 q 919 431 919 604 q 897 63 919 258 q 551 -31 753 -31 q 118 63 283 -31 q 100 353 100 213 q 121 694 100 494 l 494 694 q 436 115 439 393 q 604 63 494 63 q 772 101 714 63 q 775 233 775 147 q 736 694 775 453 l 914 694 z "},"v":{"ha":976,"x_min":11,"x_max":932,"o":"m 596 474 q 560 694 596 575 l 931 694 q 932 633 932 674 q 885 340 932 456 q 680 228 757 285 q 603 113 603 172 q 654 0 603 53 l 306 0 q 11 694 71 299 l 390 694 q 521 199 396 440 q 596 474 596 324 z "},"w":{"ha":1444,"x_min":19,"x_max":1431,"o":"m 1090 481 q 1057 694 1090 589 l 1429 694 q 1431 633 1431 674 q 1383 339 1431 456 q 1178 243 1260 303 q 1096 120 1096 183 q 1153 0 1096 57 l 803 0 q 657 296 717 128 q 611 120 611 192 q 651 0 611 49 l 303 0 q 121 328 196 142 q 19 694 46 514 l 389 694 q 511 199 413 396 q 582 492 582 319 q 558 694 582 585 l 889 694 q 1019 199 911 419 q 1090 481 1090 329 z "},"x":{"ha":974,"x_min":11,"x_max":1015,"o":"m 936 668 q 859 657 892 657 q 797 661 826 657 q 600 471 715 603 q 868 0 768 208 l 522 0 q 408 221 465 122 q 171 -168 254 1 q 89 -187 143 -175 q 11 -204 35 -199 q 360 301 128 4 q 36 694 217 525 l 468 694 q 557 539 500 626 q 600 590 568 551 q 650 647 632 628 q 697 694 668 667 q 815 771 754 749 q 911 785 839 778 q 1015 814 983 793 q 936 668 982 738 z "},"y":{"ha":956,"x_min":49,"x_max":994,"o":"m 917 668 q 838 657 869 657 q 776 661 806 657 q 699 524 733 610 q 647 369 664 438 q 608 203 629 301 q 397 -511 503 -300 q 225 -551 328 -532 q 450 0 364 -314 l 163 0 q 49 694 53 356 l 454 694 q 425 420 425 565 q 472 89 425 275 q 506 220 482 126 q 540 354 529 314 q 574 468 551 394 q 616 578 597 542 q 663 661 635 615 q 794 772 713 743 q 890 787 818 779 q 994 815 963 794 q 917 668 957 729 z "},"z":{"ha":886,"x_min":26,"x_max":875,"o":"m 550 93 l 563 93 q 657 119 621 93 q 708 213 693 146 q 875 207 811 210 q 819 0 854 86 l 26 0 q 438 597 214 336 q 346 604 404 604 q 240 569 288 604 q 181 475 193 533 q 44 485 74 482 l 88 694 l 861 694 q 433 107 615 428 q 550 93 506 93 z "},"{":{"ha":353,"x_min":7,"x_max":346,"o":"m 204 840 l 297 840 q 248 519 258 678 q 188 342 238 361 q 258 192 240 321 q 346 -158 281 15 q 190 -131 293 -151 q 75 224 90 24 q 39 325 68 301 q 7 342 26 336 q 61 397 46 350 q 88 522 75 438 q 204 840 119 700 z "},"|":{"ha":179,"x_min":42,"x_max":138,"o":"m 43 -165 q 54 356 54 264 q 42 832 54 447 l 138 832 q 125 342 125 542 q 138 -165 125 142 l 43 -165 z "},"}":{"ha":350,"x_min":7,"x_max":347,"o":"m 149 -158 l 56 -158 q 106 161 97 29 q 165 342 113 322 q 94 490 110 361 q 7 840 68 685 q 163 813 53 835 q 276 490 251 678 q 285 419 276 450 q 300 378 293 388 q 347 342 315 350 q 289 286 304 333 q 271 204 275 240 q 149 -158 249 8 z "},"~":{"ha":624,"x_min":40,"x_max":600,"o":"m 186 311 q 40 254 111 311 l 92 378 q 236 408 153 408 q 346 383 275 408 q 456 357 417 357 q 600 414 529 357 l 549 290 q 404 260 493 260 q 294 285 365 260 q 186 311 224 311 z "}," ":{"ha":0,"x_min":0,"x_max":0,"o":""},"¡":{"ha":419,"x_min":21,"x_max":393,"o":"m 393 0 l 21 -44 q 122 504 113 200 q 261 526 178 521 q 347 287 308 439 q 393 0 386 135 m 46 718 q 172 726 97 726 q 261 725 246 726 q 310 590 289 672 l 264 590 q 76 576 156 590 q 46 718 74 656 z "},"¢":{"ha":921,"x_min":53,"x_max":836,"o":"m 53 351 q 167 606 53 499 q 499 725 281 713 q 508 778 503 742 l 583 778 q 572 726 574 738 q 836 692 693 724 q 781 525 815 608 q 600 515 704 518 q 622 610 614 567 q 549 618 585 615 q 469 204 493 342 q 593 101 515 147 q 821 313 721 186 q 829 143 826 236 q 432 -26 640 -7 l 424 -79 l 349 -79 q 358 -31 353 -60 l 319 -31 q 124 128 194 24 q 53 351 53 233 m 421 603 q 399 433 399 510 q 424 290 399 356 q 481 614 436 354 q 421 603 465 611 z "},"£":{"ha":817,"x_min":28,"x_max":814,"o":"m 158 382 l 300 382 q 183 593 278 481 q 321 761 235 686 q 606 707 508 760 q 597 575 606 658 q 367 689 514 689 q 453 559 376 671 q 554 379 529 447 q 683 382 597 379 l 683 314 l 572 314 l 575 283 q 511 61 575 140 q 599 56 550 56 q 814 100 719 56 q 733 -68 776 7 q 458 1 600 -68 q 238 -37 361 -37 l 224 -37 q 28 1 113 -36 q 51 79 36 42 q 215 107 140 106 q 304 315 296 196 q 158 310 207 313 l 158 382 z "},"¤":{"ha":433,"x_min":7,"x_max":429,"o":"m 429 163 q 364 97 397 131 l 307 161 q 218 136 267 136 q 129 161 169 136 l 72 97 l 7 163 l 69 221 q 46 309 46 260 q 71 397 46 358 l 7 454 l 72 519 l 131 457 q 218 481 169 481 q 306 457 267 481 l 364 519 q 429 454 396 486 l 365 397 q 390 309 390 358 q 367 221 390 260 l 429 163 m 297 387 q 280 403 297 387 q 218 419 264 419 q 140 387 172 419 q 107 308 107 354 q 140 230 107 263 q 218 197 172 197 q 297 230 264 197 q 329 308 329 263 q 297 387 329 354 z "},"¥":{"ha":1019,"x_min":35,"x_max":996,"o":"m 165 258 q 35 257 78 258 l 35 326 l 238 326 q 186 392 211 353 q 35 388 38 388 l 35 461 q 90 460 53 461 q 146 460 126 460 q 56 694 88 569 l 435 694 q 467 453 443 553 q 549 263 490 353 q 642 481 642 361 q 603 694 642 553 l 975 694 l 975 665 q 939 461 975 554 l 996 461 l 996 388 q 904 390 935 390 q 854 324 881 353 q 996 326 901 324 l 996 253 l 783 253 q 688 199 726 217 q 660 0 682 93 l 294 0 q 364 203 353 111 q 297 258 326 229 l 165 258 z "},"¦":{"ha":163,"x_min":35,"x_max":128,"o":"m 35 449 q 42 635 42 550 q 35 832 42 721 l 128 832 q 119 638 119 733 q 128 449 119 542 l 35 449 m 35 -167 q 42 21 42 -65 q 35 218 42 107 l 128 218 q 119 22 119 118 q 128 -167 119 -74 l 35 -167 z "},"§":{"ha":758,"x_min":68,"x_max":690,"o":"m 357 844 l 388 844 q 651 817 525 844 q 603 672 629 742 l 447 665 q 467 746 463 708 q 380 760 426 760 q 293 740 333 760 q 379 644 326 685 q 481 583 432 604 q 589 520 529 561 q 690 424 649 479 q 643 311 675 372 q 583 213 611 250 q 528 204 567 208 q 686 71 631 146 q 581 -139 660 -26 q 344 -160 482 -160 l 318 -160 q 68 -131 203 -160 q 115 13 90 -44 l 272 21 q 250 -60 254 -22 q 369 -76 294 -76 q 488 -54 444 -76 q 269 106 446 -4 q 157 205 213 142 q 82 342 101 268 q 174 474 108 389 q 236 485 213 482 q 85 693 115 583 q 178 825 129 771 q 357 844 272 844 m 397 274 q 500 289 465 278 q 344 411 467 329 q 271 396 314 410 q 397 274 313 336 z "},"¨":{"ha":478,"x_min":25,"x_max":457,"o":"m 161 800 l 106 799 q 25 801 78 799 q 67 942 60 883 q 208 933 140 935 q 161 800 192 858 m 410 800 l 353 799 q 274 801 326 799 q 315 942 307 886 q 457 933 388 935 q 410 800 438 856 z "},"©":{"ha":751,"x_min":18,"x_max":713,"o":"m 442 475 q 397 479 418 479 q 343 472 375 479 q 332 390 332 424 q 426 228 332 285 q 539 331 489 268 l 543 247 q 294 164 439 164 q 199 242 233 190 q 164 360 164 293 q 226 479 164 426 q 407 532 289 532 q 546 515 469 532 q 519 435 536 471 q 431 431 475 431 q 442 475 435 442 m 583 565 q 538 610 583 565 q 365 656 493 656 q 148 565 238 656 q 58 347 58 475 q 149 130 58 219 q 366 40 239 40 q 583 130 493 40 q 674 347 674 219 q 583 565 674 475 m 120 593 q 171 644 120 593 q 365 694 222 694 q 610 593 508 694 q 713 347 713 492 q 610 101 713 203 q 365 0 508 0 q 120 101 222 0 q 18 347 18 203 q 120 593 18 492 z "},"ª":{"ha":699,"x_min":29,"x_max":668,"o":"m 668 308 l 432 308 q 415 428 428 369 q 274 308 356 365 l 36 308 q 29 422 29 357 q 50 556 29 486 q 192 628 124 576 q 289 738 260 679 q 231 815 265 772 l 567 815 q 668 308 668 597 m 397 503 q 329 672 368 597 q 274 407 282 538 q 397 503 349 447 z "},"«":{"ha":503,"x_min":6,"x_max":489,"o":"m 157 32 l 6 339 l 157 646 l 271 646 l 165 339 l 271 32 l 157 32 m 376 32 l 224 339 l 376 646 l 489 646 l 385 339 l 489 32 l 376 32 z "},"¬":{"ha":854,"x_min":69,"x_max":785,"o":"m 69 308 q 427 301 261 301 q 785 308 593 301 q 781 181 781 238 q 785 61 781 125 l 692 61 q 696 178 696 132 l 696 219 q 408 225 581 225 q 69 215 235 225 l 69 308 z "},"­":{"ha":529,"x_min":17,"x_max":508,"o":"m 129 424 l 222 422 q 508 446 436 422 q 404 311 464 374 l 363 311 q 17 340 153 311 l 38 358 q 129 424 97 411 z "},"®":{"ha":763,"x_min":31,"x_max":725,"o":"m 338 307 l 336 274 q 342 176 336 240 l 190 176 q 171 362 171 268 q 181 522 171 456 l 542 522 q 557 378 557 449 q 418 332 500 347 q 549 315 481 315 q 597 176 588 261 l 418 176 q 390 260 411 225 q 338 307 368 294 m 595 567 q 550 612 595 567 q 378 657 506 657 q 160 567 250 657 q 71 349 71 476 q 160 132 71 222 q 378 42 250 42 q 595 132 506 42 q 685 349 685 222 q 595 567 685 476 m 132 594 q 183 645 132 594 q 378 696 233 696 q 624 594 522 696 q 725 349 725 492 q 624 103 725 206 q 378 1 522 1 q 132 103 233 1 q 31 349 31 206 q 132 594 31 492 m 353 475 q 340 356 344 415 q 403 383 381 363 q 353 475 388 432 z "},"°":{"ha":340,"x_min":19,"x_max":326,"o":"m 144 813 q 136 746 136 786 q 152 663 136 706 q 194 603 168 619 q 207 672 207 632 q 190 752 207 713 q 144 813 174 792 m 65 576 q 19 703 19 638 q 73 815 19 769 q 210 860 126 860 q 288 850 249 860 q 326 735 326 799 q 271 617 326 671 q 136 564 215 564 q 65 576 100 564 z "},"±":{"ha":394,"x_min":17,"x_max":375,"o":"m 164 438 q 160 585 164 511 l 233 585 q 226 438 226 504 q 375 442 303 438 l 375 369 q 226 376 279 375 q 233 226 226 310 l 160 226 q 164 376 164 301 q 17 369 113 375 l 17 442 q 164 438 90 438 m 17 163 q 192 157 93 157 q 375 163 292 157 l 375 89 q 194 96 274 96 q 17 89 114 96 l 17 163 z "},"²":{"ha":592,"x_min":40,"x_max":563,"o":"m 326 372 q 467 461 433 372 q 563 457 533 458 q 522 307 554 372 l 40 307 q 276 660 276 538 q 226 756 276 719 q 149 660 174 717 q 103 674 135 664 q 53 690 71 685 q 172 815 104 771 l 449 815 q 554 676 524 760 q 428 523 515 601 q 222 379 340 444 q 326 372 278 372 z "},"³":{"ha":553,"x_min":44,"x_max":535,"o":"m 304 742 q 242 749 286 749 q 173 738 197 749 q 143 714 149 726 q 129 667 139 706 q 44 669 97 667 q 76 815 54 726 l 526 815 q 321 604 472 693 q 535 508 450 569 q 386 307 488 390 l 68 307 q 208 417 136 349 q 308 538 281 486 q 181 594 253 579 q 304 742 257 636 z "},"´":{"ha":379,"x_min":49,"x_max":346,"o":"m 192 944 l 346 925 q 291 856 326 888 q 224 806 256 824 q 140 764 192 788 l 49 764 q 192 944 149 829 z "},"µ":{"ha":1065,"x_min":81,"x_max":1017,"o":"m 1017 694 q 969 0 1017 290 l 657 0 q 667 79 664 33 q 576 14 638 38 q 424 -10 515 -10 q 281 32 333 -10 q 318 -344 282 -137 l 115 -344 q 81 444 81 18 q 83 694 81 528 l 464 694 q 426 246 442 531 l 426 226 q 447 144 426 169 q 518 118 468 118 q 661 226 619 118 q 664 380 664 288 q 642 694 664 472 l 1017 694 z "},"¶":{"ha":603,"x_min":44,"x_max":529,"o":"m 401 750 l 371 749 q 364 292 364 501 q 372 -158 364 83 l 281 -158 q 286 267 286 139 l 286 364 q 115 429 185 364 q 44 588 44 494 q 114 747 44 681 q 285 814 183 813 l 529 814 q 521 322 521 560 q 529 -158 521 83 l 436 -158 q 443 268 443 99 q 438 749 443 438 l 432 749 l 401 750 z "},"·":{"ha":185,"x_min":21,"x_max":160,"o":"m 21 356 q 21 370 21 356 q 42 405 21 385 q 91 425 63 425 q 140 405 119 425 q 160 356 160 385 q 140 307 160 328 q 91 286 119 286 q 42 307 63 286 q 21 356 21 328 z "},"¸":{"ha":254,"x_min":29,"x_max":233,"o":"m 107 -67 l 167 -57 q 210 -70 190 -57 q 233 -104 231 -83 l 233 -111 q 184 -210 233 -165 q 58 -257 135 -256 l 50 -228 q 115 -208 92 -228 q 138 -162 138 -187 q 93 -126 138 -126 q 29 -147 85 -126 l 90 31 l 140 31 l 107 -67 z "},"¹":{"ha":414,"x_min":15,"x_max":386,"o":"m 386 669 q 365 307 386 472 l 135 307 q 140 455 140 374 q 128 636 140 536 q 61 589 108 622 l 15 669 q 265 815 156 722 l 383 815 q 386 669 386 718 z "},"º":{"ha":586,"x_min":10,"x_max":572,"o":"m 94 313 q 10 544 10 425 q 108 747 10 664 q 360 831 206 831 q 501 813 429 831 q 572 615 572 719 q 472 388 572 485 q 226 290 371 290 q 94 313 161 290 m 239 743 q 225 623 225 697 q 254 469 225 549 q 332 358 283 390 q 354 483 354 408 q 324 633 354 558 q 239 743 293 707 z "},"»":{"ha":503,"x_min":10,"x_max":493,"o":"m 493 339 l 342 32 l 228 32 l 333 339 l 228 646 l 342 646 l 493 339 m 275 339 l 122 32 l 10 32 l 114 339 l 10 646 l 122 646 l 275 339 z "},"¼":{"ha":1193,"x_min":7,"x_max":1174,"o":"m 378 674 q 356 308 378 471 l 125 308 q 131 463 131 376 q 119 638 131 550 q 53 590 100 624 l 7 671 q 256 815 143 722 l 375 815 q 378 674 378 721 m 850 31 l 850 54 q 842 151 850 93 l 839 167 l 1094 167 q 1092 121 1094 140 q 1085 31 1088 76 q 1174 67 1129 39 q 1129 -36 1142 -12 l 1078 -36 l 1069 -112 l 836 -112 q 847 -36 843 -69 l 618 -36 l 601 53 q 711 215 665 118 q 769 396 757 311 l 990 396 q 783 135 946 282 q 701 64 753 107 l 685 49 q 850 31 754 31 m 682 815 q 868 843 790 843 q 389 -131 643 447 l 375 -133 q 204 -158 272 -158 q 682 815 438 254 z "},"½":{"ha":1313,"x_min":51,"x_max":1235,"o":"m 171 321 l 176 453 q 164 638 176 536 q 97 590 144 624 l 51 671 q 300 815 192 724 l 419 815 q 422 674 422 721 q 400 308 422 471 l 171 308 l 171 321 m 894 -40 q 1004 -47 950 -47 q 1139 42 1106 -47 l 1235 38 q 1193 -112 1222 -58 l 711 -112 q 949 240 949 115 q 899 336 949 300 q 821 240 847 297 l 725 269 q 844 394 776 353 l 1121 394 q 1226 256 1196 339 q 1100 103 1188 182 q 894 -40 1013 25 m 750 815 q 936 843 858 843 q 457 -131 711 447 l 443 -133 q 272 -158 340 -158 q 750 815 506 254 z "},"¾":{"ha":1279,"x_min":31,"x_max":1263,"o":"m 939 31 q 931 151 939 94 l 928 167 l 1183 167 q 1181 121 1183 140 q 1174 31 1176 76 q 1263 67 1218 39 q 1218 -36 1231 -12 l 1167 -36 l 1158 -112 l 925 -112 q 935 -36 933 -67 l 707 -36 l 690 53 q 799 214 754 118 q 857 394 844 310 l 1078 394 q 953 213 1042 307 q 774 49 865 118 q 939 31 843 31 m 292 742 q 229 749 274 749 q 159 738 185 749 q 128 714 133 726 q 119 685 122 701 q 115 667 117 669 q 31 669 86 667 q 64 814 43 732 l 514 814 q 308 603 460 694 q 522 508 439 567 q 374 307 472 389 l 56 307 q 196 419 124 350 q 294 538 268 488 q 168 594 239 579 q 292 742 246 638 m 774 815 q 960 843 882 843 q 481 -131 735 447 l 467 -133 q 296 -158 364 -158 q 774 815 529 254 z "},"¿":{"ha":679,"x_min":21,"x_max":651,"o":"m 300 -32 q 21 0 167 -32 q 74 163 38 88 q 251 172 174 172 q 228 71 236 115 q 288 64 258 64 q 353 76 317 64 q 381 188 381 128 q 323 363 381 249 q 254 517 265 478 q 393 538 297 528 q 532 358 418 458 q 610 269 574 321 q 651 168 646 218 q 568 23 651 78 q 300 -32 485 -32 m 178 718 q 305 726 232 726 q 393 725 378 726 q 442 590 422 668 q 208 576 288 590 q 178 718 206 654 z "},"À":{"ha":1065,"x_min":85,"x_max":958,"o":"m 113 339 q 305 438 213 368 q 439 588 397 507 q 360 694 401 646 l 821 694 q 958 11 958 396 l 958 0 l 636 0 q 613 164 631 79 q 418 0 526 76 l 94 0 q 85 151 85 57 q 113 339 85 244 m 588 265 q 493 499 551 389 q 418 136 428 307 q 588 265 518 188 m 538 944 q 681 764 581 829 l 589 764 q 506 806 538 788 q 438 856 474 824 q 383 925 403 888 l 538 944 z "},"Á":{"ha":1065,"x_min":85,"x_max":958,"o":"m 958 11 l 958 0 l 636 0 q 613 164 631 79 q 418 0 526 76 l 94 0 q 85 151 85 57 q 113 339 85 244 q 305 438 213 368 q 439 588 397 507 q 360 694 401 646 l 821 694 q 958 11 958 396 m 588 265 q 493 499 551 389 q 418 136 428 307 q 588 265 518 188 m 526 944 l 681 925 q 626 856 661 888 q 558 806 590 824 q 475 764 526 788 l 383 764 q 526 944 483 829 z "},"Â":{"ha":1065,"x_min":85,"x_max":958,"o":"m 113 339 q 305 438 213 368 q 439 588 397 507 q 360 694 401 646 l 821 694 q 958 11 958 396 l 958 0 l 636 0 q 613 164 631 79 q 418 0 526 76 l 94 0 q 85 151 85 57 q 113 339 85 244 m 588 265 q 493 499 551 389 q 418 136 428 307 q 588 265 518 188 m 394 775 l 519 935 l 588 935 l 713 775 l 668 775 l 553 861 l 439 775 l 394 775 z "},"Ã":{"ha":1065,"x_min":85,"x_max":958,"o":"m 958 11 l 958 0 l 636 0 q 613 164 631 79 q 418 0 526 76 l 94 0 q 85 151 85 57 q 113 339 85 244 q 305 438 213 368 q 439 588 397 507 q 360 694 401 646 l 821 694 q 958 11 958 396 m 588 265 q 493 499 551 389 q 418 136 428 307 q 588 265 518 188 m 712 845 q 707 838 712 845 q 674 815 703 831 q 605 799 646 799 q 517 827 564 799 q 447 856 469 856 q 356 810 396 856 l 374 865 q 416 901 390 885 q 472 917 442 917 q 544 901 501 917 q 617 886 586 886 q 754 951 692 886 q 735 900 749 940 q 712 845 721 860 z "},"Ä":{"ha":1065,"x_min":85,"x_max":958,"o":"m 958 11 l 958 0 l 636 0 q 613 164 631 79 q 418 0 526 76 l 94 0 q 85 151 85 57 q 113 339 85 244 q 305 438 213 368 q 439 588 397 507 q 360 694 401 646 l 821 694 q 958 11 958 396 m 588 265 q 493 499 551 389 q 418 136 428 307 q 588 265 518 188 m 453 800 l 397 799 q 317 801 369 799 q 358 942 351 883 q 500 933 432 935 q 453 800 483 858 m 701 800 l 644 799 q 565 801 618 799 q 607 942 599 886 q 749 933 679 935 q 701 800 729 856 z "},"Å":{"ha":1065,"x_min":85,"x_max":958,"o":"m 113 339 q 305 438 213 368 q 439 588 397 507 q 360 694 401 646 l 821 694 q 958 11 958 396 l 958 0 l 636 0 q 613 164 631 79 q 418 0 526 76 l 94 0 q 85 151 85 57 q 113 339 85 244 m 588 265 q 493 499 551 389 q 418 136 428 307 q 588 265 518 188 m 525 775 q 485 842 485 806 q 524 909 485 879 q 611 939 564 939 q 676 917 658 939 q 693 862 693 896 q 656 798 693 828 q 568 768 618 768 q 525 775 549 768 m 561 867 q 604 789 561 808 q 618 835 618 807 q 572 911 618 890 q 561 867 561 889 z "},"Æ":{"ha":1426,"x_min":57,"x_max":1349,"o":"m 1079 414 l 1207 406 q 1219 406 1211 406 q 1231 407 1226 407 l 1165 286 l 1151 286 q 1077 300 1125 286 q 1008 314 1029 314 q 918 240 950 314 q 910 106 913 175 q 1022 92 982 92 l 1035 92 q 1130 118 1094 92 q 1181 213 1165 144 l 1349 206 q 1293 0 1328 86 l 607 0 q 583 164 597 96 q 389 0 493 72 l 67 0 q 57 155 57 58 q 83 339 57 251 q 278 438 185 368 q 411 588 371 507 q 331 694 368 650 l 1347 694 q 1301 483 1324 554 l 1151 476 q 1164 538 1164 514 q 1063 603 1164 603 q 981 596 1019 603 q 933 363 949 464 q 1071 414 989 414 l 1079 414 m 558 265 q 465 497 522 393 q 389 136 401 310 q 558 265 489 188 z "},"Ç":{"ha":878,"x_min":53,"x_max":836,"o":"m 428 -72 l 488 -62 q 531 -76 511 -62 q 554 -110 551 -89 l 554 -117 q 505 -216 554 -171 q 379 -262 456 -261 l 371 -233 q 435 -213 413 -233 q 458 -168 458 -193 q 414 -132 458 -132 q 350 -153 406 -132 l 393 -28 q 353 -29 379 -29 l 321 -29 q 124 131 196 25 q 53 353 53 236 q 181 617 53 508 q 551 726 308 726 q 836 692 688 726 q 781 526 814 604 q 600 518 693 518 q 624 610 614 557 q 530 618 575 618 q 421 603 485 618 q 400 432 400 515 q 592 101 400 217 q 822 313 719 186 q 829 143 826 257 q 654 32 742 75 q 444 -24 567 -11 l 428 -72 z "},"È":{"ha":932,"x_min":89,"x_max":854,"o":"m 707 407 q 736 408 726 407 l 671 286 l 658 286 q 583 301 632 286 q 514 315 535 315 q 424 242 457 315 q 415 106 418 174 q 529 92 488 92 l 542 92 q 637 118 601 92 q 688 213 672 144 l 854 206 q 799 0 833 86 q 117 0 799 0 q 89 372 89 188 q 108 694 89 557 l 853 694 q 808 483 828 544 q 658 478 726 479 q 669 538 669 510 q 569 604 669 604 q 486 596 532 604 q 439 364 456 464 q 576 415 494 415 l 707 407 m 471 944 q 614 764 514 829 l 522 764 q 439 806 471 788 q 372 856 407 824 q 317 925 336 888 l 471 944 z "},"É":{"ha":932,"x_min":89,"x_max":854,"o":"m 576 415 l 707 407 q 736 408 726 407 l 671 286 l 658 286 q 583 301 632 286 q 514 315 535 315 q 424 242 457 315 q 415 106 418 174 q 529 92 488 92 l 542 92 q 637 118 601 92 q 688 213 672 144 l 854 206 q 799 0 833 86 l 117 0 q 89 372 89 188 q 108 694 89 557 l 853 694 q 808 483 828 544 q 658 478 726 479 q 669 538 669 510 q 569 604 669 604 q 486 596 532 604 q 439 364 456 464 q 576 415 494 415 m 460 944 l 614 925 q 559 856 594 888 q 492 806 524 824 q 408 764 460 788 l 317 764 q 460 944 417 829 z "},"Ê":{"ha":932,"x_min":89,"x_max":854,"o":"m 576 415 l 707 407 q 736 408 726 407 l 671 286 l 658 286 q 583 301 632 286 q 514 315 535 315 q 424 242 456 315 q 415 106 417 172 q 529 92 476 92 l 542 92 q 637 118 603 92 q 688 213 671 144 l 854 206 q 799 0 831 79 l 117 0 q 89 377 89 188 q 108 694 89 567 l 853 694 q 808 483 819 524 q 658 478 767 481 q 669 538 669 511 q 569 604 669 604 q 486 596 532 604 q 439 364 454 457 q 576 415 497 415 m 307 775 l 432 935 l 500 935 l 625 775 l 581 775 l 465 861 l 351 775 l 307 775 z "},"Ë":{"ha":932,"x_min":89,"x_max":854,"o":"m 576 415 l 707 407 q 736 408 726 407 l 671 286 l 658 286 q 583 301 632 286 q 514 315 535 315 q 424 242 456 315 q 415 106 417 172 q 529 92 476 92 l 542 92 q 637 118 603 92 q 688 213 671 144 l 854 206 q 799 0 831 79 l 117 0 q 89 377 89 188 q 108 694 89 567 l 853 694 q 808 483 819 524 q 658 478 767 481 q 669 538 669 511 q 569 604 669 604 q 486 596 532 604 q 439 364 454 457 q 576 415 497 415 m 386 800 l 331 799 q 250 801 303 799 q 292 942 283 875 q 433 933 364 936 q 386 800 417 858 m 635 800 l 578 799 q 499 801 551 799 q 540 942 532 886 q 682 933 614 936 q 635 800 663 856 z "},"Ì":{"ha":550,"x_min":94,"x_max":474,"o":"m 474 694 l 474 657 q 428 0 474 290 l 94 0 q 121 295 121 128 q 99 694 121 463 l 474 694 m 281 944 q 424 764 324 829 l 332 764 q 249 806 281 788 q 181 856 217 824 q 126 925 146 888 l 281 944 z "},"Í":{"ha":550,"x_min":94,"x_max":474,"o":"m 474 694 l 474 657 q 428 0 474 290 l 94 0 q 121 295 121 128 q 99 694 121 463 l 474 694 m 269 944 l 424 925 q 369 856 404 888 q 301 806 333 824 q 218 764 269 788 l 126 764 q 269 944 226 829 z "},"Î":{"ha":550,"x_min":94,"x_max":474,"o":"m 474 694 l 474 657 q 428 0 474 290 l 94 0 q 121 295 121 128 q 99 694 121 463 l 474 694 m 115 775 l 240 935 l 308 935 l 433 775 l 389 775 l 274 861 l 160 775 l 115 775 z "},"Ï":{"ha":550,"x_min":58,"x_max":490,"o":"m 474 694 l 474 657 q 428 0 474 290 l 94 0 q 121 295 121 128 q 99 694 121 463 l 474 694 m 194 800 l 139 799 q 58 801 111 799 q 100 942 93 883 q 242 933 174 935 q 194 800 225 858 m 443 800 l 386 799 q 307 801 360 799 q 349 942 340 886 q 490 933 421 935 q 443 800 471 856 z "},"Ð":{"ha":1014,"x_min":0,"x_max":978,"o":"m 471 726 q 915 658 742 726 q 978 414 978 538 q 871 138 978 253 q 444 -31 715 -31 q 231 -14 358 -31 l 189 -8 q 140 324 154 164 q 0 336 25 332 q 25 356 8 342 q 81 394 61 386 l 135 394 q 132 522 132 435 q 140 703 132 608 q 471 726 306 726 m 493 317 q 490 184 490 239 q 494 54 490 129 q 614 190 571 94 q 657 385 657 286 q 620 550 657 485 q 515 622 583 615 q 497 400 507 535 q 614 411 583 403 q 543 317 581 353 l 493 317 z "},"Ñ":{"ha":993,"x_min":32,"x_max":906,"o":"m 897 694 q 906 387 906 549 q 892 0 906 225 l 758 0 q 264 393 489 144 q 275 202 275 300 q 268 0 275 104 l 106 0 q 133 316 133 171 q 119 546 133 461 q 32 694 64 629 l 426 694 q 585 488 485 594 q 778 322 686 382 q 732 694 778 525 l 897 694 m 653 845 q 649 838 653 845 q 616 815 644 831 q 547 799 588 799 q 458 827 506 799 q 389 856 411 856 q 297 810 338 856 l 315 865 q 358 901 332 885 q 413 917 383 917 q 485 901 443 917 q 558 886 528 886 q 696 951 633 886 q 676 900 690 940 q 653 845 663 860 z "},"Ò":{"ha":914,"x_min":47,"x_max":871,"o":"m 363 -31 q 171 4 272 -31 q 47 329 47 163 q 186 611 47 496 q 542 726 325 726 q 771 692 657 726 q 871 421 871 565 q 722 104 871 239 q 363 -31 574 -31 m 583 258 q 583 313 583 258 q 530 463 583 368 q 382 606 476 557 q 333 410 333 522 q 383 202 333 297 q 518 65 432 107 q 583 258 583 149 m 463 944 q 606 764 506 829 l 514 764 q 431 806 463 788 q 363 856 399 824 q 308 925 328 888 l 463 944 z "},"Ó":{"ha":914,"x_min":47,"x_max":871,"o":"m 171 4 q 47 329 47 163 q 186 611 47 496 q 542 726 325 726 q 771 692 657 726 q 871 421 871 565 q 722 104 871 239 q 363 -31 574 -31 q 171 4 272 -31 m 382 606 q 333 410 333 522 q 383 202 333 297 q 518 65 432 107 q 583 258 583 149 q 530 463 583 368 q 382 606 476 557 m 451 944 l 606 925 q 551 856 586 888 q 483 806 515 824 q 400 764 451 788 l 308 764 q 451 944 408 829 z "},"Ô":{"ha":914,"x_min":47,"x_max":871,"o":"m 363 -31 q 171 4 272 -31 q 47 329 47 163 q 186 611 47 496 q 542 726 325 726 q 771 692 657 726 q 871 421 871 565 q 722 104 871 239 q 363 -31 574 -31 m 583 258 q 583 313 583 258 q 530 463 583 368 q 382 606 476 557 q 333 410 333 522 q 383 202 333 297 q 518 65 432 107 q 583 258 583 149 m 297 775 l 422 935 l 490 935 l 615 775 l 571 775 l 456 861 l 342 775 l 297 775 z "},"Õ":{"ha":914,"x_min":47,"x_max":871,"o":"m 171 4 q 47 329 47 163 q 186 611 47 496 q 542 726 325 726 q 771 692 657 726 q 871 421 871 565 q 722 104 871 239 q 363 -31 574 -31 q 171 4 272 -31 m 382 606 q 333 410 333 522 q 383 202 333 297 q 518 65 432 107 q 583 258 583 149 q 530 463 583 368 q 382 606 476 557 m 613 845 q 609 838 613 845 q 576 815 604 831 q 506 799 547 799 q 418 827 465 799 q 349 856 371 856 q 257 810 297 856 l 275 865 q 317 901 292 885 q 373 917 343 917 q 445 901 403 917 q 518 886 488 886 q 656 951 593 886 q 636 900 650 940 q 613 845 622 860 z "},"Ö":{"ha":914,"x_min":47,"x_max":871,"o":"m 171 4 q 47 329 47 163 q 186 611 47 496 q 542 726 325 726 q 771 692 657 726 q 871 421 871 565 q 722 104 871 239 q 363 -31 574 -31 q 171 4 272 -31 m 382 606 q 333 410 333 522 q 383 202 333 297 q 518 65 432 107 q 583 258 583 149 q 530 463 583 368 q 382 606 476 557 m 376 800 l 321 799 q 240 801 293 799 q 282 942 275 883 q 424 933 356 935 q 376 800 407 858 m 625 800 l 568 799 q 489 801 542 799 q 531 942 522 886 q 672 933 603 935 q 625 800 653 856 z "},"×":{"ha":443,"x_min":69,"x_max":374,"o":"m 69 258 q 176 360 142 325 q 69 460 129 407 l 121 513 q 221 403 164 463 q 322 513 272 456 l 374 460 q 264 360 324 417 q 374 258 299 325 l 322 207 q 221 317 272 264 q 121 207 164 257 q 104 223 113 214 q 86 242 96 232 l 69 258 z "},"Ø":{"ha":865,"x_min":-21,"x_max":894,"o":"m 25 322 q 165 610 25 494 q 519 726 306 726 q 703 704 610 726 l 729 735 q 894 757 807 750 l 779 647 q 847 419 847 539 q 699 104 847 239 q 340 -31 551 -31 q 149 4 250 -31 l 140 14 l 75 -57 l -21 -57 l 103 68 q 25 322 25 199 m 558 267 q 532 411 558 342 q 347 228 407 289 q 494 67 400 113 q 558 267 558 149 m 311 407 q 324 296 311 347 q 496 478 422 397 q 360 604 442 563 q 311 407 311 521 z "},"Ù":{"ha":974,"x_min":100,"x_max":919,"o":"m 775 233 q 736 694 775 453 l 914 694 q 919 431 919 604 q 897 63 919 258 q 551 -31 753 -31 q 118 63 283 -31 q 100 353 100 213 q 121 694 100 494 l 494 694 q 436 115 439 393 q 604 63 494 63 q 772 101 714 63 q 775 233 775 147 m 492 944 q 635 764 535 829 l 543 764 q 460 806 492 788 q 392 856 428 824 q 338 925 357 888 l 492 944 z "},"Ú":{"ha":974,"x_min":100,"x_max":919,"o":"m 914 694 q 919 431 919 604 q 897 63 919 258 q 551 -31 753 -31 q 118 63 283 -31 q 100 353 100 213 q 121 694 100 494 l 494 694 q 436 115 439 393 q 604 63 494 63 q 772 101 714 63 q 775 233 775 147 q 736 694 775 453 l 914 694 m 481 944 l 635 925 q 580 856 615 888 q 513 806 544 824 q 429 764 481 788 l 338 764 q 481 944 438 829 z "},"Û":{"ha":974,"x_min":100,"x_max":919,"o":"m 775 233 q 736 694 775 453 l 914 694 q 919 431 919 604 q 897 63 919 258 q 551 -31 753 -31 q 118 63 283 -31 q 100 353 100 213 q 121 694 100 494 l 494 694 q 436 115 439 393 q 604 63 494 63 q 772 101 714 63 q 775 233 775 147 m 328 775 l 453 935 l 521 935 l 646 775 l 601 775 l 486 861 l 372 775 l 328 775 z "},"Ü":{"ha":974,"x_min":100,"x_max":919,"o":"m 914 694 q 919 431 919 604 q 897 63 919 258 q 551 -31 753 -31 q 118 63 283 -31 q 100 353 100 213 q 121 694 100 494 l 494 694 q 436 115 439 393 q 604 63 494 63 q 772 101 714 63 q 775 233 775 147 q 736 694 775 453 l 914 694 m 407 800 l 351 799 q 271 801 324 799 q 313 942 306 883 q 454 933 386 935 q 407 800 438 858 m 656 800 l 599 799 q 519 801 572 799 q 561 942 553 886 q 703 933 633 935 q 656 800 683 856 z "},"Ý":{"ha":1017,"x_min":110,"x_max":1056,"o":"m 978 668 q 899 657 931 657 q 838 661 867 657 q 760 524 794 610 q 708 369 725 438 q 669 203 690 301 q 458 -511 564 -300 q 286 -551 389 -532 q 511 0 425 -314 l 224 0 q 110 694 114 356 l 515 694 q 486 420 486 565 q 533 89 486 275 q 567 220 543 126 q 601 354 590 314 q 635 468 613 394 q 677 578 658 542 q 724 661 696 615 q 856 772 774 743 q 951 787 879 779 q 1056 815 1024 794 q 978 668 1018 729 m 503 944 l 657 925 q 602 856 638 888 q 535 806 567 824 q 451 764 503 788 l 360 764 q 503 944 460 829 z "},"Þ":{"ha":939,"x_min":63,"x_max":883,"o":"m 121 217 q 63 856 121 536 q 464 788 197 832 l 469 694 l 838 694 q 883 447 883 572 q 872 314 883 389 q 478 211 706 232 q 465 0 474 104 l 114 0 q 121 217 121 89 m 479 381 l 479 308 q 606 336 553 315 q 556 472 596 396 q 475 600 517 547 q 479 381 479 489 z "},"ß":{"ha":886,"x_min":89,"x_max":831,"o":"m 89 435 q 93 601 89 514 q 268 847 164 747 l 596 847 q 750 646 707 751 q 614 486 690 544 q 831 239 754 389 q 731 0 788 93 l 443 0 l 403 153 q 513 93 460 93 q 518 153 518 132 q 491 301 518 225 q 415 435 464 378 q 603 631 535 507 q 525 706 582 669 q 411 756 468 743 q 369 160 369 471 q 374 0 369 72 l 121 0 q 89 435 89 224 z "},"à":{"ha":1065,"x_min":85,"x_max":958,"o":"m 113 339 q 305 438 213 368 q 439 588 397 507 q 360 694 401 646 l 821 694 q 958 11 958 396 l 958 0 l 636 0 q 613 164 631 79 q 418 0 526 76 l 94 0 q 85 151 85 57 q 113 339 85 244 m 588 265 q 493 499 551 389 q 418 136 428 307 q 588 265 518 188 m 538 944 q 681 764 581 829 l 589 764 q 506 806 538 788 q 438 856 474 824 q 383 925 403 888 l 538 944 z "},"á":{"ha":1065,"x_min":85,"x_max":958,"o":"m 958 11 l 958 0 l 636 0 q 613 164 631 79 q 418 0 526 76 l 94 0 q 85 151 85 57 q 113 339 85 244 q 305 438 213 368 q 439 588 397 507 q 360 694 401 646 l 821 694 q 958 11 958 396 m 588 265 q 493 499 551 389 q 418 136 428 307 q 588 265 518 188 m 526 944 l 681 925 q 626 856 661 888 q 558 806 590 824 q 475 764 526 788 l 383 764 q 526 944 483 829 z "},"â":{"ha":1065,"x_min":85,"x_max":958,"o":"m 113 339 q 305 438 213 368 q 439 588 397 507 q 360 694 401 646 l 821 694 q 958 11 958 396 l 958 0 l 636 0 q 613 164 631 79 q 418 0 526 76 l 94 0 q 85 151 85 57 q 113 339 85 244 m 588 265 q 493 499 551 389 q 418 136 428 307 q 588 265 518 188 m 394 775 l 519 935 l 588 935 l 713 775 l 668 775 l 553 861 l 439 775 l 394 775 z "},"ã":{"ha":1065,"x_min":85,"x_max":958,"o":"m 958 11 l 958 0 l 636 0 q 613 164 631 79 q 418 0 526 76 l 94 0 q 85 151 85 57 q 113 339 85 244 q 305 438 213 368 q 439 588 397 507 q 360 694 401 646 l 821 694 q 958 11 958 396 m 588 265 q 493 499 551 389 q 418 136 428 307 q 588 265 518 188 m 712 845 q 707 838 712 845 q 674 815 703 831 q 605 799 646 799 q 517 827 564 799 q 447 856 469 856 q 356 810 396 856 l 374 865 q 416 901 390 885 q 472 917 442 917 q 544 901 501 917 q 617 886 586 886 q 754 951 692 886 q 735 900 749 940 q 712 845 721 860 z "},"ä":{"ha":1065,"x_min":85,"x_max":958,"o":"m 958 11 l 958 0 l 636 0 q 613 164 631 79 q 418 0 526 76 l 94 0 q 85 151 85 57 q 113 339 85 244 q 305 438 213 368 q 439 588 397 507 q 360 694 401 646 l 821 694 q 958 11 958 396 m 588 265 q 493 499 551 389 q 418 136 428 307 q 588 265 518 188 m 453 800 l 397 799 q 317 801 369 799 q 358 942 351 883 q 500 933 432 935 q 453 800 483 858 m 701 800 l 644 799 q 565 801 618 799 q 607 942 599 886 q 749 933 679 935 q 701 800 729 856 z "},"å":{"ha":1065,"x_min":85,"x_max":958,"o":"m 113 339 q 305 438 213 368 q 439 588 397 507 q 360 694 401 646 l 821 694 q 958 11 958 396 l 958 0 l 636 0 q 613 164 631 79 q 418 0 526 76 l 94 0 q 85 151 85 57 q 113 339 85 244 m 588 265 q 493 499 551 389 q 418 136 428 307 q 588 265 518 188 m 525 775 q 485 842 485 806 q 524 909 485 879 q 611 939 564 939 q 676 917 658 939 q 693 862 693 896 q 656 798 693 828 q 568 768 618 768 q 525 775 549 768 m 561 867 q 604 789 561 808 q 618 835 618 807 q 572 911 618 890 q 561 867 561 889 z "},"æ":{"ha":1426,"x_min":57,"x_max":1349,"o":"m 1079 414 l 1207 406 q 1219 406 1211 406 q 1231 407 1226 407 l 1165 286 l 1151 286 q 1077 300 1125 286 q 1008 314 1029 314 q 918 240 950 314 q 910 106 913 175 q 1022 92 982 92 l 1035 92 q 1130 118 1094 92 q 1181 213 1165 144 l 1349 206 q 1293 0 1328 86 l 607 0 q 583 164 597 96 q 389 0 493 72 l 67 0 q 57 155 57 58 q 83 339 57 251 q 278 438 185 368 q 411 588 371 507 q 331 694 368 650 l 1347 694 q 1301 483 1324 554 l 1151 476 q 1164 538 1164 514 q 1063 603 1164 603 q 981 596 1019 603 q 933 363 949 464 q 1071 414 989 414 l 1079 414 m 558 265 q 465 497 522 393 q 389 136 401 310 q 558 265 489 188 z "},"ç":{"ha":878,"x_min":53,"x_max":836,"o":"m 428 -72 l 488 -62 q 531 -76 511 -62 q 554 -110 551 -89 l 554 -117 q 505 -216 554 -171 q 379 -262 456 -261 l 371 -233 q 435 -213 413 -233 q 458 -168 458 -193 q 414 -132 458 -132 q 350 -153 406 -132 l 393 -28 q 353 -29 379 -29 l 321 -29 q 124 131 196 25 q 53 353 53 236 q 181 617 53 508 q 551 726 308 726 q 836 692 688 726 q 781 526 814 604 q 600 518 693 518 q 624 610 614 557 q 530 618 575 618 q 421 603 485 618 q 400 432 400 515 q 592 101 400 217 q 822 313 719 186 q 829 143 826 257 q 654 32 742 75 q 444 -24 567 -11 l 428 -72 z "},"è":{"ha":932,"x_min":89,"x_max":854,"o":"m 707 407 q 736 408 726 407 l 671 286 l 658 286 q 583 301 632 286 q 514 315 535 315 q 424 242 457 315 q 415 106 418 174 q 529 92 488 92 l 542 92 q 637 118 601 92 q 688 213 672 144 l 854 206 q 799 0 833 86 q 117 0 799 0 q 89 372 89 188 q 108 694 89 557 l 853 694 q 808 483 828 544 q 658 478 726 479 q 669 538 669 510 q 569 604 669 604 q 486 596 532 604 q 439 364 456 464 q 576 415 494 415 l 707 407 m 471 944 q 614 764 514 829 l 522 764 q 439 806 471 788 q 372 856 407 824 q 317 925 336 888 l 471 944 z "},"é":{"ha":932,"x_min":89,"x_max":854,"o":"m 576 415 l 707 407 q 736 408 726 407 l 671 286 l 658 286 q 583 301 632 286 q 514 315 535 315 q 424 242 457 315 q 415 106 418 174 q 529 92 488 92 l 542 92 q 637 118 601 92 q 688 213 672 144 l 854 206 q 799 0 833 86 l 117 0 q 89 372 89 188 q 108 694 89 557 l 853 694 q 808 483 828 544 q 658 478 726 479 q 669 538 669 510 q 569 604 669 604 q 486 596 532 604 q 439 364 456 464 q 576 415 494 415 m 460 944 l 614 925 q 559 856 594 888 q 492 806 524 824 q 408 764 460 788 l 317 764 q 460 944 417 829 z "},"ê":{"ha":932,"x_min":89,"x_max":854,"o":"m 707 407 q 736 408 726 407 l 671 286 l 658 286 q 583 301 632 286 q 514 315 535 315 q 424 242 457 315 q 415 106 418 174 q 529 92 488 92 l 542 92 q 637 118 601 92 q 688 213 672 144 l 854 206 q 799 0 833 86 q 117 0 799 0 q 89 372 89 188 q 108 694 89 557 l 853 694 q 808 483 828 544 q 658 478 726 479 q 669 538 669 510 q 569 604 669 604 q 486 596 532 604 q 439 364 456 464 q 576 415 494 415 l 707 407 m 307 775 l 432 935 l 500 935 l 625 775 l 581 775 l 465 861 l 351 775 l 307 775 z "},"ë":{"ha":932,"x_min":89,"x_max":854,"o":"m 576 415 l 707 407 q 736 408 726 407 l 671 286 l 658 286 q 583 301 632 286 q 514 315 535 315 q 424 242 457 315 q 415 106 418 174 q 529 92 488 92 l 542 92 q 637 118 601 92 q 688 213 672 144 l 854 206 q 799 0 833 86 l 117 0 q 89 372 89 188 q 108 694 89 557 l 853 694 q 808 483 828 544 q 658 478 726 479 q 669 538 669 510 q 569 604 669 604 q 486 596 532 604 q 439 364 456 464 q 576 415 494 415 m 386 800 l 331 799 q 250 801 303 799 q 292 942 285 883 q 433 933 365 935 q 386 800 417 858 m 635 800 l 578 799 q 499 801 551 799 q 540 942 532 886 q 682 933 613 935 q 635 800 663 856 z "},"ì":{"ha":550,"x_min":94,"x_max":474,"o":"m 474 694 l 474 657 q 428 0 474 290 l 94 0 q 121 295 121 128 q 99 694 121 463 l 474 694 m 281 944 q 424 764 324 829 l 332 764 q 249 806 281 788 q 181 856 217 824 q 126 925 146 888 l 281 944 z "},"í":{"ha":550,"x_min":94,"x_max":474,"o":"m 474 694 l 474 657 q 428 0 474 290 l 94 0 q 121 295 121 128 q 99 694 121 463 l 474 694 m 269 944 l 424 925 q 369 856 404 888 q 301 806 333 824 q 218 764 269 788 l 126 764 q 269 944 226 829 z "},"î":{"ha":550,"x_min":94,"x_max":474,"o":"m 474 694 l 474 657 q 428 0 474 290 l 94 0 q 121 295 121 128 q 99 694 121 463 l 474 694 m 115 775 l 240 935 l 308 935 l 433 775 l 389 775 l 274 861 l 160 775 l 115 775 z "},"ï":{"ha":550,"x_min":58,"x_max":490,"o":"m 474 694 l 474 657 q 428 0 474 290 l 94 0 q 121 295 121 128 q 99 694 121 463 l 474 694 m 194 800 l 139 799 q 58 801 111 799 q 100 942 93 883 q 242 933 174 935 q 194 800 225 858 m 443 800 l 386 799 q 307 801 360 799 q 349 942 340 886 q 490 933 421 935 q 443 800 471 856 z "},"ð":{"ha":1014,"x_min":0,"x_max":978,"o":"m 471 726 q 915 658 742 726 q 978 414 978 538 q 871 138 978 253 q 444 -31 715 -31 q 231 -14 358 -31 l 189 -8 q 140 324 154 164 q 0 336 25 332 q 25 356 8 342 q 81 394 61 386 l 135 394 q 132 522 132 435 q 140 703 132 608 q 471 726 306 726 m 493 317 q 490 184 490 239 q 494 54 490 129 q 614 190 571 94 q 657 385 657 286 q 620 550 657 485 q 515 622 583 615 q 497 400 507 535 q 614 411 583 403 q 543 317 581 353 l 493 317 z "},"ñ":{"ha":993,"x_min":32,"x_max":906,"o":"m 897 694 q 906 387 906 549 q 892 0 906 225 l 758 0 q 264 393 489 144 q 275 202 275 300 q 268 0 275 104 l 106 0 q 133 316 133 171 q 119 546 133 461 q 32 694 64 629 l 426 694 q 585 488 485 594 q 778 322 686 382 q 732 694 778 525 l 897 694 m 653 845 q 649 838 653 845 q 616 815 644 831 q 547 799 588 799 q 458 827 506 799 q 389 856 411 856 q 297 810 338 856 l 315 865 q 358 901 332 885 q 413 917 383 917 q 485 901 443 917 q 558 886 528 886 q 696 951 633 886 q 676 900 690 940 q 653 845 663 860 z "},"ò":{"ha":914,"x_min":47,"x_max":871,"o":"m 363 -31 q 171 4 272 -31 q 47 329 47 163 q 186 611 47 496 q 542 726 325 726 q 771 692 657 726 q 871 421 871 565 q 722 104 871 239 q 363 -31 574 -31 m 583 258 q 583 313 583 258 q 530 463 583 368 q 382 606 476 557 q 333 410 333 522 q 383 202 333 297 q 518 65 432 107 q 583 258 583 149 m 463 944 q 606 764 506 829 l 514 764 q 431 806 463 788 q 363 856 399 824 q 308 925 328 888 l 463 944 z "},"ó":{"ha":914,"x_min":47,"x_max":871,"o":"m 171 4 q 47 329 47 163 q 186 611 47 496 q 542 726 325 726 q 771 692 657 726 q 871 421 871 565 q 722 104 871 239 q 363 -31 574 -31 q 171 4 272 -31 m 382 606 q 333 410 333 522 q 383 202 333 297 q 518 65 432 107 q 583 258 583 149 q 530 463 583 368 q 382 606 476 557 m 451 944 l 606 925 q 551 856 586 888 q 483 806 515 824 q 400 764 451 788 l 308 764 q 451 944 408 829 z "},"ô":{"ha":914,"x_min":47,"x_max":871,"o":"m 363 -31 q 171 4 272 -31 q 47 329 47 163 q 186 611 47 496 q 542 726 325 726 q 771 692 657 726 q 871 421 871 565 q 722 104 871 239 q 363 -31 574 -31 m 583 258 q 583 313 583 258 q 530 463 583 368 q 382 606 476 557 q 333 410 333 522 q 383 202 333 297 q 518 65 432 107 q 583 258 583 149 m 297 775 l 422 935 l 490 935 l 615 775 l 571 775 l 456 861 l 342 775 l 297 775 z "},"õ":{"ha":914,"x_min":47,"x_max":871,"o":"m 171 4 q 47 329 47 163 q 186 611 47 496 q 542 726 325 726 q 771 692 657 726 q 871 421 871 565 q 722 104 871 239 q 363 -31 574 -31 q 171 4 272 -31 m 382 606 q 333 410 333 522 q 383 202 333 297 q 518 65 432 107 q 583 258 583 149 q 530 463 583 368 q 382 606 476 557 m 613 845 q 609 838 613 845 q 576 815 604 831 q 506 799 547 799 q 418 827 465 799 q 349 856 371 856 q 257 810 297 856 l 275 865 q 317 901 292 885 q 373 917 343 917 q 445 901 403 917 q 518 886 488 886 q 656 951 593 886 q 636 900 650 940 q 613 845 622 860 z "},"ö":{"ha":914,"x_min":47,"x_max":871,"o":"m 171 4 q 47 329 47 163 q 186 611 47 496 q 542 726 325 726 q 771 692 657 726 q 871 421 871 565 q 722 104 871 239 q 363 -31 574 -31 q 171 4 272 -31 m 382 606 q 333 410 333 522 q 383 202 333 297 q 518 65 432 107 q 583 258 583 149 q 530 463 583 368 q 382 606 476 557 m 376 800 l 321 799 q 240 801 293 799 q 282 942 275 883 q 424 933 356 935 q 376 800 407 858 m 625 800 l 568 799 q 489 801 542 799 q 531 942 522 886 q 672 933 603 935 q 625 800 653 856 z "},"÷":{"ha":497,"x_min":69,"x_max":428,"o":"m 69 396 q 249 390 149 390 q 428 396 349 390 l 428 322 q 249 329 328 329 q 69 322 169 329 l 69 396 m 222 501 q 228 507 222 501 q 249 513 233 513 q 275 501 264 513 q 286 475 286 490 q 275 449 286 460 q 249 438 264 438 q 222 449 233 438 q 211 475 211 460 q 222 501 211 490 m 222 270 q 228 275 222 270 q 249 281 233 281 q 275 270 264 281 q 286 244 286 260 q 275 218 286 229 q 249 207 264 207 q 222 218 233 207 q 211 244 211 229 q 222 270 211 260 z "},"ø":{"ha":865,"x_min":-21,"x_max":894,"o":"m 25 322 q 165 610 25 494 q 519 726 306 726 q 703 704 610 726 l 729 735 q 894 757 807 750 l 779 647 q 847 419 847 539 q 699 104 847 239 q 340 -31 551 -31 q 149 4 250 -31 l 140 14 l 75 -57 l -21 -57 l 103 68 q 25 322 25 199 m 558 267 q 532 411 558 342 q 347 228 407 289 q 494 67 400 113 q 558 267 558 149 m 311 407 q 324 296 311 347 q 496 478 422 397 q 360 604 442 563 q 311 407 311 521 z "},"ù":{"ha":974,"x_min":100,"x_max":919,"o":"m 775 233 q 736 694 775 453 l 914 694 q 919 431 919 604 q 897 63 919 258 q 551 -31 753 -31 q 118 63 283 -31 q 100 353 100 213 q 121 694 100 494 l 494 694 q 436 115 439 393 q 604 63 494 63 q 772 101 714 63 q 775 233 775 147 m 492 944 q 635 764 535 829 l 543 764 q 460 806 492 788 q 392 856 428 824 q 338 925 357 888 l 492 944 z "},"ú":{"ha":974,"x_min":100,"x_max":919,"o":"m 914 694 q 919 431 919 604 q 897 63 919 258 q 551 -31 753 -31 q 118 63 283 -31 q 100 353 100 213 q 121 694 100 494 l 494 694 q 436 115 439 393 q 604 63 494 63 q 772 101 714 63 q 775 233 775 147 q 736 694 775 453 l 914 694 m 481 944 l 635 925 q 580 856 615 888 q 513 806 544 824 q 429 764 481 788 l 338 764 q 481 944 438 829 z "},"û":{"ha":974,"x_min":100,"x_max":919,"o":"m 775 233 q 736 694 775 453 l 914 694 q 919 431 919 604 q 897 63 919 258 q 551 -31 753 -31 q 118 63 283 -31 q 100 353 100 213 q 121 694 100 494 l 494 694 q 436 115 439 393 q 604 63 494 63 q 772 101 714 63 q 775 233 775 147 m 328 775 l 453 935 l 521 935 l 646 775 l 601 775 l 486 861 l 372 775 l 328 775 z "},"ü":{"ha":974,"x_min":100,"x_max":919,"o":"m 914 694 q 919 431 919 604 q 897 63 919 258 q 551 -31 753 -31 q 118 63 283 -31 q 100 353 100 213 q 121 694 100 494 l 494 694 q 436 115 439 393 q 604 63 494 63 q 772 101 714 63 q 775 233 775 147 q 736 694 775 453 l 914 694 m 407 800 l 351 799 q 271 801 324 799 q 313 942 306 883 q 454 933 386 935 q 407 800 438 858 m 656 800 l 599 799 q 519 801 572 799 q 561 942 553 886 q 703 933 633 935 q 656 800 683 856 z "},"ý":{"ha":1017,"x_min":110,"x_max":1056,"o":"m 978 668 q 899 657 931 657 q 838 661 867 657 q 760 524 794 610 q 708 369 725 438 q 669 203 690 301 q 458 -511 564 -300 q 286 -551 389 -532 q 511 0 425 -314 l 224 0 q 110 694 114 356 l 515 694 q 486 420 486 565 q 533 89 486 275 q 567 220 543 126 q 601 354 590 314 q 635 468 613 394 q 677 578 658 542 q 724 661 696 615 q 856 772 774 743 q 951 787 879 779 q 1056 815 1024 794 q 978 668 1018 729 m 503 944 l 657 925 q 602 856 638 888 q 535 806 567 824 q 451 764 503 788 l 360 764 q 503 944 460 829 z "},"þ":{"ha":939,"x_min":63,"x_max":883,"o":"m 121 217 q 63 856 121 536 q 464 788 197 832 l 469 694 l 838 694 q 883 447 883 572 q 872 314 883 389 q 478 211 706 232 q 465 0 474 104 l 114 0 q 121 217 121 89 m 479 381 l 479 308 q 606 336 553 315 q 556 472 596 396 q 475 600 517 547 q 479 381 479 489 z "},"ÿ":{"ha":1017,"x_min":110,"x_max":1056,"o":"m 978 668 q 899 657 931 657 q 838 661 867 657 q 760 524 794 610 q 708 369 725 438 q 669 203 690 301 q 458 -511 564 -300 q 286 -551 389 -532 q 511 0 425 -314 l 224 0 q 110 694 114 356 l 515 694 q 486 420 486 565 q 533 89 486 275 q 567 220 543 126 q 601 354 590 314 q 635 468 613 394 q 677 578 658 542 q 724 661 696 615 q 856 772 774 743 q 951 787 879 779 q 1056 815 1024 794 q 978 668 1018 729 m 428 800 l 372 799 q 292 801 344 799 q 333 942 326 883 q 475 933 407 935 q 428 800 458 858 m 676 800 l 619 799 q 540 801 593 799 q 582 942 574 886 q 724 933 654 935 q 676 800 704 856 z "},"Ā":{"ha":1065,"x_min":85,"x_max":958,"o":"m 114 910 q 496 903 332 903 q 896 910 660 903 l 896 806 q 497 815 647 815 q 114 806 347 815 l 114 910 m 958 11 l 958 0 l 636 0 q 613 164 631 79 q 418 0 526 76 l 94 0 q 85 151 85 57 q 113 339 85 244 q 305 438 213 368 q 439 588 397 507 q 360 694 401 646 l 821 694 q 958 11 958 396 m 588 265 q 493 499 551 389 q 418 136 428 307 q 588 265 518 188 z "},"ā":{"ha":1065,"x_min":85,"x_max":958,"o":"m 114 910 q 496 903 332 903 q 896 910 660 903 l 896 806 q 497 815 647 815 q 114 806 347 815 l 114 910 m 958 11 l 958 0 l 636 0 q 613 164 631 79 q 418 0 526 76 l 94 0 q 85 151 85 57 q 113 339 85 244 q 305 438 213 368 q 439 588 397 507 q 360 694 401 646 l 821 694 q 958 11 958 396 m 588 265 q 493 499 551 389 q 418 136 428 307 q 588 265 518 188 z "},"Ă":{"ha":1065,"x_min":85,"x_max":958,"o":"m 958 11 l 958 0 l 636 0 q 613 164 631 79 q 418 0 526 76 l 94 0 q 85 151 85 57 q 113 339 85 244 q 305 438 213 368 q 439 588 397 507 q 360 694 401 646 l 821 694 q 958 11 958 396 m 588 265 q 493 499 551 389 q 418 136 428 307 q 588 265 518 188 m 503 854 q 617 824 551 824 q 736 869 683 824 q 724 842 739 869 q 672 786 708 815 q 551 747 626 747 q 406 790 475 747 l 386 801 q 412 894 393 843 q 432 944 431 944 l 503 854 z "},"ă":{"ha":1065,"x_min":85,"x_max":958,"o":"m 958 11 l 958 0 l 636 0 q 613 164 631 79 q 418 0 526 76 l 94 0 q 85 151 85 57 q 113 339 85 244 q 305 438 213 368 q 439 588 397 507 q 360 694 401 646 l 821 694 q 958 11 958 396 m 588 265 q 493 499 551 389 q 418 136 428 307 q 588 265 518 188 m 503 854 q 617 824 551 824 q 736 869 683 824 q 724 842 739 869 q 672 786 708 815 q 551 747 626 747 q 406 790 475 747 l 386 801 q 412 894 393 843 q 432 944 431 944 l 503 854 z "},"Ą":{"ha":1040,"x_min":79,"x_max":953,"o":"m 776 -133 q 826 -189 776 -189 q 878 -164 851 -189 q 885 -193 881 -178 q 797 -242 849 -242 q 715 -212 744 -242 q 686 -147 686 -183 q 782 0 686 -65 l 631 0 q 607 164 625 79 q 413 0 521 76 l 89 0 q 79 151 79 57 q 107 339 79 244 q 299 438 207 368 q 433 588 392 507 q 354 694 396 646 l 815 694 q 953 11 953 396 l 953 0 l 849 0 q 776 -133 776 -58 m 582 265 q 488 499 546 389 q 413 136 422 307 q 582 265 513 188 z "},"ą":{"ha":1040,"x_min":79,"x_max":953,"o":"m 776 -133 q 826 -189 776 -189 q 878 -164 851 -189 q 885 -193 881 -178 q 797 -242 849 -242 q 715 -212 744 -242 q 686 -147 686 -183 q 782 0 686 -65 l 631 0 q 607 164 625 79 q 413 0 521 76 l 89 0 q 79 151 79 57 q 107 339 79 244 q 299 438 207 368 q 433 588 392 507 q 354 694 396 646 l 815 694 q 953 11 953 396 l 953 0 l 849 0 q 776 -133 776 -58 m 582 265 q 488 499 546 389 q 413 136 422 307 q 582 265 513 188 z "},"Ć":{"ha":878,"x_min":53,"x_max":836,"o":"m 624 610 q 530 618 575 618 q 421 603 485 618 q 400 432 400 515 q 592 101 400 217 q 822 313 719 186 q 829 143 826 257 q 619 17 726 63 q 353 -29 513 -29 l 321 -29 q 124 131 196 25 q 53 353 53 236 q 181 617 53 508 q 551 726 308 726 q 836 692 688 726 q 781 526 814 604 q 600 518 693 518 q 624 610 614 557 m 433 944 l 588 925 q 533 856 568 888 q 465 806 497 824 q 382 764 433 788 l 290 764 q 433 944 390 829 z "},"ć":{"ha":878,"x_min":53,"x_max":836,"o":"m 624 610 q 530 618 575 618 q 421 603 485 618 q 400 432 400 515 q 592 101 400 217 q 822 313 719 186 q 829 143 826 257 q 619 17 726 63 q 353 -29 513 -29 l 321 -29 q 124 131 196 25 q 53 353 53 236 q 181 617 53 508 q 551 726 308 726 q 836 692 688 726 q 781 526 814 604 q 600 518 693 518 q 624 610 614 557 m 433 944 l 588 925 q 533 856 568 888 q 465 806 497 824 q 382 764 433 788 l 290 764 q 433 944 390 829 z "},"Ĉ":{"ha":878,"x_min":53,"x_max":836,"o":"m 551 726 q 836 692 688 726 q 781 526 814 604 q 600 518 693 518 q 624 610 614 557 q 530 618 575 618 q 421 603 485 618 q 400 432 400 515 q 592 101 400 217 q 822 313 719 186 q 829 143 826 257 q 619 17 726 63 q 353 -29 513 -29 l 321 -29 q 124 131 196 25 q 53 353 53 236 q 181 617 53 508 q 551 726 308 726 m 279 775 l 404 935 l 472 935 l 597 775 l 553 775 l 438 861 l 324 775 l 279 775 z "},"ĉ":{"ha":878,"x_min":53,"x_max":836,"o":"m 551 726 q 836 692 688 726 q 781 526 814 604 q 600 518 693 518 q 624 610 614 557 q 530 618 575 618 q 421 603 485 618 q 400 432 400 515 q 592 101 400 217 q 822 313 719 186 q 829 143 826 257 q 619 17 726 63 q 353 -29 513 -29 l 321 -29 q 124 131 196 25 q 53 353 53 236 q 181 617 53 508 q 551 726 308 726 m 279 775 l 404 935 l 472 935 l 597 775 l 553 775 l 438 861 l 324 775 l 279 775 z "},"Ċ":{"ha":878,"x_min":53,"x_max":836,"o":"m 624 610 q 530 618 575 618 q 421 603 485 618 q 400 432 400 515 q 592 101 400 217 q 822 313 719 186 q 829 143 826 257 q 619 17 726 63 q 353 -29 513 -29 l 321 -29 q 124 131 196 25 q 53 353 53 236 q 181 617 53 508 q 551 726 308 726 q 836 692 688 726 q 781 526 814 604 q 600 518 693 518 q 624 610 614 557 m 483 800 l 428 799 q 347 801 400 799 q 389 942 382 883 q 531 933 463 935 q 483 800 514 858 z "},"ċ":{"ha":878,"x_min":53,"x_max":836,"o":"m 624 610 q 530 618 575 618 q 421 603 485 618 q 400 432 400 515 q 592 101 400 217 q 822 313 719 186 q 829 143 826 257 q 619 17 726 63 q 353 -29 513 -29 l 321 -29 q 124 131 196 25 q 53 353 53 236 q 181 617 53 508 q 551 726 308 726 q 836 692 688 726 q 781 526 814 604 q 600 518 693 518 q 624 610 614 557 m 483 800 l 428 799 q 347 801 400 799 q 389 942 382 883 q 531 933 463 935 q 483 800 514 858 z "},"Č":{"ha":878,"x_min":53,"x_max":836,"o":"m 624 610 q 530 618 575 618 q 421 603 485 618 q 400 432 400 515 q 592 101 400 217 q 822 313 719 186 q 829 143 826 257 q 619 17 726 63 q 353 -29 513 -29 l 321 -29 q 124 131 196 25 q 53 353 53 236 q 181 617 53 508 q 551 726 308 726 q 836 692 688 726 q 781 526 814 604 q 600 518 693 518 q 624 610 614 557 m 404 769 l 279 929 l 324 929 l 438 843 l 553 929 l 597 929 l 472 769 l 404 769 z "},"č":{"ha":878,"x_min":53,"x_max":836,"o":"m 624 610 q 530 618 575 618 q 421 603 485 618 q 400 432 400 515 q 592 101 400 217 q 822 313 719 186 q 829 143 826 257 q 619 17 726 63 q 353 -29 513 -29 l 321 -29 q 124 131 196 25 q 53 353 53 236 q 181 617 53 508 q 551 726 308 726 q 836 692 688 726 q 781 526 814 604 q 600 518 693 518 q 624 610 614 557 m 404 769 l 279 929 l 324 929 l 438 843 l 553 929 l 597 929 l 472 769 l 404 769 z "},"Ď":{"ha":1129,"x_min":103,"x_max":1108,"o":"m 438 726 q 874 660 706 726 q 933 418 933 540 q 826 146 933 261 q 406 -19 671 -19 q 157 1 314 -19 q 103 517 103 281 q 111 694 103 599 q 438 726 335 726 m 479 622 q 454 248 454 361 q 458 64 454 135 q 576 199 533 104 q 618 392 618 294 q 583 553 618 490 q 479 622 547 615 m 879 956 q 1108 940 965 940 q 1013 697 1082 800 q 949 708 971 703 q 981 808 978 763 q 849 817 894 808 q 879 956 876 879 z "},"ď":{"ha":1129,"x_min":103,"x_max":1108,"o":"m 438 726 q 874 660 706 726 q 933 418 933 540 q 826 146 933 261 q 406 -19 671 -19 q 157 1 314 -19 q 103 517 103 281 q 111 694 103 599 q 438 726 335 726 m 479 622 q 454 248 454 361 q 458 64 454 135 q 576 199 533 104 q 618 392 618 294 q 583 553 618 490 q 479 622 547 615 m 879 956 q 1108 940 965 940 q 1013 697 1082 800 q 949 708 971 703 q 981 808 978 763 q 849 817 894 808 q 879 956 876 879 z "},"Đ":{"ha":1014,"x_min":0,"x_max":978,"o":"m 471 726 q 915 658 742 726 q 978 414 978 538 q 871 138 978 253 q 444 -31 715 -31 q 231 -14 358 -31 l 189 -8 q 140 324 154 164 q 0 336 25 332 q 25 356 8 342 q 81 394 61 386 l 135 394 q 132 522 132 435 q 140 703 132 608 q 471 726 306 726 m 493 317 q 490 184 490 239 q 494 54 490 129 q 614 190 571 94 q 657 385 657 286 q 620 550 657 485 q 515 622 583 615 q 497 400 507 535 q 614 411 583 403 q 543 317 581 353 l 493 317 z "},"đ":{"ha":1014,"x_min":0,"x_max":978,"o":"m 471 726 q 915 658 742 726 q 978 414 978 538 q 871 138 978 253 q 444 -31 715 -31 q 231 -14 358 -31 l 189 -8 q 140 324 154 164 q 0 336 25 332 q 25 356 8 342 q 81 394 61 386 l 135 394 q 132 522 132 435 q 140 703 132 608 q 471 726 306 726 m 493 317 q 490 184 490 239 q 494 54 490 129 q 614 190 571 94 q 657 385 657 286 q 620 550 657 485 q 515 622 583 615 q 497 400 507 535 q 614 411 583 403 q 543 317 581 353 l 493 317 z "},"Ē":{"ha":932,"x_min":89,"x_max":879,"o":"m 97 910 q 479 903 315 903 q 879 910 643 903 l 879 806 q 481 815 632 815 q 97 806 331 815 l 97 910 m 576 415 l 707 407 q 736 408 726 407 l 671 286 l 658 286 q 583 301 632 286 q 514 315 535 315 q 424 242 457 315 q 415 106 418 174 q 529 92 488 92 l 542 92 q 637 118 601 92 q 688 213 672 144 l 854 206 q 799 0 833 86 l 117 0 q 89 372 89 188 q 108 694 89 557 l 853 694 q 808 483 828 544 q 658 478 726 479 q 669 538 669 510 q 569 604 669 604 q 486 596 532 604 q 439 364 456 464 q 576 415 494 415 z "},"ē":{"ha":932,"x_min":89,"x_max":879,"o":"m 97 910 q 479 903 315 903 q 879 910 643 903 l 879 806 q 481 815 632 815 q 97 806 331 815 l 97 910 m 576 415 l 707 407 q 736 408 726 407 l 671 286 l 658 286 q 583 301 632 286 q 514 315 535 315 q 424 242 457 315 q 415 106 418 174 q 529 92 488 92 l 542 92 q 637 118 601 92 q 688 213 672 144 l 854 206 q 799 0 833 86 l 117 0 q 89 372 89 188 q 108 694 89 557 l 853 694 q 808 483 828 544 q 658 478 726 479 q 669 538 669 510 q 569 604 669 604 q 486 596 532 604 q 439 364 456 464 q 576 415 494 415 z "},"Ė":{"ha":932,"x_min":89,"x_max":854,"o":"m 576 415 l 707 407 q 736 408 726 407 l 671 286 l 658 286 q 583 301 632 286 q 514 315 535 315 q 424 242 457 315 q 415 106 418 174 q 529 92 488 92 l 542 92 q 637 118 601 92 q 688 213 672 144 l 854 206 q 799 0 833 86 l 117 0 q 89 372 89 188 q 108 694 89 557 l 853 694 q 808 483 828 544 q 658 478 726 479 q 669 538 669 510 q 569 604 669 604 q 486 596 532 604 q 439 364 456 464 q 576 415 494 415 m 510 800 l 454 799 q 374 801 426 799 q 415 942 408 883 q 557 933 489 935 q 510 800 540 858 z "},"ė":{"ha":932,"x_min":89,"x_max":854,"o":"m 576 415 l 707 407 q 736 408 726 407 l 671 286 l 658 286 q 583 301 632 286 q 514 315 535 315 q 424 242 457 315 q 415 106 418 174 q 529 92 488 92 l 542 92 q 637 118 601 92 q 688 213 672 144 l 854 206 q 799 0 833 86 l 117 0 q 89 372 89 188 q 108 694 89 557 l 853 694 q 808 483 828 544 q 658 478 726 479 q 669 538 669 510 q 569 604 669 604 q 486 596 532 604 q 439 364 456 464 q 576 415 494 415 m 510 800 l 454 799 q 374 801 426 799 q 415 942 408 883 q 557 933 489 935 q 510 800 540 858 z "},"Ę":{"ha":932,"x_min":89,"x_max":854,"o":"m 576 415 l 707 407 q 736 408 726 407 l 671 286 l 658 286 q 583 301 632 286 q 514 315 535 315 q 424 242 457 315 q 415 106 418 174 q 529 92 488 92 l 542 92 q 637 118 601 92 q 688 213 672 144 l 854 206 q 799 0 833 86 l 525 0 q 453 -133 453 -58 q 465 -175 453 -161 q 503 -189 478 -189 q 554 -164 528 -189 q 561 -193 556 -179 q 473 -242 525 -242 q 392 -212 421 -242 q 363 -147 363 -183 q 458 0 363 -65 l 117 0 q 89 372 89 188 q 108 694 89 557 l 853 694 q 808 483 828 544 q 658 478 726 479 q 669 538 669 510 q 569 604 669 604 q 486 596 532 604 q 439 364 456 464 q 576 415 494 415 z "},"ę":{"ha":932,"x_min":89,"x_max":854,"o":"m 576 415 l 707 407 q 736 408 726 407 l 671 286 l 658 286 q 583 301 632 286 q 514 315 535 315 q 424 242 457 315 q 415 106 418 174 q 529 92 488 92 l 542 92 q 637 118 601 92 q 688 213 672 144 l 854 206 q 799 0 833 86 l 525 0 q 453 -133 453 -58 q 465 -175 453 -161 q 503 -189 478 -189 q 554 -164 528 -189 q 561 -193 556 -179 q 473 -242 525 -242 q 392 -212 421 -242 q 363 -147 363 -183 q 458 0 363 -65 l 117 0 q 89 372 89 188 q 108 694 89 557 l 853 694 q 808 483 828 544 q 658 478 726 479 q 669 538 669 510 q 569 604 669 604 q 486 596 532 604 q 439 364 456 464 q 576 415 494 415 z "},"Ě":{"ha":932,"x_min":89,"x_max":854,"o":"m 576 415 l 707 407 q 736 408 726 407 l 671 286 l 658 286 q 583 301 632 286 q 514 315 535 315 q 424 242 457 315 q 415 106 418 174 q 529 92 488 92 l 542 92 q 637 118 601 92 q 688 213 672 144 l 854 206 q 799 0 833 86 l 117 0 q 89 372 89 188 q 108 694 89 557 l 853 694 q 808 483 828 544 q 658 478 726 479 q 669 538 669 510 q 569 604 669 604 q 486 596 532 604 q 439 364 456 464 q 576 415 494 415 m 432 769 l 307 929 l 351 929 l 465 843 l 581 929 l 625 929 l 500 769 l 432 769 z "},"ě":{"ha":932,"x_min":89,"x_max":854,"o":"m 576 415 l 707 407 q 736 408 726 407 l 671 286 l 658 286 q 583 301 632 286 q 514 315 535 315 q 424 242 457 315 q 415 106 418 174 q 529 92 488 92 l 542 92 q 637 118 601 92 q 688 213 672 144 l 854 206 q 799 0 833 86 l 117 0 q 89 372 89 188 q 108 694 89 557 l 853 694 q 808 483 828 544 q 658 478 726 479 q 669 538 669 510 q 569 604 669 604 q 486 596 532 604 q 439 364 456 464 q 576 415 494 415 m 432 769 l 307 929 l 351 929 l 465 843 l 581 929 l 625 929 l 500 769 l 432 769 z "},"Ĝ":{"ha":938,"x_min":40,"x_max":863,"o":"m 539 726 q 824 692 667 726 q 769 525 800 597 q 588 517 686 519 q 610 610 603 564 q 519 618 567 618 q 408 603 472 618 q 386 432 386 508 q 438 216 386 317 q 578 68 490 115 q 578 98 578 78 q 579 172 579 118 q 563 361 579 225 l 863 361 q 843 0 863 164 q 397 -31 628 -31 l 308 -31 q 111 128 182 24 q 40 351 40 233 q 167 617 40 508 q 539 726 294 726 m 310 775 l 435 935 l 503 935 l 628 775 l 583 775 l 468 861 l 354 775 l 310 775 z "},"ĝ":{"ha":938,"x_min":40,"x_max":863,"o":"m 539 726 q 824 692 667 726 q 769 525 800 597 q 588 517 686 519 q 610 610 603 564 q 519 618 567 618 q 408 603 472 618 q 386 432 386 508 q 438 216 386 317 q 578 68 490 115 q 578 98 578 78 q 579 172 579 118 q 563 361 579 225 l 863 361 q 843 0 863 164 q 397 -31 628 -31 l 308 -31 q 111 128 182 24 q 40 351 40 233 q 167 617 40 508 q 539 726 294 726 m 310 775 l 435 935 l 503 935 l 628 775 l 583 775 l 468 861 l 354 775 l 310 775 z "},"Ğ":{"ha":938,"x_min":40,"x_max":863,"o":"m 578 68 l 579 126 q 563 361 579 225 l 863 361 q 843 0 863 164 q 397 -31 628 -31 l 308 -31 q 111 128 182 24 q 40 351 40 233 q 167 617 40 508 q 539 726 294 726 q 824 692 667 726 q 769 525 800 597 q 588 517 685 519 q 610 610 603 564 q 519 618 565 618 q 408 603 472 618 q 386 432 386 508 q 438 216 386 317 q 578 68 490 115 m 411 854 q 525 824 458 824 q 643 869 592 824 q 631 842 646 869 q 579 786 615 815 q 458 747 533 747 q 313 790 382 747 l 293 801 q 319 894 300 843 q 339 944 338 944 l 411 854 z "},"ğ":{"ha":938,"x_min":40,"x_max":863,"o":"m 578 68 l 579 126 q 563 361 579 225 l 863 361 q 843 0 863 164 q 397 -31 628 -31 l 308 -31 q 111 128 182 24 q 40 351 40 233 q 167 617 40 508 q 539 726 294 726 q 824 692 667 726 q 769 525 800 597 q 588 517 685 519 q 610 610 603 564 q 519 618 565 618 q 408 603 472 618 q 386 432 386 508 q 438 216 386 317 q 578 68 490 115 m 411 854 q 525 824 458 824 q 643 869 592 824 q 631 842 646 869 q 579 786 615 815 q 458 747 533 747 q 313 790 382 747 l 293 801 q 319 894 300 843 q 339 944 338 944 l 411 854 z "},"Ġ":{"ha":938,"x_min":40,"x_max":863,"o":"m 578 68 l 579 126 q 563 361 579 225 l 863 361 q 843 0 863 164 q 397 -31 628 -31 l 308 -31 q 111 128 182 24 q 40 351 40 233 q 167 617 40 508 q 539 726 294 726 q 824 692 667 726 q 769 525 800 597 q 588 517 685 519 q 610 610 603 564 q 519 618 565 618 q 408 603 472 618 q 386 432 386 508 q 438 216 386 317 q 578 68 490 115 m 513 800 l 457 799 q 376 801 429 799 q 418 942 411 883 q 560 933 492 935 q 513 800 543 858 z "},"ġ":{"ha":938,"x_min":40,"x_max":863,"o":"m 578 68 l 579 126 q 563 361 579 225 l 863 361 q 843 0 863 164 q 397 -31 628 -31 l 308 -31 q 111 128 182 24 q 40 351 40 233 q 167 617 40 508 q 539 726 294 726 q 824 692 667 726 q 769 525 800 597 q 588 517 685 519 q 610 610 603 564 q 519 618 565 618 q 408 603 472 618 q 386 432 386 508 q 438 216 386 317 q 578 68 490 115 m 513 800 l 457 799 q 376 801 429 799 q 418 942 411 883 q 560 933 492 935 q 513 800 543 858 z "},"Ģ":{"ha":925,"x_min":56,"x_max":982,"o":"m 179 4 q 56 328 56 163 q 194 610 56 494 q 550 726 333 726 q 778 693 669 726 q 879 419 879 565 q 706 82 879 221 q 761 96 721 85 q 827 107 801 107 q 882 97 853 107 l 982 -32 q 901 1 954 1 q 758 -14 847 1 q 638 -31 669 -29 q 582 11 610 -18 q 381 -31 481 -31 q 179 4 281 -31 m 390 604 q 340 408 340 518 q 390 202 340 297 q 526 65 440 107 q 592 258 592 149 q 538 463 592 368 q 390 604 485 557 m 474 -210 q 340 -201 386 -210 q 371 -60 368 -139 q 604 -75 457 -75 q 507 -324 579 -212 q 442 -311 472 -319 q 474 -210 474 -257 z "},"ģ":{"ha":925,"x_min":56,"x_max":982,"o":"m 179 4 q 56 328 56 163 q 194 610 56 494 q 550 726 333 726 q 778 693 669 726 q 879 419 879 565 q 706 82 879 221 q 761 96 721 85 q 827 107 801 107 q 882 97 853 107 l 982 -32 q 901 1 954 1 q 758 -14 847 1 q 638 -31 669 -29 q 582 11 610 -18 q 381 -31 481 -31 q 179 4 281 -31 m 390 604 q 340 408 340 518 q 390 202 340 297 q 526 65 440 107 q 592 258 592 149 q 538 463 592 368 q 390 604 485 557 m 474 -210 q 340 -201 386 -210 q 371 -60 368 -139 q 604 -75 457 -75 q 507 -324 579 -212 q 442 -311 472 -319 q 474 -210 474 -257 z "},"Ĥ":{"ha":1028,"x_min":88,"x_max":971,"o":"m 88 694 q 454 694 88 694 q 457 525 457 638 q 617 457 538 500 q 607 694 617 586 l 968 694 q 971 579 971 617 q 918 0 971 307 l 586 0 q 615 353 608 164 q 454 407 543 397 q 410 0 446 203 l 94 0 q 113 326 113 136 q 88 694 113 515 m 354 775 l 479 935 l 547 935 l 672 775 l 628 775 l 513 861 l 399 775 l 354 775 z "},"ĥ":{"ha":1028,"x_min":88,"x_max":971,"o":"m 88 694 q 454 694 88 694 q 457 525 457 638 q 617 457 538 500 q 607 694 617 586 l 968 694 q 971 579 971 617 q 918 0 971 307 l 586 0 q 615 353 608 164 q 454 407 543 397 q 410 0 446 203 l 94 0 q 113 326 113 136 q 88 694 113 515 m 354 775 l 479 935 l 547 935 l 672 775 l 628 775 l 513 861 l 399 775 l 354 775 z "},"Ĩ":{"ha":550,"x_min":75,"x_max":474,"o":"m 474 694 l 474 657 q 428 0 474 290 l 94 0 q 121 295 121 128 q 99 694 121 463 l 474 694 m 431 845 q 427 838 431 845 q 394 815 422 831 q 324 799 365 799 q 236 827 283 799 q 167 856 189 856 q 75 810 115 856 l 93 865 q 135 901 110 885 q 191 917 161 917 q 263 901 221 917 q 336 886 306 886 q 474 951 411 886 q 454 900 468 940 q 431 845 440 860 z "},"ĩ":{"ha":550,"x_min":75,"x_max":474,"o":"m 474 694 l 474 657 q 428 0 474 290 l 94 0 q 121 295 121 128 q 99 694 121 463 l 474 694 m 431 845 q 427 838 431 845 q 394 815 422 831 q 324 799 365 799 q 236 827 283 799 q 167 856 189 856 q 75 810 115 856 l 93 865 q 135 901 110 885 q 191 917 161 917 q 263 901 221 917 q 336 886 306 886 q 474 951 411 886 q 454 900 468 940 q 431 845 440 860 z "},"Ī":{"ha":550,"x_min":10,"x_max":563,"o":"m 10 910 q 279 903 163 903 q 563 910 396 903 l 563 807 q 281 817 388 817 q 10 807 175 817 l 10 910 m 474 694 l 474 657 q 428 0 474 290 l 94 0 q 121 295 121 128 q 99 694 121 463 l 474 694 z "},"ī":{"ha":550,"x_min":10,"x_max":563,"o":"m 10 910 q 279 903 163 903 q 563 910 396 903 l 563 807 q 281 817 388 817 q 10 807 175 817 l 10 910 m 474 694 l 474 657 q 428 0 474 290 l 94 0 q 121 295 121 128 q 99 694 121 463 l 474 694 z "},"Į":{"ha":550,"x_min":94,"x_max":474,"o":"m 249 -133 q 299 -189 249 -189 q 350 -164 324 -189 q 357 -193 353 -178 q 269 -242 321 -242 q 188 -212 217 -242 q 158 -147 158 -183 q 254 0 158 -65 l 94 0 q 121 295 121 128 q 99 694 121 463 l 474 694 l 474 657 q 428 0 474 290 l 321 0 q 249 -133 249 -58 z "},"į":{"ha":550,"x_min":94,"x_max":474,"o":"m 249 -133 q 299 -189 249 -189 q 350 -164 324 -189 q 357 -193 353 -178 q 269 -242 321 -242 q 188 -212 217 -242 q 158 -147 158 -183 q 254 0 158 -65 l 94 0 q 121 295 121 128 q 99 694 121 463 l 474 694 l 474 657 q 428 0 474 290 l 321 0 q 249 -133 249 -58 z "},"İ":{"ha":550,"x_min":92,"x_max":461,"o":"m 461 553 q 414 0 461 263 l 99 0 q 118 327 118 149 q 92 694 118 506 l 458 694 q 461 553 461 600 m 229 942 q 374 933 303 935 q 325 799 357 860 q 186 800 232 799 q 229 942 221 883 z "},"ı":{"ha":550,"x_min":94,"x_max":474,"o":"m 474 694 l 474 657 q 428 0 474 292 l 94 0 q 121 290 121 119 q 99 694 121 460 l 474 694 z "},"Ĵ":{"ha":738,"x_min":7,"x_max":622,"o":"m 267 -62 q 276 237 276 46 q 244 694 276 428 l 619 694 q 622 532 622 642 q 583 0 622 238 q 483 -76 529 -51 q 421 -109 438 -100 q 361 -137 404 -118 q 310 -160 318 -156 q 7 -97 132 -146 q 15 72 10 -6 q 267 -62 144 -21 m 279 775 l 404 935 l 472 935 l 597 775 l 553 775 l 438 861 l 324 775 l 279 775 z "},"ĵ":{"ha":738,"x_min":7,"x_max":622,"o":"m 267 -62 q 276 237 276 46 q 244 694 276 428 l 619 694 q 622 532 622 642 q 583 0 622 238 q 483 -76 529 -51 q 421 -109 438 -100 q 361 -137 404 -118 q 310 -160 318 -156 q 7 -97 132 -146 q 15 72 10 -6 q 267 -62 144 -21 m 279 775 l 404 935 l 472 935 l 597 775 l 553 775 l 438 861 l 324 775 l 279 775 z "},"Ķ":{"ha":982,"x_min":57,"x_max":969,"o":"m 792 704 l 838 704 q 969 725 926 704 q 851 568 908 635 l 829 568 q 692 590 758 568 q 540 383 597 513 q 868 339 688 346 q 925 0 910 233 l 565 0 q 494 190 542 103 q 394 308 446 276 q 385 125 385 194 q 389 0 385 56 l 83 0 q 57 345 57 204 q 78 694 57 486 l 464 694 q 407 406 422 522 q 538 578 469 508 q 701 697 607 649 q 792 704 738 704 m 378 -46 l 607 -46 q 511 -299 578 -200 q 447 -287 469 -293 q 479 -187 476 -233 q 347 -179 393 -187 q 378 -46 375 -117 z "},"ķ":{"ha":982,"x_min":57,"x_max":969,"o":"m 792 704 l 838 704 q 969 725 929 704 q 851 568 903 625 l 829 568 q 692 590 757 568 q 540 383 596 510 q 868 339 688 346 q 925 0 910 243 l 565 0 q 495 188 543 101 q 394 308 447 275 q 385 125 385 194 q 389 0 385 56 l 83 0 q 57 345 57 204 q 78 694 57 486 l 464 694 q 407 406 421 514 q 701 697 535 614 q 792 704 738 704 m 378 -46 l 607 -46 q 511 -299 579 -200 q 483 -294 506 -297 q 447 -287 460 -290 q 479 -187 476 -231 q 347 -179 394 -187 q 378 -46 375 -117 z "},"ĸ":{"ha":982,"x_min":57,"x_max":969,"o":"m 792 704 l 838 704 q 969 725 926 704 q 851 568 908 635 l 829 568 q 692 590 758 568 q 540 383 597 513 q 868 339 688 346 q 925 0 910 233 l 565 0 q 494 190 542 103 q 394 308 446 276 q 385 125 385 194 q 389 0 385 56 l 83 0 q 57 345 57 204 q 78 694 57 486 l 464 694 q 407 406 422 522 q 538 578 469 508 q 701 697 607 649 q 792 704 738 704 z "},"Ĺ":{"ha":836,"x_min":56,"x_max":819,"o":"m 381 107 q 506 92 446 92 q 601 119 565 92 q 653 213 636 146 l 819 207 q 764 0 799 82 l 82 0 q 56 368 56 178 q 75 694 56 558 l 475 694 q 381 107 383 343 m 344 944 l 499 925 q 444 856 479 888 q 376 806 408 824 q 293 764 344 788 l 201 764 q 344 944 301 829 z "},"ĺ":{"ha":836,"x_min":56,"x_max":819,"o":"m 381 107 q 506 92 446 92 q 601 119 565 92 q 653 213 636 146 l 819 207 q 764 0 799 82 l 82 0 q 56 368 56 178 q 75 694 56 558 l 475 694 q 381 107 383 343 m 344 944 l 499 925 q 444 856 479 888 q 376 806 408 824 q 293 764 344 788 l 201 764 q 344 944 301 829 z "},"Ļ":{"ha":836,"x_min":56,"x_max":819,"o":"m 381 107 q 506 92 446 92 q 601 119 565 92 q 653 213 636 146 l 819 207 q 764 0 799 82 l 82 0 q 56 368 56 178 q 75 694 56 558 l 475 694 q 381 107 383 343 m 324 -46 l 553 -46 q 457 -299 524 -200 q 393 -287 415 -293 q 425 -187 422 -233 q 293 -179 339 -187 q 324 -46 321 -117 z "},"ļ":{"ha":836,"x_min":56,"x_max":819,"o":"m 381 107 q 506 92 446 92 q 601 119 565 92 q 653 213 636 146 l 819 207 q 764 0 799 82 l 82 0 q 56 368 56 178 q 75 694 56 558 l 475 694 q 381 107 383 343 m 324 -46 l 553 -46 q 457 -299 524 -200 q 393 -287 415 -293 q 425 -187 422 -233 q 293 -179 339 -187 q 324 -46 321 -117 z "},"Ľ":{"ha":836,"x_min":56,"x_max":819,"o":"m 258 769 l 133 929 l 178 929 l 292 843 l 407 929 l 451 929 l 326 769 l 258 769 m 381 107 q 506 92 446 92 q 601 119 565 92 q 653 213 636 146 l 819 207 q 764 0 799 82 l 82 0 q 56 368 56 178 q 75 694 56 558 l 475 694 q 381 107 383 343 z "},"ľ":{"ha":854,"x_min":56,"x_max":819,"o":"m 381 107 q 506 92 446 92 q 601 119 565 92 q 653 213 636 146 l 819 207 q 764 0 799 82 l 82 0 q 56 368 56 178 q 75 694 56 558 l 475 694 q 381 107 383 343 m 557 954 q 786 939 643 939 q 690 696 760 799 q 626 707 649 701 q 658 807 656 761 q 526 815 572 807 q 557 954 554 878 z "},"Ł":{"ha":857,"x_min":15,"x_max":840,"o":"m 17 161 l 15 206 q 18 261 15 222 q 76 289 18 267 q 75 437 75 319 q 94 694 75 554 l 496 694 q 443 465 465 579 q 594 564 540 519 q 544 426 575 489 q 426 374 499 407 q 401 106 403 224 q 531 90 475 90 q 622 118 586 90 q 672 213 657 146 l 840 206 q 785 0 819 83 l 103 0 q 82 199 89 88 l 17 161 z "},"ł":{"ha":857,"x_min":15,"x_max":840,"o":"m 17 161 l 15 206 q 18 261 15 222 q 76 289 18 267 q 75 437 75 319 q 94 694 75 554 l 496 694 q 443 465 465 579 q 594 564 540 519 q 544 426 575 489 q 426 374 499 407 q 401 106 403 224 q 531 90 475 90 q 622 118 586 90 q 672 213 657 146 l 840 206 q 785 0 819 83 l 103 0 q 82 199 89 88 l 17 161 z "},"Ń":{"ha":993,"x_min":32,"x_max":906,"o":"m 897 694 q 906 387 906 549 q 892 0 906 225 l 758 0 q 264 393 489 144 q 275 202 275 300 q 268 0 275 104 l 106 0 q 133 316 133 171 q 119 546 133 461 q 32 694 64 629 l 426 694 q 585 488 485 594 q 778 322 686 382 q 732 694 778 525 l 897 694 m 490 944 l 644 925 q 590 856 625 888 q 522 806 554 824 q 439 764 490 788 l 347 764 q 490 944 447 829 z "},"ń":{"ha":993,"x_min":32,"x_max":906,"o":"m 897 694 q 906 387 906 549 q 892 0 906 225 l 758 0 q 264 393 489 144 q 275 202 275 300 q 268 0 275 104 l 106 0 q 133 316 133 171 q 119 546 133 461 q 32 694 64 629 l 426 694 q 585 488 485 594 q 778 322 686 382 q 732 694 778 525 l 897 694 m 490 944 l 644 925 q 590 856 625 888 q 522 806 554 824 q 439 764 490 788 l 347 764 q 490 944 447 829 z "},"Ņ":{"ha":993,"x_min":32,"x_max":906,"o":"m 897 694 q 906 371 906 549 q 892 0 906 193 l 758 0 q 264 393 497 138 q 275 201 275 297 q 268 0 275 104 l 106 0 q 133 316 133 171 q 119 546 133 461 q 32 694 58 640 l 426 694 q 585 488 483 594 q 778 322 688 381 q 732 694 778 525 l 897 694 m 390 -46 l 619 -46 q 524 -299 592 -200 q 495 -294 518 -297 q 460 -287 472 -290 q 492 -187 489 -231 q 360 -179 408 -187 q 390 -46 388 -117 z "},"ņ":{"ha":993,"x_min":32,"x_max":906,"o":"m 897 694 q 906 387 906 549 q 892 0 906 225 l 758 0 q 264 393 489 144 q 275 202 275 300 q 268 0 275 104 l 106 0 q 133 316 133 171 q 119 546 133 461 q 32 694 64 629 l 426 694 q 585 488 485 594 q 778 322 686 382 q 732 694 778 525 l 897 694 m 390 -46 q 619 -46 390 -46 q 524 -299 590 -200 q 460 -287 482 -293 q 492 -187 489 -233 q 360 -179 406 -187 q 390 -46 388 -117 z "},"Ň":{"ha":993,"x_min":32,"x_max":906,"o":"m 897 694 q 906 387 906 549 q 892 0 906 225 l 758 0 q 264 393 489 144 q 275 202 275 300 q 268 0 275 104 l 106 0 q 133 316 133 171 q 119 546 133 461 q 32 694 64 629 l 426 694 q 585 488 485 594 q 778 322 686 382 q 732 694 778 525 l 897 694 m 463 769 l 338 929 l 382 929 l 496 843 l 611 929 l 656 929 l 531 769 l 463 769 z "},"ň":{"ha":993,"x_min":32,"x_max":906,"o":"m 897 694 q 906 387 906 549 q 892 0 906 225 l 758 0 q 264 393 489 144 q 275 202 275 300 q 268 0 275 104 l 106 0 q 133 316 133 171 q 119 546 133 461 q 32 694 64 629 l 426 694 q 585 488 485 594 q 778 322 686 382 q 732 694 778 525 l 897 694 m 463 769 l 338 929 l 382 929 l 496 843 l 611 929 l 656 929 l 531 769 l 463 769 z "},"Ō":{"ha":914,"x_min":47,"x_max":871,"o":"m 75 910 q 457 903 293 903 q 857 910 621 903 l 857 806 q 459 815 610 815 q 75 806 308 815 l 75 910 m 171 4 q 47 329 47 163 q 186 611 47 496 q 542 726 325 726 q 771 692 657 726 q 871 421 871 565 q 722 104 871 239 q 363 -31 574 -31 q 171 4 272 -31 m 382 606 q 333 410 333 522 q 383 202 333 297 q 518 65 432 107 q 583 258 583 149 q 530 463 583 368 q 382 606 476 557 z "},"ō":{"ha":914,"x_min":47,"x_max":871,"o":"m 75 910 q 459 903 294 903 q 857 910 624 903 l 857 806 q 417 815 526 815 q 75 806 308 815 l 75 910 m 171 4 q 47 330 47 164 q 185 611 47 496 q 542 726 324 726 q 771 692 657 726 q 871 421 871 567 q 722 104 871 239 q 363 -31 574 -31 q 171 4 271 -31 m 382 606 q 333 409 333 522 q 383 201 333 296 q 518 65 432 106 q 583 258 583 149 q 530 463 583 368 q 382 606 476 557 z "},"Ő":{"ha":914,"x_min":47,"x_max":871,"o":"m 171 4 q 47 329 47 163 q 186 611 47 496 q 542 726 325 726 q 771 692 657 726 q 871 421 871 565 q 722 104 871 239 q 363 -31 574 -31 q 171 4 272 -31 m 382 606 q 333 410 333 522 q 383 202 333 297 q 518 65 432 107 q 583 258 583 149 q 530 463 583 368 q 382 606 476 557 m 339 944 l 493 925 q 438 856 474 888 q 371 806 403 824 q 288 764 339 788 l 196 764 q 339 944 296 829 m 563 944 l 717 925 q 662 856 697 888 q 594 806 626 824 q 511 764 563 788 l 419 764 q 563 944 519 829 z "},"ő":{"ha":914,"x_min":47,"x_max":871,"o":"m 171 4 q 47 329 47 163 q 186 611 47 496 q 542 726 325 726 q 771 692 657 726 q 871 421 871 565 q 722 104 871 239 q 363 -31 574 -31 q 171 4 272 -31 m 382 606 q 333 410 333 522 q 383 202 333 297 q 518 65 432 107 q 583 258 583 149 q 530 463 583 368 q 382 606 476 557 m 339 944 l 493 925 q 438 856 474 888 q 371 806 403 824 q 288 764 339 788 l 196 764 q 339 944 296 829 m 563 944 l 717 925 q 662 856 697 888 q 594 806 626 824 q 511 764 563 788 l 419 764 q 563 944 519 829 z "},"Œ":{"ha":1322,"x_min":42,"x_max":1243,"o":"m 965 415 l 1096 407 q 1125 408 1115 407 l 1060 286 l 1047 286 q 972 301 1021 286 q 903 315 924 315 q 813 242 846 315 q 804 106 807 174 q 918 92 876 92 l 931 92 q 1026 118 990 92 q 1076 213 1061 144 l 1243 206 q 1188 0 1222 86 l 610 0 q 366 -31 471 -31 q 163 1 261 -31 q 42 324 42 158 q 176 608 42 490 q 521 726 311 726 q 635 712 574 726 q 708 694 696 697 l 1242 694 q 1197 483 1218 549 q 1047 478 1115 479 q 1060 544 1060 513 q 958 604 1060 604 q 875 597 914 604 q 828 364 844 468 q 965 415 883 415 m 369 599 q 321 405 321 514 q 369 203 321 296 q 501 71 418 111 q 574 278 574 164 q 522 477 574 393 q 369 599 469 561 z "},"œ":{"ha":1322,"x_min":42,"x_max":1243,"o":"m 965 415 l 1096 407 q 1125 408 1115 407 l 1060 286 l 1047 286 q 972 301 1021 286 q 903 315 924 315 q 813 242 846 315 q 804 106 807 174 q 918 92 876 92 l 931 92 q 1026 118 990 92 q 1076 213 1061 144 l 1243 206 q 1188 0 1222 86 l 610 0 q 366 -31 471 -31 q 163 1 261 -31 q 42 324 42 158 q 176 608 42 490 q 521 726 311 726 q 635 712 574 726 q 708 694 696 697 l 1242 694 q 1197 483 1218 549 q 1047 478 1115 479 q 1060 544 1060 513 q 958 604 1060 604 q 875 597 914 604 q 828 364 844 468 q 965 415 883 415 m 369 599 q 321 405 321 514 q 369 203 321 296 q 501 71 418 111 q 574 278 574 164 q 522 477 574 393 q 369 599 469 561 z "},"Ŕ":{"ha":981,"x_min":88,"x_max":943,"o":"m 864 453 l 863 406 q 585 313 751 346 q 815 281 704 281 l 844 281 q 943 0 921 168 l 583 0 q 527 167 569 97 q 424 263 485 238 q 422 168 422 239 q 431 0 422 97 l 128 0 q 88 374 88 201 q 107 694 88 547 l 832 694 q 864 453 864 554 m 453 601 q 428 361 436 479 q 553 415 504 372 q 453 601 526 508 m 485 944 l 639 925 q 584 856 619 888 q 517 806 549 824 q 433 764 485 788 l 342 764 q 485 944 442 829 z "},"ŕ":{"ha":981,"x_min":88,"x_max":943,"o":"m 864 453 l 863 406 q 585 313 751 346 q 815 281 704 281 l 844 281 q 943 0 921 168 l 583 0 q 527 167 569 97 q 424 263 485 238 q 422 168 422 239 q 431 0 422 97 l 128 0 q 88 374 88 201 q 107 694 88 547 l 832 694 q 864 453 864 554 m 453 601 q 428 361 436 479 q 553 415 504 372 q 453 601 526 508 m 485 944 l 639 925 q 584 856 619 888 q 517 806 549 824 q 433 764 485 788 l 342 764 q 485 944 442 829 z "},"Ŗ":{"ha":981,"x_min":88,"x_max":943,"o":"m 864 453 l 863 406 q 585 313 751 346 q 815 281 704 281 l 844 281 q 943 0 921 168 l 583 0 q 527 167 569 97 q 424 263 485 238 q 422 168 422 239 q 431 0 422 97 l 128 0 q 88 374 88 201 q 107 694 88 547 l 832 694 q 864 453 864 554 m 453 601 q 428 361 436 479 q 553 415 504 372 q 453 601 526 508 m 390 -46 l 619 -46 q 524 -299 590 -200 q 460 -287 482 -293 q 492 -187 489 -233 q 360 -179 406 -187 q 390 -46 388 -117 z "},"ŗ":{"ha":981,"x_min":88,"x_max":943,"o":"m 864 453 l 863 406 q 585 313 751 346 q 815 281 704 281 l 844 281 q 943 0 921 168 l 583 0 q 527 167 569 97 q 424 263 485 238 q 422 168 422 239 q 431 0 422 97 l 128 0 q 88 374 88 201 q 107 694 88 547 l 832 694 q 864 453 864 554 m 453 601 q 428 361 436 479 q 553 415 504 372 q 453 601 526 508 m 390 -46 l 619 -46 q 524 -299 590 -200 q 460 -287 482 -293 q 492 -187 489 -233 q 360 -179 406 -187 q 390 -46 388 -117 z "},"Ř":{"ha":981,"x_min":88,"x_max":943,"o":"m 864 453 l 863 406 q 585 313 756 346 q 815 281 704 281 l 844 281 q 943 0 921 169 l 583 0 q 527 167 569 97 q 424 263 485 238 q 422 168 422 239 q 431 0 422 97 l 128 0 q 88 376 88 206 q 107 694 88 547 l 832 694 q 864 453 864 553 m 453 601 q 428 361 436 476 q 553 415 503 372 q 453 601 528 507 m 456 769 l 331 929 l 375 929 l 489 843 l 604 929 l 649 929 l 524 769 l 456 769 z "},"ř":{"ha":981,"x_min":88,"x_max":943,"o":"m 864 453 l 863 406 q 585 313 756 346 q 815 281 704 281 l 844 281 q 943 0 921 169 l 583 0 q 527 167 569 97 q 424 263 485 238 q 422 168 422 239 q 431 0 422 97 l 128 0 q 88 376 88 206 q 107 694 88 547 l 832 694 q 864 453 864 553 m 453 601 q 428 361 436 476 q 553 415 503 372 q 453 601 528 507 m 456 769 l 331 929 l 375 929 l 489 843 l 604 929 l 649 929 l 524 769 l 456 769 z "},"Ś":{"ha":882,"x_min":-19,"x_max":876,"o":"m 588 611 q 469 619 532 619 q 346 611 406 619 q 435 507 383 547 q 565 427 486 467 q 692 354 643 388 q 801 244 742 321 q 876 85 861 168 q 700 -67 810 -1 q 475 -156 590 -133 q 278 -112 397 -149 q 100 -75 160 -75 q -19 -112 40 -75 q 63 65 6 -42 l 74 65 q 241 38 163 65 q 384 -18 319 10 q 488 -46 449 -46 q 546 -40 528 -46 q 489 111 546 51 q 437 160 458 143 q 371 208 415 178 l 347 225 q 192 358 253 290 q 103 524 131 425 q 190 694 147 622 q 464 726 322 726 l 525 726 q 799 693 644 726 q 744 528 776 601 q 564 519 628 519 q 588 611 576 551 m 435 944 l 589 925 q 534 856 569 888 q 467 806 499 824 q 383 764 435 788 l 292 764 q 435 944 392 829 z "},"ś":{"ha":882,"x_min":-19,"x_max":876,"o":"m 588 611 q 469 619 532 619 q 346 611 406 619 q 435 507 383 547 q 565 427 486 467 q 692 354 643 388 q 801 244 742 321 q 876 85 861 168 q 700 -67 810 -1 q 475 -156 590 -133 q 278 -112 397 -149 q 100 -75 160 -75 q -19 -112 40 -75 q 63 65 6 -42 l 74 65 q 241 38 163 65 q 384 -18 319 10 q 488 -46 449 -46 q 546 -40 528 -46 q 489 111 546 51 q 437 160 458 143 q 371 208 415 178 l 347 225 q 192 358 253 290 q 103 524 131 425 q 190 694 147 622 q 464 726 322 726 l 525 726 q 799 693 644 726 q 744 528 776 601 q 564 519 628 519 q 588 611 576 551 m 435 944 l 589 925 q 534 856 569 888 q 467 806 499 824 q 383 764 435 788 l 292 764 q 435 944 392 829 z "},"Ŝ":{"ha":882,"x_min":-19,"x_max":876,"o":"m 525 726 q 799 693 644 726 q 744 528 776 601 q 564 519 628 519 q 588 611 576 551 q 469 619 531 619 q 346 611 407 619 q 435 507 383 547 q 565 426 486 467 q 692 354 644 386 q 801 245 740 322 q 876 85 861 168 q 700 -67 810 -1 q 475 -156 590 -133 q 278 -112 397 -149 q 100 -75 160 -75 q -19 -112 40 -75 q 63 65 6 -42 l 74 65 q 241 38 163 65 q 384 -18 319 10 q 488 -46 449 -46 q 546 -40 528 -46 q 489 111 546 51 q 437 160 458 143 q 371 208 415 178 l 347 225 q 192 358 253 290 q 103 524 131 425 q 190 694 147 622 q 464 726 322 726 l 525 726 m 282 775 l 407 935 l 475 935 l 600 775 l 556 775 l 440 861 l 326 775 l 282 775 z "},"ŝ":{"ha":882,"x_min":-19,"x_max":876,"o":"m 525 726 q 799 693 644 726 q 744 528 776 601 q 564 519 628 519 q 588 611 576 551 q 469 619 531 619 q 346 611 407 619 q 435 507 383 547 q 565 426 486 467 q 692 354 644 386 q 801 245 740 322 q 876 85 861 168 q 700 -67 810 -1 q 475 -156 590 -133 q 278 -112 397 -149 q 100 -75 160 -75 q -19 -112 40 -75 q 63 65 6 -42 l 74 65 q 241 38 163 65 q 384 -18 319 10 q 488 -46 449 -46 q 546 -40 528 -46 q 489 111 546 51 q 437 160 458 143 q 371 208 415 178 l 347 225 q 192 358 253 290 q 103 524 131 425 q 190 694 147 622 q 464 726 322 726 l 525 726 m 282 775 l 407 935 l 475 935 l 600 775 l 556 775 l 440 861 l 326 775 l 282 775 z "},"Ş":{"ha":801,"x_min":26,"x_max":775,"o":"m 397 -81 l 457 -71 q 501 -84 481 -71 q 524 -118 521 -97 l 524 -125 q 474 -224 524 -179 q 349 -271 425 -269 l 340 -242 q 405 -222 382 -242 q 428 -176 428 -201 q 383 -140 428 -140 q 319 -161 375 -140 l 364 -32 q 26 1 151 -32 q 67 183 46 125 l 219 190 q 207 128 207 153 q 306 61 207 61 q 485 76 406 61 q 267 264 440 132 q 156 380 211 307 q 76 538 100 453 q 156 693 115 626 q 438 726 282 726 q 742 693 593 726 q 706 528 721 576 l 553 521 q 564 584 564 557 q 538 622 564 611 q 439 633 513 633 q 306 618 365 633 q 407 507 344 553 q 527 438 469 461 q 655 367 585 414 q 775 254 725 319 q 688 1 750 119 q 414 -32 592 -28 l 397 -81 z "},"ş":{"ha":801,"x_min":26,"x_max":775,"o":"m 397 -81 l 457 -71 q 501 -84 481 -71 q 524 -118 521 -97 l 524 -125 q 474 -224 524 -179 q 349 -271 425 -269 l 340 -242 q 405 -222 382 -242 q 428 -176 428 -201 q 383 -140 428 -140 q 319 -161 375 -140 l 364 -32 q 26 1 151 -32 q 67 183 46 125 l 219 190 q 207 128 207 153 q 306 61 207 61 q 485 76 406 61 q 267 264 440 132 q 156 380 211 307 q 76 538 100 453 q 156 693 115 626 q 438 726 282 726 q 742 693 593 726 q 706 528 721 576 l 553 521 q 564 584 564 557 q 538 622 564 611 q 439 633 513 633 q 306 618 365 633 q 407 507 344 553 q 527 438 469 461 q 655 367 585 414 q 775 254 725 319 q 688 1 750 119 q 414 -32 592 -28 l 397 -81 z "},"Š":{"ha":882,"x_min":-19,"x_max":876,"o":"m 588 611 q 469 619 532 619 q 346 611 406 619 q 435 507 383 547 q 565 427 486 467 q 692 354 643 388 q 801 244 742 321 q 876 85 861 168 q 700 -67 810 -1 q 475 -156 590 -133 q 278 -112 397 -149 q 100 -75 160 -75 q -19 -112 40 -75 q 63 65 6 -42 l 74 65 q 241 38 163 65 q 384 -18 319 10 q 488 -46 449 -46 q 546 -40 528 -46 q 489 111 546 51 q 437 160 458 143 q 371 208 415 178 l 347 225 q 192 358 253 290 q 103 524 131 425 q 190 694 147 622 q 464 726 322 726 l 525 726 q 799 693 644 726 q 744 528 776 601 q 564 519 628 519 q 588 611 576 551 m 407 769 l 282 929 l 326 929 l 440 843 l 556 929 l 600 929 l 475 769 l 407 769 z "},"š":{"ha":882,"x_min":-19,"x_max":876,"o":"m 588 611 q 469 619 532 619 q 346 611 406 619 q 435 507 383 547 q 565 427 486 467 q 692 354 643 388 q 801 244 742 321 q 876 85 861 168 q 700 -67 810 -1 q 475 -156 590 -133 q 278 -112 397 -149 q 100 -75 160 -75 q -19 -112 40 -75 q 63 65 6 -42 l 74 65 q 241 38 163 65 q 384 -18 319 10 q 488 -46 449 -46 q 546 -40 528 -46 q 489 111 546 51 q 437 160 458 143 q 371 208 415 178 l 347 225 q 192 358 253 290 q 103 524 131 425 q 190 694 147 622 q 464 726 322 726 l 525 726 q 799 693 644 726 q 744 528 776 601 q 564 519 628 519 q 588 611 576 551 m 407 769 l 282 929 l 326 929 l 440 843 l 556 929 l 600 929 l 475 769 l 407 769 z "},"Ţ":{"ha":979,"x_min":1,"x_max":975,"o":"m 656 604 q 619 246 619 385 q 631 0 619 107 l 328 0 q 281 475 281 221 q 283 604 281 518 q 139 444 165 569 l 1 453 l 51 694 l 975 694 q 911 444 947 542 l 771 453 q 776 497 776 475 q 743 578 776 551 q 656 604 710 604 m 656 604 q 743 578 710 604 q 776 497 776 551 q 771 453 776 475 l 911 444 q 975 694 947 542 l 51 694 l 1 453 l 139 444 q 283 604 165 569 q 281 475 281 518 q 328 0 281 221 l 631 0 q 619 246 619 107 q 656 604 619 385 m 378 -46 l 607 -46 q 511 -299 578 -200 q 447 -287 469 -293 q 479 -187 476 -233 q 347 -179 393 -187 q 378 -46 375 -117 z "},"ţ":{"ha":979,"x_min":1,"x_max":975,"o":"m 656 604 q 619 246 619 385 q 631 0 619 107 l 328 0 q 281 475 281 221 q 283 604 281 518 q 139 444 165 569 l 1 453 l 51 694 l 975 694 q 911 444 947 542 l 771 453 q 776 497 776 475 q 743 578 776 551 q 656 604 710 604 m 656 604 q 743 578 710 604 q 776 497 776 551 q 771 453 776 475 l 911 444 q 975 694 947 542 l 51 694 l 1 453 l 139 444 q 283 604 165 569 q 281 475 281 518 q 328 0 281 221 l 631 0 q 619 246 619 107 q 656 604 619 385 m 378 -46 l 607 -46 q 511 -299 578 -200 q 447 -287 469 -293 q 479 -187 476 -233 q 347 -179 393 -187 q 378 -46 375 -117 z "},"Ť":{"ha":979,"x_min":1,"x_max":975,"o":"m 656 604 q 619 246 619 385 q 631 0 619 107 l 328 0 q 281 475 281 221 q 283 604 281 518 q 139 444 165 569 l 1 453 l 51 694 l 975 694 q 911 444 947 542 l 771 453 q 776 497 776 475 q 743 578 776 551 q 656 604 710 604 m 456 771 l 331 931 l 375 931 l 489 844 l 604 931 l 649 931 l 524 771 l 456 771 z "},"ť":{"ha":1231,"x_min":1,"x_max":1214,"o":"m 656 604 q 619 246 619 385 q 631 0 619 107 l 328 0 q 281 475 281 221 q 283 604 281 518 q 139 444 165 569 l 1 453 l 51 694 l 975 694 q 911 444 947 542 l 771 453 q 776 497 776 475 q 743 578 776 551 q 656 604 710 604 m 985 954 q 1214 939 1071 939 q 1118 696 1188 799 q 1054 707 1076 701 q 1086 807 1083 761 q 954 815 1000 807 q 985 954 982 878 z "},"Ũ":{"ha":974,"x_min":100,"x_max":919,"o":"m 914 694 q 919 431 919 604 q 897 63 919 258 q 551 -31 753 -31 q 118 63 283 -31 q 100 353 100 213 q 121 694 100 494 l 494 694 q 436 115 439 393 q 604 63 494 63 q 772 101 714 63 q 775 233 775 147 q 736 694 775 453 l 914 694 m 644 845 q 639 838 644 845 q 606 815 635 831 q 537 799 578 799 q 449 827 496 799 q 379 856 401 856 q 288 810 328 856 l 306 865 q 348 901 322 885 q 403 917 374 917 q 476 901 433 917 q 549 886 518 886 q 686 951 624 886 q 667 900 681 940 q 644 845 653 860 z "},"ũ":{"ha":974,"x_min":100,"x_max":919,"o":"m 914 694 q 919 431 919 604 q 897 63 919 258 q 551 -31 753 -31 q 118 63 283 -31 q 100 353 100 213 q 121 694 100 494 l 494 694 q 436 115 439 393 q 604 63 494 63 q 772 101 714 63 q 775 233 775 147 q 736 694 775 453 l 914 694 m 644 845 q 639 838 644 845 q 606 815 635 831 q 537 799 578 799 q 449 827 496 799 q 379 856 401 856 q 288 810 328 856 l 306 865 q 348 901 322 885 q 403 917 374 917 q 476 901 433 917 q 549 886 518 886 q 686 951 624 886 q 667 900 681 940 q 644 845 653 860 z "},"Ū":{"ha":974,"x_min":100,"x_max":919,"o":"m 125 910 q 507 903 343 903 q 907 910 671 903 l 907 806 q 509 815 660 815 q 125 806 358 815 l 125 910 m 914 694 q 919 431 919 604 q 897 63 919 258 q 551 -31 753 -31 q 118 63 283 -31 q 100 353 100 213 q 121 694 100 494 l 494 694 q 436 115 439 393 q 604 63 494 63 q 772 101 714 63 q 775 233 775 147 q 736 694 775 453 l 914 694 z "},"ū":{"ha":974,"x_min":100,"x_max":919,"o":"m 125 910 q 507 903 343 903 q 907 910 671 903 l 907 806 q 509 815 660 815 q 125 806 358 815 l 125 910 m 914 694 q 919 431 919 604 q 897 63 919 258 q 551 -31 753 -31 q 118 63 283 -31 q 100 353 100 213 q 121 694 100 494 l 494 694 q 436 115 439 393 q 604 63 494 63 q 772 101 714 63 q 775 233 775 147 q 736 694 775 453 l 914 694 z "},"Ŭ":{"ha":938,"x_min":40,"x_max":863,"o":"m 539 726 q 824 692 667 726 q 769 525 800 597 q 588 517 686 519 q 610 610 603 564 q 519 618 567 618 q 408 603 472 618 q 386 432 386 508 q 438 216 386 317 q 578 68 490 115 q 578 98 578 78 q 579 172 579 118 q 563 361 579 225 l 863 361 q 843 0 863 164 q 397 -31 628 -31 l 308 -31 q 111 128 182 24 q 40 351 40 233 q 167 617 40 508 q 539 726 294 726 m 310 775 l 435 935 l 503 935 l 628 775 l 583 775 l 468 861 l 354 775 l 310 775 z "},"ŭ":{"ha":974,"x_min":100,"x_max":919,"o":"m 914 694 q 919 431 919 604 q 897 63 919 258 q 551 -31 753 -31 q 118 63 283 -31 q 100 353 100 213 q 121 694 100 494 l 494 694 q 436 115 439 393 q 604 63 494 63 q 772 101 714 63 q 775 233 775 147 q 736 694 775 453 l 914 694 m 489 854 q 603 824 536 824 q 721 869 669 824 q 708 842 724 869 q 657 786 693 815 q 535 747 611 747 q 390 790 460 747 l 371 801 q 397 894 378 843 q 417 944 415 944 l 489 854 z "},"Ů":{"ha":974,"x_min":100,"x_max":919,"o":"m 775 233 q 736 694 775 453 l 914 694 q 919 431 919 604 q 897 63 919 258 q 551 -31 753 -31 q 118 63 283 -31 q 100 353 100 213 q 121 694 100 494 l 494 694 q 436 115 439 393 q 604 63 494 63 q 772 101 714 63 q 775 233 775 147 m 461 775 q 421 842 421 806 q 460 909 421 879 q 547 939 500 939 q 612 917 594 939 q 629 862 629 896 q 592 798 629 828 q 504 768 554 768 q 461 775 485 768 m 497 867 q 540 789 497 808 q 554 835 554 807 q 508 911 554 890 q 497 867 497 889 z "},"ů":{"ha":974,"x_min":100,"x_max":919,"o":"m 775 233 q 736 694 775 453 l 914 694 q 919 431 919 604 q 897 63 919 258 q 551 -31 753 -31 q 118 63 283 -31 q 100 353 100 213 q 121 694 100 494 l 494 694 q 436 115 439 393 q 604 63 494 63 q 772 101 714 63 q 775 233 775 147 m 461 775 q 421 842 421 806 q 460 909 421 879 q 547 939 500 939 q 612 917 594 939 q 629 862 629 896 q 592 798 629 828 q 504 768 554 768 q 461 775 485 768 m 497 867 q 540 789 497 808 q 554 835 554 807 q 508 911 554 890 q 497 867 497 889 z "},"Ű":{"ha":974,"x_min":100,"x_max":919,"o":"m 914 694 q 919 431 919 604 q 897 63 919 258 q 551 -31 753 -31 q 118 63 283 -31 q 100 353 100 213 q 121 694 100 494 l 494 694 q 436 115 439 393 q 604 63 494 63 q 772 101 714 63 q 775 233 775 147 q 736 694 775 453 l 914 694 m 435 944 l 589 925 q 534 856 569 888 q 467 806 499 824 q 383 764 435 788 l 292 764 q 435 944 392 829 m 658 944 l 813 925 q 758 856 793 888 q 690 806 722 824 q 607 764 658 788 l 515 764 q 658 944 615 829 z "},"ű":{"ha":974,"x_min":100,"x_max":919,"o":"m 914 694 q 919 431 919 604 q 897 63 919 258 q 551 -31 753 -31 q 118 63 283 -31 q 100 353 100 213 q 121 694 100 494 l 494 694 q 436 115 439 393 q 604 63 494 63 q 772 101 714 63 q 775 233 775 147 q 736 694 775 453 l 914 694 m 435 944 l 589 925 q 534 856 569 888 q 467 806 499 824 q 383 764 435 788 l 292 764 q 435 944 392 829 m 658 944 l 813 925 q 758 856 793 888 q 690 806 722 824 q 607 764 658 788 l 515 764 q 658 944 615 829 z "},"Ų":{"ha":974,"x_min":100,"x_max":919,"o":"m 586 -29 q 544 -135 544 -81 q 594 -189 544 -189 q 646 -164 618 -189 q 653 -193 647 -179 q 565 -242 617 -242 q 483 -212 513 -242 q 454 -147 454 -183 q 513 -31 454 -83 q 118 63 271 -24 q 100 353 100 213 q 121 694 100 494 l 494 694 q 436 115 439 393 q 604 63 494 63 q 772 101 714 63 q 775 233 775 147 q 736 694 775 453 l 914 694 q 919 431 919 604 q 897 63 919 258 q 586 -29 768 -21 z "},"ų":{"ha":974,"x_min":100,"x_max":919,"o":"m 586 -29 q 544 -135 544 -81 q 594 -189 544 -189 q 646 -164 618 -189 q 653 -193 647 -179 q 565 -242 617 -242 q 483 -212 513 -242 q 454 -147 454 -183 q 513 -31 454 -83 q 118 63 271 -24 q 100 353 100 213 q 121 694 100 494 l 494 694 q 436 115 439 393 q 604 63 494 63 q 772 101 714 63 q 775 233 775 147 q 736 694 775 453 l 914 694 q 919 431 919 604 q 897 63 919 258 q 586 -29 768 -21 z "},"Ŵ":{"ha":1444,"x_min":19,"x_max":1431,"o":"m 582 492 q 558 694 582 585 l 889 694 q 1019 199 911 419 q 1090 481 1090 329 q 1057 694 1090 589 l 1429 694 q 1431 633 1431 674 q 1383 339 1431 456 q 1178 243 1260 303 q 1096 120 1096 183 q 1153 0 1096 57 l 803 0 q 657 296 717 128 q 611 120 611 192 q 651 0 611 49 l 303 0 q 121 328 196 142 q 19 694 46 514 l 389 694 q 511 199 413 396 q 582 492 582 319 m 563 775 l 688 935 l 756 935 l 881 775 l 836 775 l 721 861 l 607 775 l 563 775 z "},"ŵ":{"ha":1444,"x_min":19,"x_max":1431,"o":"m 582 492 q 558 694 582 585 l 889 694 q 1019 199 911 419 q 1090 481 1090 329 q 1057 694 1090 589 l 1429 694 q 1431 633 1431 674 q 1383 339 1431 456 q 1178 243 1260 303 q 1096 120 1096 183 q 1153 0 1096 57 l 803 0 q 657 296 717 128 q 611 120 611 192 q 651 0 611 49 l 303 0 q 121 328 196 142 q 19 694 46 514 l 389 694 q 511 199 413 396 q 582 492 582 319 m 563 775 l 688 935 l 756 935 l 881 775 l 836 775 l 721 861 l 607 775 l 563 775 z "},"Ŷ":{"ha":1017,"x_min":110,"x_max":1056,"o":"m 533 89 q 567 220 543 126 q 601 354 590 314 q 635 468 613 394 q 677 578 658 542 q 724 661 696 615 q 784 733 751 707 q 848 769 817 758 q 951 787 879 779 q 1056 815 1024 794 q 978 668 1018 729 q 899 657 931 657 q 838 661 867 657 q 760 524 794 610 q 708 369 725 438 q 669 203 690 301 q 458 -511 564 -300 q 286 -551 389 -532 q 511 0 425 -314 l 224 0 q 110 694 114 356 l 515 694 q 486 420 486 565 q 533 89 486 275 m 349 775 l 474 935 l 542 935 l 667 775 l 622 775 l 507 861 l 393 775 l 349 775 z "},"ŷ":{"ha":1017,"x_min":110,"x_max":1056,"o":"m 533 89 q 567 220 543 126 q 601 354 590 314 q 635 468 613 394 q 677 578 658 542 q 724 661 696 615 q 784 733 751 707 q 848 769 817 758 q 951 787 879 779 q 1056 815 1024 794 q 978 668 1018 729 q 899 657 931 657 q 838 661 867 657 q 760 524 794 610 q 708 369 725 438 q 669 203 690 301 q 458 -511 564 -300 q 286 -551 389 -532 q 511 0 425 -314 l 224 0 q 110 694 114 356 l 515 694 q 486 420 486 565 q 533 89 486 275 m 349 775 l 474 935 l 542 935 l 667 775 l 622 775 l 507 861 l 393 775 l 349 775 z "},"Ÿ":{"ha":1017,"x_min":110,"x_max":1056,"o":"m 978 668 q 899 657 931 657 q 838 661 867 657 q 760 524 794 610 q 708 369 725 438 q 669 203 690 301 q 458 -511 564 -300 q 286 -551 389 -532 q 511 0 425 -314 l 224 0 q 110 694 114 356 l 515 694 q 486 420 486 565 q 533 89 486 275 q 567 220 543 126 q 601 354 590 314 q 635 468 613 394 q 677 578 658 542 q 724 661 696 615 q 856 772 774 743 q 951 787 879 779 q 1056 815 1024 794 q 978 668 1018 729 m 428 800 l 372 799 q 292 801 344 799 q 333 942 326 883 q 475 933 407 935 q 428 800 458 858 m 676 800 l 619 799 q 540 801 593 799 q 582 942 574 886 q 724 933 654 935 q 676 800 704 856 z "},"Ź":{"ha":886,"x_min":26,"x_max":875,"o":"m 550 93 l 563 93 q 657 119 621 93 q 708 213 693 146 q 875 207 811 210 q 819 0 854 86 l 26 0 q 438 597 214 336 q 346 604 404 604 q 240 569 288 604 q 181 475 193 533 q 44 485 74 482 l 88 694 l 861 694 q 433 107 615 428 q 550 93 506 93 m 438 944 l 592 925 q 537 856 572 888 q 469 806 501 824 q 386 764 438 788 l 294 764 q 438 944 394 829 z "},"ź":{"ha":886,"x_min":26,"x_max":875,"o":"m 550 93 l 563 93 q 657 119 621 93 q 708 213 693 146 q 875 207 811 210 q 819 0 854 86 l 26 0 q 438 597 214 336 q 346 604 404 604 q 240 569 288 604 q 181 475 193 533 q 44 485 74 482 l 88 694 l 861 694 q 433 107 615 428 q 550 93 506 93 m 438 944 l 592 925 q 537 856 572 888 q 469 806 501 824 q 386 764 438 788 l 294 764 q 438 944 394 829 z "},"Ż":{"ha":886,"x_min":26,"x_max":875,"o":"m 550 93 l 563 93 q 657 119 621 93 q 708 213 693 146 q 875 207 811 210 q 819 0 854 86 l 26 0 q 438 597 214 336 q 346 604 404 604 q 240 569 288 604 q 181 475 193 533 q 44 485 74 482 l 88 694 l 861 694 q 433 107 615 428 q 550 93 506 93 m 488 800 l 432 799 q 351 801 404 799 q 393 942 386 883 q 535 933 467 935 q 488 800 518 858 z "},"ż":{"ha":886,"x_min":26,"x_max":875,"o":"m 550 93 l 563 93 q 657 119 621 93 q 708 213 693 146 q 875 207 811 210 q 819 0 854 86 l 26 0 q 438 597 214 336 q 346 604 404 604 q 240 569 288 604 q 181 475 193 533 q 44 485 74 482 l 88 694 l 861 694 q 433 107 615 428 q 550 93 506 93 m 488 800 l 432 799 q 351 801 404 799 q 393 942 386 883 q 535 933 467 935 q 488 800 518 858 z "},"Ž":{"ha":886,"x_min":26,"x_max":875,"o":"m 550 93 l 563 93 q 657 119 621 93 q 708 213 693 146 q 875 207 811 210 q 819 0 854 86 l 26 0 q 438 597 214 336 q 346 604 404 604 q 240 569 288 604 q 181 475 193 533 q 44 485 74 482 l 88 694 l 861 694 q 433 107 615 428 q 550 93 506 93 m 408 769 l 283 929 l 328 929 l 442 843 l 557 929 l 601 929 l 476 769 l 408 769 z "},"ž":{"ha":886,"x_min":26,"x_max":875,"o":"m 550 93 l 563 93 q 657 119 621 93 q 708 213 693 146 q 875 207 811 210 q 819 0 854 86 l 26 0 q 438 597 214 336 q 346 604 404 604 q 240 569 288 604 q 181 475 193 533 q 44 485 74 482 l 88 694 l 861 694 q 433 107 615 428 q 550 93 506 93 m 408 769 l 283 929 l 328 929 l 442 843 l 557 929 l 601 929 l 476 769 l 408 769 z "},"ƒ":{"ha":785,"x_min":26,"x_max":760,"o":"m 604 310 q 607 151 607 215 q 603 3 607 86 q 501 -73 550 -46 q 439 -108 453 -100 q 376 -137 425 -115 q 326 -160 328 -158 q 26 -97 149 -146 q 35 71 29 -4 q 283 -62 158 -19 q 307 311 301 119 q 182 306 224 308 l 182 379 l 308 375 q 300 693 308 567 q 539 761 417 740 q 760 721 654 754 q 753 574 760 631 q 568 689 669 653 q 601 376 592 533 q 713 379 638 376 l 713 306 l 604 310 z "},"Ș":{"ha":801,"x_min":26,"x_max":775,"o":"m 156 693 q 438 726 282 726 q 742 693 593 726 q 706 528 721 576 l 553 521 q 564 584 564 557 q 538 622 564 611 q 439 633 513 633 q 306 618 365 633 q 407 507 344 553 q 527 438 469 461 q 655 367 585 414 q 775 254 725 319 q 688 1 750 119 q 414 -32 592 -28 l 364 -32 q 26 1 151 -32 q 67 183 46 125 l 219 190 q 207 128 207 153 q 306 61 207 61 q 485 76 406 61 q 267 264 440 132 q 156 380 211 307 q 76 538 100 453 q 156 693 115 626 m 269 -46 q 499 -46 269 -46 q 403 -299 469 -200 q 339 -287 361 -293 q 371 -187 368 -233 q 239 -179 285 -187 q 269 -46 267 -117 z "},"ș":{"ha":801,"x_min":26,"x_max":775,"o":"m 156 693 q 438 726 282 726 q 742 693 593 726 q 706 528 721 576 l 553 521 q 564 584 564 557 q 538 622 564 611 q 439 633 513 633 q 306 618 365 633 q 407 507 344 553 q 527 438 469 461 q 655 367 585 414 q 775 254 725 319 q 688 1 750 119 q 414 -32 592 -28 l 364 -32 q 26 1 151 -32 q 67 183 46 125 l 219 190 q 207 128 207 153 q 306 61 207 61 q 485 76 406 61 q 267 264 440 132 q 156 380 211 307 q 76 538 100 453 q 156 693 115 626 m 269 -46 q 499 -46 269 -46 q 403 -299 469 -200 q 339 -287 361 -293 q 371 -187 368 -233 q 239 -179 285 -187 q 269 -46 267 -117 z "},"Ț":{"ha":979,"x_min":1,"x_max":975,"o":"m 656 604 q 619 246 619 385 q 631 0 619 107 l 328 0 q 281 475 281 221 q 283 604 281 518 q 139 444 165 569 l 1 453 l 51 694 l 975 694 q 911 444 947 542 l 771 453 q 776 497 776 475 q 743 578 776 551 q 656 604 710 604 m 656 604 q 743 578 710 604 q 776 497 776 551 q 771 453 776 475 l 911 444 q 975 694 947 542 l 51 694 l 1 453 l 139 444 q 283 604 165 569 q 281 475 281 518 q 328 0 281 221 l 631 0 q 619 246 619 107 q 656 604 619 385 m 378 -46 l 607 -46 q 511 -299 578 -200 q 447 -287 469 -293 q 479 -187 476 -233 q 347 -179 393 -187 q 378 -46 375 -117 z "},"ț":{"ha":979,"x_min":1,"x_max":975,"o":"m 656 604 q 619 246 619 385 q 631 0 619 107 l 328 0 q 281 475 281 221 q 283 604 281 518 q 139 444 165 569 l 1 453 l 51 694 l 975 694 q 911 444 947 542 l 771 453 q 776 497 776 475 q 743 578 776 551 q 656 604 710 604 m 656 604 q 743 578 710 604 q 776 497 776 551 q 771 453 776 475 l 911 444 q 975 694 947 542 l 51 694 l 1 453 l 139 444 q 283 604 165 569 q 281 475 281 518 q 328 0 281 221 l 631 0 q 619 246 619 107 q 656 604 619 385 m 378 -46 l 607 -46 q 511 -299 578 -200 q 447 -287 469 -293 q 479 -187 476 -233 q 347 -179 393 -187 q 378 -46 375 -117 z "},"ˆ":{"ha":363,"x_min":24,"x_max":342,"o":"m 24 775 l 149 935 l 217 935 l 342 775 l 297 775 l 182 861 l 68 775 l 24 775 z "},"ˇ":{"ha":363,"x_min":24,"x_max":342,"o":"m 149 769 l 24 929 l 68 929 l 182 843 l 297 929 l 342 929 l 217 769 l 149 769 z "},"˘":{"ha":421,"x_min":40,"x_max":390,"o":"m 158 854 q 272 824 206 824 q 390 869 339 824 q 378 842 393 869 q 326 786 363 815 q 205 747 281 747 q 60 790 129 747 l 40 801 q 66 894 47 843 q 86 944 85 944 l 158 854 z "},"˙":{"ha":208,"x_min":15,"x_max":199,"o":"m 151 800 l 96 799 q 15 801 68 799 q 57 942 50 883 q 199 933 131 935 q 151 800 182 858 z "},"˚":{"ha":269,"x_min":32,"x_max":240,"o":"m 72 775 q 32 842 32 806 q 72 909 32 879 q 158 939 111 939 q 223 917 206 939 q 240 862 240 896 q 203 798 240 828 q 115 768 165 768 q 72 775 96 768 m 108 867 q 151 789 108 808 q 165 835 165 807 q 119 911 165 890 q 108 867 108 889 z "},"˛":{"ha":244,"x_min":22,"x_max":221,"o":"m 113 -133 q 161 -189 113 -189 q 214 -164 186 -189 q 221 -193 217 -178 q 133 -242 185 -242 q 51 -212 81 -242 q 22 -139 22 -183 q 61 -51 22 -94 q 144 15 100 -7 l 206 15 q 113 -133 113 -47 z "},"˜":{"ha":432,"x_min":19,"x_max":418,"o":"m 376 845 q 371 838 376 845 q 338 815 367 831 q 269 799 310 799 q 181 827 228 799 q 111 856 133 856 q 19 810 60 856 l 38 865 q 80 901 54 885 q 135 917 106 917 q 208 901 165 917 q 281 886 250 886 q 418 951 356 886 q 399 900 413 940 q 376 845 385 860 z "},"˝":{"ha":569,"x_min":28,"x_max":549,"o":"m 171 944 l 325 925 q 270 856 306 888 q 203 806 235 824 q 119 764 171 788 l 28 764 q 171 944 128 829 m 394 944 l 549 925 q 494 856 529 888 q 426 806 458 824 q 343 764 394 788 l 251 764 q 394 944 351 829 z "},"Ё":{"ha":893,"x_min":75,"x_max":818,"o":"m 549 415 l 676 407 q 704 408 694 407 l 640 286 l 628 286 q 554 301 601 286 q 488 315 507 315 q 400 242 432 315 q 392 107 393 172 q 513 92 454 92 q 606 119 571 92 q 656 213 640 146 l 818 207 q 764 0 796 78 l 101 0 q 75 366 75 178 q 93 694 75 554 l 817 694 q 774 483 793 551 q 628 478 693 479 q 639 538 639 510 q 540 603 639 603 l 528 603 q 460 596 501 603 q 415 364 431 475 q 549 415 469 415 m 386 800 l 331 799 q 250 801 303 799 q 292 942 285 883 q 433 933 365 935 q 386 800 417 858 m 635 800 l 578 799 q 499 801 551 799 q 540 942 532 886 q 682 933 613 935 q 635 800 663 856 z "},"Ђ":{"ha":1075,"x_min":11,"x_max":1053,"o":"m 1051 289 l 1053 229 q 1010 -96 1053 29 q 744 -233 892 -178 q 540 -172 635 -208 q 547 -19 540 -106 q 711 -136 633 -97 q 746 164 746 -10 q 742 274 746 217 q 632 310 682 306 q 629 165 629 238 q 639 0 629 93 l 336 0 q 289 474 289 222 q 292 603 289 517 q 149 444 175 571 q 11 454 38 451 l 61 694 l 983 694 q 921 444 957 546 q 779 454 846 449 q 785 499 785 476 q 751 577 785 551 q 664 603 718 603 q 639 407 647 507 q 861 365 767 392 q 1051 289 956 339 z "},"Ѓ":{"ha":838,"x_min":71,"x_max":833,"o":"m 425 944 l 579 925 q 524 856 560 888 q 457 806 489 824 q 374 764 425 788 l 282 764 q 425 944 382 829 m 650 538 q 550 604 650 604 q 467 596 513 604 q 397 90 397 311 q 400 0 397 29 l 99 0 q 71 373 71 188 q 90 694 71 558 l 833 694 q 789 483 810 558 q 639 478 718 482 q 650 538 650 510 z "},"Є":{"ha":857,"x_min":36,"x_max":821,"o":"m 640 335 l 515 347 q 413 276 450 347 q 576 101 456 172 q 806 313 700 182 q 814 143 811 236 q 694 58 747 90 q 544 -2 640 26 q 336 -31 447 -31 l 304 -31 q 108 129 179 24 q 36 351 36 235 q 165 617 36 507 q 536 726 293 726 q 821 692 664 726 q 765 525 796 593 q 585 517 682 519 q 608 608 599 556 q 513 617 560 617 q 406 601 467 617 q 383 456 383 508 q 388 374 383 403 q 465 444 422 426 q 567 463 508 463 l 688 458 q 726 460 714 458 l 658 336 l 640 335 z "},"Ѕ":{"ha":882,"x_min":-19,"x_max":876,"o":"m 588 611 q 469 619 532 619 q 346 611 406 619 q 435 507 383 547 q 565 427 486 467 q 692 354 643 388 q 801 244 742 321 q 876 85 861 168 q 700 -67 810 -1 q 475 -156 590 -133 q 278 -112 397 -149 q 100 -75 160 -75 q -19 -112 40 -75 q 63 65 6 -42 l 74 65 q 241 38 163 65 q 384 -18 319 10 q 488 -46 449 -46 q 546 -40 528 -46 q 489 111 546 51 q 437 160 458 143 q 371 208 415 178 l 347 225 q 192 358 253 290 q 103 524 131 425 q 190 694 147 622 q 464 726 322 726 l 525 726 q 799 693 644 726 q 744 528 776 601 q 564 519 628 519 q 588 611 576 551 z "},"І":{"ha":550,"x_min":94,"x_max":474,"o":"m 474 694 l 474 657 q 428 0 474 290 l 94 0 q 121 295 121 128 q 99 694 121 463 l 474 694 z "},"Ї":{"ha":550,"x_min":56,"x_max":499,"o":"m 461 553 q 414 0 461 263 l 99 0 q 118 327 118 149 q 92 694 118 506 l 458 694 q 461 553 461 600 m 99 942 q 243 933 172 935 q 194 799 226 860 q 56 800 101 799 q 99 942 90 883 m 353 942 q 499 933 426 935 q 450 799 481 858 q 310 800 357 799 q 353 942 344 883 z "},"Ј":{"ha":738,"x_min":7,"x_max":622,"o":"m 267 -62 q 276 237 276 46 q 244 694 276 428 l 619 694 q 622 532 622 642 q 583 0 622 238 q 483 -76 529 -51 q 421 -109 438 -100 q 361 -137 404 -118 q 310 -160 318 -156 q 7 -97 132 -146 q 15 72 10 -6 q 267 -62 144 -21 z "},"Љ":{"ha":1339,"x_min":21,"x_max":1317,"o":"m 532 336 q 535 429 532 368 q 413 286 451 376 q 374 94 374 196 q 382 0 374 44 l 21 0 q 82 339 38 199 q 550 583 372 421 q 572 694 557 636 l 915 694 q 886 458 893 565 q 1317 336 1131 431 q 1274 0 1313 143 l 565 0 q 532 336 532 139 m 883 363 q 918 93 883 217 q 1008 325 992 185 q 883 363 950 357 z "},"Њ":{"ha":1375,"x_min":58,"x_max":1364,"o":"m 936 694 q 939 576 939 678 q 936 458 939 475 q 1364 336 1181 431 q 1264 1 1353 142 l 556 1 q 585 354 581 183 q 424 408 513 399 q 379 1 415 204 l 64 1 q 83 319 83 136 q 58 694 83 501 l 424 694 q 426 571 426 611 l 426 526 q 586 458 521 494 q 576 694 586 586 l 936 694 m 932 363 q 901 93 921 219 q 1003 196 958 132 q 1056 326 1047 260 q 932 363 994 357 z "},"Ћ":{"ha":1164,"x_min":26,"x_max":1138,"o":"m 976 353 q 1044 354 1021 353 q 1138 0 1119 197 l 783 0 q 728 264 783 214 q 646 300 701 288 q 644 183 644 269 q 654 0 644 97 l 351 0 q 304 475 304 222 q 307 604 304 518 q 164 444 188 569 l 26 453 l 75 694 l 999 694 q 936 444 975 556 l 794 453 q 800 497 800 475 q 767 578 800 551 q 679 604 733 604 q 654 406 663 506 q 976 353 806 353 z "},"Ќ":{"ha":982,"x_min":57,"x_max":969,"o":"m 792 704 l 838 704 q 969 725 926 704 q 851 568 908 635 l 829 568 q 692 590 758 568 q 540 383 597 513 q 868 339 688 346 q 925 0 910 233 l 565 0 q 494 190 542 103 q 394 308 446 276 q 385 125 385 194 q 389 0 385 56 l 83 0 q 57 345 57 204 q 78 694 57 486 l 464 694 q 407 406 422 522 q 538 578 469 508 q 701 697 607 649 q 792 704 738 704 m 492 944 l 646 925 q 591 856 626 888 q 524 806 556 824 q 440 764 492 788 l 349 764 q 492 944 449 829 z "},"Ў":{"ha":1017,"x_min":110,"x_max":1056,"o":"m 503 854 q 617 824 551 824 q 736 869 683 824 q 724 842 739 869 q 672 786 708 815 q 551 747 626 747 q 406 790 475 747 l 386 801 q 412 894 393 843 q 432 944 431 944 l 503 854 m 978 668 q 899 657 931 657 q 838 661 867 657 q 760 524 794 610 q 708 369 725 438 q 669 203 690 301 q 458 -511 564 -300 q 286 -551 389 -532 q 511 0 425 -314 l 224 0 q 110 694 114 356 l 515 694 q 486 420 486 565 q 533 89 486 275 q 567 220 543 126 q 601 354 590 314 q 635 468 613 394 q 677 578 658 542 q 724 661 696 615 q 856 772 774 743 q 951 787 879 779 q 1056 815 1024 794 q 978 668 1018 729 z "},"Џ":{"ha":906,"x_min":68,"x_max":853,"o":"m 847 694 q 853 442 853 606 q 832 88 853 279 q 528 0 704 8 q 506 -132 522 -54 q 458 -133 497 -133 q 393 -124 418 -133 q 408 3 406 -68 q 85 88 217 15 q 68 367 68 238 q 88 694 68 497 l 446 694 q 390 138 390 397 q 552 88 450 88 q 713 125 654 88 q 715 240 715 203 q 678 694 715 454 l 847 694 z "},"А":{"ha":1065,"x_min":85,"x_max":958,"o":"m 958 11 l 958 0 l 636 0 q 613 164 631 79 q 418 0 526 76 l 94 0 q 85 151 85 57 q 113 339 85 244 q 305 438 213 368 q 439 588 397 507 q 360 694 401 646 l 821 694 q 958 11 958 396 m 588 265 q 493 499 551 389 q 418 136 428 307 q 588 265 518 188 z "},"Б":{"ha":981,"x_min":74,"x_max":932,"o":"m 424 92 q 579 107 519 92 q 438 347 560 250 q 424 92 424 224 m 74 422 q 100 694 74 564 l 932 694 q 888 526 913 597 q 791 524 854 525 q 694 521 728 522 q 711 604 710 568 q 476 596 568 604 q 449 443 465 546 q 888 306 732 408 q 828 0 871 129 l 131 0 q 74 422 74 200 z "},"В":{"ha":965,"x_min":97,"x_max":911,"o":"m 447 90 q 601 106 542 90 q 460 335 576 260 q 447 90 447 211 m 97 417 q 124 694 97 563 l 894 694 q 656 413 832 500 q 911 254 815 356 q 851 0 899 125 l 153 0 q 97 417 97 193 m 471 431 q 597 493 539 449 q 681 603 656 538 q 500 596 569 603 q 471 431 483 515 z "},"Г":{"ha":838,"x_min":71,"x_max":833,"o":"m 650 538 q 550 604 650 604 q 467 596 513 604 q 397 90 397 311 q 400 0 397 29 l 99 0 q 71 373 71 188 q 90 694 71 558 l 833 694 q 789 483 810 558 q 639 478 718 482 q 650 538 650 510 z "},"Д":{"ha":1032,"x_min":8,"x_max":1028,"o":"m 825 -86 q 710 0 825 0 l 301 0 q 185 -126 185 0 q 186 -158 185 -147 q 61 -154 107 -157 q 8 107 32 -60 q 96 101 38 104 q 122 339 96 253 q 297 435 218 367 q 417 588 375 503 q 338 694 379 646 l 797 694 q 933 96 918 438 l 1028 92 q 964 -160 1001 -54 l 811 -151 q 825 -86 825 -115 m 397 182 q 403 107 397 140 q 592 92 493 93 q 471 494 565 313 q 397 182 397 321 z "},"Е":{"ha":932,"x_min":89,"x_max":854,"o":"m 576 415 l 707 407 q 736 408 726 407 l 671 286 l 658 286 q 583 301 632 286 q 514 315 535 315 q 424 242 457 315 q 415 106 418 174 q 529 92 488 92 l 542 92 q 637 118 601 92 q 688 213 672 144 l 854 206 q 799 0 833 86 l 117 0 q 89 372 89 188 q 108 694 89 557 l 853 694 q 808 483 828 544 q 658 478 726 479 q 669 538 669 510 q 569 604 669 604 q 486 596 532 604 q 439 364 456 464 q 576 415 494 415 z "},"Ж":{"ha":1457,"x_min":0,"x_max":1450,"o":"m 132 564 l 111 565 q 0 724 56 635 q 133 701 43 701 l 178 701 q 267 696 238 701 q 424 578 360 647 q 546 408 488 510 q 563 694 549 551 l 946 694 q 889 407 919 592 q 1018 578 950 508 q 1182 696 1086 647 q 1271 701 1211 701 l 1315 701 q 1450 724 1404 701 q 1427 690 1444 717 q 1398 645 1410 663 q 1369 607 1386 628 q 1311 564 1335 564 q 1172 589 1247 564 q 1022 383 1075 507 q 1349 340 1174 347 q 1407 0 1392 239 l 1047 0 q 977 189 1026 101 q 878 310 928 276 q 868 121 868 217 q 871 0 868 25 l 568 0 q 546 310 549 132 q 437 187 486 272 q 388 0 388 101 l 29 0 q 86 340 38 229 q 413 385 265 347 q 272 589 364 508 q 132 564 193 564 z "},"З":{"ha":864,"x_min":-49,"x_max":849,"o":"m 535 579 l 533 611 q 433 619 504 619 q 335 611 361 619 q 358 518 344 560 q 179 526 261 521 q 124 693 149 594 q 426 726 274 726 q 750 625 750 726 q 740 588 750 610 q 604 397 678 468 q 776 284 715 368 q 849 83 836 200 q 673 -68 783 -3 q 447 -156 563 -133 q 251 -112 369 -149 q 72 -76 132 -76 q -49 -114 11 -76 q 35 64 -18 -31 l 54 64 q 217 36 140 64 q 358 -19 294 8 q 463 -47 421 -47 q 513 -37 504 -47 q 522 23 522 -28 q 500 154 522 74 q 390 321 449 318 q 291 300 314 300 q 264 301 268 300 q 331 425 289 353 l 374 425 q 504 418 454 425 q 535 579 535 497 z "},"И":{"ha":1076,"x_min":99,"x_max":988,"o":"m 106 0 q 124 328 124 139 q 99 694 124 518 l 465 694 q 467 561 467 669 q 442 274 467 453 q 640 513 553 375 q 625 694 639 599 l 985 694 q 988 569 988 611 q 935 0 988 300 l 603 0 q 639 336 631 186 q 383 0 561 215 l 106 0 z "},"Й":{"ha":1076,"x_min":99,"x_max":988,"o":"m 503 854 q 617 824 551 824 q 736 869 683 824 q 724 842 739 869 q 672 786 708 815 q 549 747 626 747 l 542 747 q 406 790 475 747 l 386 801 q 412 894 393 843 q 432 944 431 944 l 503 854 m 106 0 q 124 328 124 139 q 99 694 124 518 l 465 694 q 467 561 467 669 q 442 274 467 453 q 640 513 553 375 q 625 694 639 599 l 985 694 q 988 569 988 611 q 935 0 988 300 l 603 0 q 639 336 631 186 q 383 0 561 215 l 106 0 z "},"К":{"ha":982,"x_min":57,"x_max":969,"o":"m 792 704 l 838 704 q 969 725 926 704 q 851 568 908 635 l 829 568 q 692 590 758 568 q 540 383 597 513 q 868 339 688 346 q 925 0 910 233 l 565 0 q 494 190 542 103 q 394 308 446 276 q 385 125 385 194 q 389 0 385 56 l 83 0 q 57 345 57 204 q 78 694 57 486 l 464 694 q 407 406 422 522 q 538 578 469 508 q 701 697 607 649 q 792 704 738 704 z "},"Л":{"ha":979,"x_min":51,"x_max":924,"o":"m 924 0 l 603 0 q 461 496 578 279 q 386 182 386 325 q 422 0 386 85 l 61 0 q 51 153 51 57 q 78 339 51 249 q 272 438 179 368 q 406 588 365 508 q 326 694 375 636 l 786 694 q 924 0 924 399 z "},"М":{"ha":1461,"x_min":50,"x_max":1397,"o":"m 913 631 q 901 694 913 668 l 1297 694 q 1372 368 1347 561 q 1397 0 1396 175 l 1076 0 q 994 482 1067 250 q 864 0 874 246 l 592 0 q 453 483 556 272 q 378 156 378 307 q 397 0 378 74 l 60 0 q 50 151 50 57 q 78 339 50 244 q 267 435 176 368 q 401 581 358 501 q 325 694 365 640 l 764 694 q 843 383 817 551 q 913 631 913 513 z "},"Н":{"ha":1028,"x_min":88,"x_max":971,"o":"m 971 579 q 918 0 971 307 l 586 0 q 615 353 608 164 q 454 407 543 397 q 410 0 446 203 l 94 0 q 113 326 113 136 q 88 694 113 515 l 454 694 q 457 525 457 638 q 617 457 538 500 q 607 694 617 586 l 968 694 q 971 579 971 617 z "},"О":{"ha":914,"x_min":47,"x_max":871,"o":"m 171 4 q 47 329 47 163 q 186 611 47 496 q 542 726 325 726 q 771 692 657 726 q 871 421 871 565 q 722 104 871 239 q 363 -31 574 -31 q 171 4 272 -31 m 382 606 q 333 410 333 522 q 383 202 333 297 q 518 65 432 107 q 583 258 583 149 q 530 463 583 368 q 382 606 476 557 z "},"П":{"ha":1028,"x_min":64,"x_max":946,"o":"m 943 694 l 946 576 q 893 0 946 306 l 561 0 q 593 450 593 226 q 589 604 593 528 l 565 604 q 433 596 486 604 l 433 551 q 386 0 433 272 l 69 0 q 89 325 89 149 q 64 694 89 501 l 943 694 z "},"Р":{"ha":924,"x_min":53,"x_max":865,"o":"m 408 174 q 415 0 408 94 l 110 0 q 53 469 53 221 q 68 694 53 596 l 821 694 q 865 321 861 538 q 408 201 660 229 l 408 174 m 410 297 q 558 342 499 308 q 439 603 536 489 q 410 297 417 465 z "},"С":{"ha":878,"x_min":53,"x_max":836,"o":"m 624 610 q 530 618 575 618 q 421 603 485 618 q 400 432 400 515 q 592 101 400 217 q 822 313 719 186 q 829 143 826 257 q 619 17 726 63 q 353 -29 513 -29 l 321 -29 q 124 131 196 25 q 53 353 53 236 q 181 617 53 508 q 551 726 308 726 q 836 692 688 726 q 781 526 814 604 q 600 518 693 518 q 624 610 614 557 z "},"Т":{"ha":979,"x_min":1,"x_max":975,"o":"m 656 604 q 619 246 619 385 q 631 0 619 107 l 328 0 q 281 475 281 221 q 283 604 281 518 q 139 444 165 569 l 1 453 l 51 694 l 975 694 q 911 444 947 542 l 771 453 q 776 497 776 475 q 743 578 776 551 q 656 604 710 604 z "},"У":{"ha":1017,"x_min":110,"x_max":1056,"o":"m 978 668 q 899 657 931 657 q 838 661 867 657 q 760 524 794 610 q 708 369 725 438 q 669 203 690 301 q 458 -511 564 -300 q 286 -551 389 -532 q 511 0 425 -314 l 224 0 q 110 694 114 356 l 515 694 q 486 420 486 565 q 533 89 486 275 q 567 220 543 126 q 601 354 590 314 q 635 468 613 394 q 677 578 658 542 q 724 661 696 615 q 856 772 774 743 q 951 787 879 779 q 1056 815 1024 794 q 978 668 1018 729 z "},"Ф":{"ha":1221,"x_min":28,"x_max":1193,"o":"m 28 383 q 89 694 28 557 l 394 694 q 371 849 381 797 q 771 781 638 804 q 775 737 772 765 q 778 694 778 708 l 1146 694 q 1193 446 1193 579 q 1182 313 1193 390 q 786 210 1021 233 q 774 0 782 104 l 422 0 q 429 210 429 118 q 31 313 192 233 q 28 383 28 360 m 407 600 q 340 478 371 553 q 299 335 310 403 q 428 307 353 314 q 407 600 424 453 m 788 381 l 788 307 q 914 335 864 314 q 783 600 893 456 q 788 381 788 489 z "},"Х":{"ha":975,"x_min":13,"x_max":1017,"o":"m 938 668 q 860 657 893 657 q 799 661 828 657 q 601 471 717 603 q 869 0 769 208 l 524 0 q 410 221 467 122 q 172 -168 256 1 q 90 -187 144 -175 q 13 -204 36 -199 q 361 301 129 4 q 38 694 218 525 l 469 694 q 558 539 501 626 q 601 590 569 551 q 651 647 633 628 q 700 694 669 667 q 817 771 756 749 q 913 785 840 778 q 1017 814 985 793 q 938 668 983 738 z "},"Ц":{"ha":1042,"x_min":71,"x_max":1033,"o":"m 715 0 l 76 0 q 96 318 96 135 q 71 694 96 501 l 438 694 q 440 553 440 600 q 410 106 440 318 q 579 90 475 90 q 600 421 600 278 q 589 694 600 564 l 950 694 q 953 575 953 614 q 915 97 953 342 q 1033 90 978 92 q 971 -160 1010 -49 l 818 -151 q 832 -86 832 -115 q 715 0 832 0 z "},"Ч":{"ha":1007,"x_min":57,"x_max":956,"o":"m 568 303 q 563 483 563 376 q 572 694 563 589 l 956 694 q 904 203 904 438 q 914 0 904 93 l 610 0 q 579 192 589 107 q 340 236 510 236 q 182 226 260 236 q 57 694 88 439 l 411 694 q 568 303 411 335 z "},"Ш":{"ha":1490,"x_min":75,"x_max":1419,"o":"m 1419 579 q 1367 0 1419 306 l 82 0 q 100 326 100 136 q 75 694 100 515 l 442 694 q 444 553 444 600 q 414 107 444 319 q 582 92 479 92 q 590 358 590 199 q 565 694 590 518 l 932 694 q 933 624 933 671 q 881 106 933 360 q 1046 92 950 92 q 1065 426 1065 269 q 1056 694 1065 582 l 1417 694 q 1419 579 1419 611 z "},"Щ":{"ha":1464,"x_min":39,"x_max":1464,"o":"m 1146 0 l 44 0 q 64 318 64 135 q 39 694 64 501 l 406 694 q 408 551 408 600 q 378 106 408 318 q 544 90 443 90 q 554 345 554 189 q 529 694 554 501 l 894 694 q 896 615 896 669 q 843 106 896 367 q 1010 90 908 90 q 1029 415 1029 265 q 1018 694 1029 564 l 1379 694 q 1382 574 1382 614 q 1344 97 1382 342 q 1464 90 1408 92 q 1400 -160 1438 -53 l 1247 -151 q 1261 -86 1261 -115 q 1146 0 1261 0 z "},"Ъ":{"ha":1053,"x_min":14,"x_max":1025,"o":"m 275 0 q 242 310 242 139 q 261 604 242 481 q 185 562 210 589 q 151 478 161 535 l 14 486 l 57 694 l 624 694 q 594 458 601 565 q 1025 336 843 431 q 982 0 1021 143 l 275 0 m 592 363 q 626 93 592 217 q 718 326 699 185 q 592 363 654 357 z "},"Ы":{"ha":1326,"x_min":56,"x_max":1271,"o":"m 88 0 q 56 347 56 133 q 94 694 56 561 l 438 694 q 408 457 415 563 q 840 335 651 429 q 796 0 836 150 l 88 0 m 406 361 q 440 92 406 214 q 532 324 513 181 q 406 361 471 356 m 1271 553 q 1224 0 1271 263 l 908 0 q 926 326 926 136 q 901 694 926 515 l 1268 694 q 1271 553 1271 600 z "},"Ь":{"ha":874,"x_min":74,"x_max":858,"o":"m 107 0 q 74 348 74 139 q 114 694 74 557 l 456 694 q 426 458 433 565 q 858 336 669 431 q 815 0 854 150 l 107 0 m 424 363 q 458 93 424 217 q 550 325 532 185 q 424 363 489 357 z "},"Э":{"ha":889,"x_min":75,"x_max":860,"o":"m 208 458 l 329 463 q 431 444 388 463 q 508 374 474 426 q 513 456 513 403 q 490 601 513 508 q 383 617 429 617 q 288 608 336 617 q 311 517 297 556 q 131 525 214 519 q 75 692 100 593 q 360 726 232 726 q 731 617 603 726 q 860 351 860 507 q 788 129 860 235 q 592 -31 717 24 l 560 -31 q 352 -2 449 -31 q 202 58 256 26 q 82 143 149 90 q 90 313 85 236 q 319 101 196 182 q 483 276 440 172 q 381 347 446 347 l 256 335 l 238 336 l 169 460 q 208 458 182 458 z "},"Ю":{"ha":1335,"x_min":49,"x_max":1315,"o":"m 56 0 q 75 326 75 147 q 49 694 75 506 l 415 694 q 418 548 418 642 q 417 413 418 454 q 521 407 478 413 q 692 642 556 557 q 994 726 828 726 q 1217 692 1100 726 q 1315 419 1315 565 q 1170 105 1315 240 q 818 -31 1025 -31 q 631 3 733 -31 q 510 317 513 156 q 411 315 442 317 q 371 0 399 161 l 56 0 m 838 597 q 789 404 789 513 q 838 203 789 296 q 971 71 888 111 q 1033 260 1033 153 q 981 459 1033 367 q 838 597 929 551 z "},"Я":{"ha":911,"x_min":29,"x_max":871,"o":"m 96 446 q 126 694 96 556 l 851 694 q 871 374 871 547 q 831 0 871 201 l 528 0 q 536 169 536 97 q 535 264 536 240 q 388 0 417 214 l 29 0 q 86 274 40 157 q 374 313 250 281 q 96 406 213 346 l 96 446 m 506 601 q 407 415 432 507 q 531 361 454 372 q 506 601 522 479 z "},"а":{"ha":1065,"x_min":85,"x_max":958,"o":"m 958 11 l 958 0 l 636 0 q 613 164 631 79 q 418 0 526 76 l 94 0 q 85 151 85 57 q 113 339 85 244 q 305 438 213 368 q 439 588 397 507 q 360 694 401 646 l 821 694 q 958 11 958 396 m 588 265 q 493 499 551 389 q 418 136 428 307 q 588 265 518 188 z "},"б":{"ha":981,"x_min":74,"x_max":932,"o":"m 424 92 q 579 107 519 92 q 438 347 560 250 q 424 92 424 224 m 74 422 q 100 694 74 564 l 932 694 q 888 526 913 597 q 791 524 854 525 q 694 521 728 522 q 711 604 710 568 q 476 596 568 604 q 449 443 465 546 q 888 306 732 408 q 828 0 871 129 l 131 0 q 74 422 74 200 z "},"в":{"ha":965,"x_min":97,"x_max":911,"o":"m 447 90 q 601 106 542 90 q 460 335 576 260 q 447 90 447 211 m 97 417 q 124 694 97 563 l 894 694 q 656 413 832 500 q 911 254 815 356 q 851 0 899 125 l 153 0 q 97 417 97 193 m 471 431 q 597 493 539 449 q 681 603 656 538 q 500 596 569 603 q 471 431 483 515 z "},"г":{"ha":838,"x_min":71,"x_max":833,"o":"m 650 538 q 550 604 650 604 q 467 596 513 604 q 397 90 397 311 q 400 0 397 29 l 99 0 q 71 373 71 188 q 90 694 71 558 l 833 694 q 789 483 810 558 q 639 478 718 482 q 650 538 650 510 z "},"д":{"ha":1032,"x_min":8,"x_max":1028,"o":"m 825 -86 q 710 0 825 0 l 301 0 q 185 -126 185 0 q 186 -158 185 -147 q 61 -154 107 -157 q 8 107 32 -60 q 96 101 38 104 q 122 339 96 253 q 297 435 218 367 q 417 588 375 503 q 338 694 379 646 l 797 694 q 933 96 918 438 l 1028 92 q 964 -160 1001 -54 l 811 -151 q 825 -86 825 -115 m 397 182 q 403 107 397 140 q 592 92 493 93 q 471 494 565 313 q 397 182 397 321 z "},"е":{"ha":932,"x_min":89,"x_max":854,"o":"m 576 415 l 707 407 q 736 408 726 407 l 671 286 l 658 286 q 583 301 632 286 q 514 315 535 315 q 424 242 457 315 q 415 106 418 174 q 529 92 488 92 l 542 92 q 637 118 601 92 q 688 213 672 144 l 854 206 q 799 0 833 86 l 117 0 q 89 372 89 188 q 108 694 89 557 l 853 694 q 808 483 828 544 q 658 478 726 479 q 669 538 669 510 q 569 604 669 604 q 486 596 532 604 q 439 364 456 464 q 576 415 494 415 z "},"ж":{"ha":1457,"x_min":0,"x_max":1450,"o":"m 204 -1 l 29 0 q 86 340 40 226 q 413 385 268 349 q 272 589 363 511 q 132 564 194 564 q 83 597 108 564 q 50 644 58 631 q 0 724 7 710 q 129 701 46 701 q 276 680 213 701 q 388 614 339 658 q 472 523 438 569 q 546 408 507 476 q 563 694 547 550 l 946 694 q 889 407 911 556 q 1018 578 950 508 q 1182 696 1086 647 q 1258 703 1213 703 l 1324 701 q 1450 724 1404 701 q 1435 700 1446 718 q 1416 670 1424 682 q 1396 640 1408 658 q 1373 610 1383 622 q 1351 586 1363 599 q 1311 564 1329 564 q 1172 589 1247 564 q 1022 383 1078 511 q 1349 340 1174 347 q 1407 0 1393 231 l 1047 0 q 976 190 1025 103 q 878 310 928 278 q 868 127 868 217 q 871 0 868 38 l 568 0 q 546 310 549 146 q 438 188 488 272 q 388 6 388 103 q 204 -1 388 -1 z "},"з":{"ha":864,"x_min":-49,"x_max":849,"o":"m 535 579 l 533 611 q 433 619 504 619 q 335 611 361 619 q 358 518 344 560 q 179 526 261 521 q 124 693 149 594 q 426 726 274 726 q 750 625 750 726 q 740 588 750 610 q 604 397 678 468 q 776 284 715 368 q 849 83 836 200 q 673 -68 783 -3 q 447 -156 563 -133 q 251 -112 369 -149 q 73 -76 132 -76 q -49 -114 14 -76 q 54 64 14 64 q 217 36 140 64 q 358 -19 294 8 q 463 -47 421 -47 q 514 -37 506 -47 q 522 8 522 -26 q 478 214 522 107 q 390 321 435 321 q 291 300 314 300 q 264 301 268 300 q 331 425 289 353 l 374 425 q 504 418 454 425 q 535 579 535 497 z "},"и":{"ha":1076,"x_min":99,"x_max":988,"o":"m 106 0 q 124 328 124 139 q 99 694 124 518 l 465 694 q 467 561 467 669 q 442 274 467 453 q 640 513 553 375 q 625 694 639 599 l 985 694 q 988 569 988 611 q 935 0 988 300 l 603 0 q 639 336 631 186 q 383 0 561 215 l 106 0 z "},"й":{"ha":1076,"x_min":99,"x_max":988,"o":"m 503 854 q 617 824 551 824 q 736 869 683 824 q 724 842 739 869 q 672 786 708 815 q 549 747 626 747 l 542 747 q 406 790 475 747 l 386 801 q 412 894 393 843 q 432 944 431 944 l 503 854 m 106 0 q 124 328 124 139 q 99 694 124 518 l 465 694 q 467 561 467 669 q 442 274 467 453 q 640 513 553 375 q 625 694 639 599 l 985 694 q 988 569 988 611 q 935 0 988 300 l 603 0 q 639 336 631 186 q 383 0 561 215 l 106 0 z "},"к":{"ha":982,"x_min":57,"x_max":969,"o":"m 792 704 l 838 704 q 969 725 926 704 q 851 568 908 635 l 829 568 q 692 590 758 568 q 540 383 597 513 q 868 339 688 346 q 925 0 910 233 l 565 0 q 494 190 542 103 q 394 308 446 276 q 385 125 385 194 q 389 0 385 56 l 83 0 q 57 345 57 204 q 78 694 57 486 l 464 694 q 407 406 422 522 q 538 578 469 508 q 701 697 607 649 q 792 704 738 704 z "},"л":{"ha":979,"x_min":51,"x_max":924,"o":"m 924 0 l 603 0 q 461 496 578 279 q 386 182 386 325 q 422 0 386 85 l 61 0 q 51 153 51 57 q 78 339 51 249 q 272 438 179 368 q 406 588 365 508 q 326 694 375 636 l 786 694 q 924 0 924 399 z "},"м":{"ha":1461,"x_min":50,"x_max":1397,"o":"m 913 631 q 901 694 913 665 l 1297 694 q 1372 364 1347 558 q 1397 0 1397 169 l 1076 0 q 994 482 1067 258 q 864 0 872 243 l 592 0 q 453 483 557 272 q 378 156 378 306 q 397 0 378 69 l 60 0 q 50 151 50 57 q 78 339 50 244 q 266 435 175 368 q 401 581 357 501 q 325 694 374 628 l 764 694 q 843 383 817 551 q 913 631 913 508 z "},"н":{"ha":1028,"x_min":88,"x_max":971,"o":"m 971 579 q 918 0 971 307 l 586 0 q 615 353 608 164 q 454 407 543 397 q 410 0 446 203 l 94 0 q 113 326 113 136 q 88 694 113 515 l 454 694 q 457 525 457 638 q 617 457 538 500 q 607 694 617 586 l 968 694 q 971 579 971 617 z "},"о":{"ha":914,"x_min":47,"x_max":871,"o":"m 171 4 q 47 329 47 163 q 186 611 47 496 q 542 726 325 726 q 771 692 657 726 q 871 421 871 565 q 722 104 871 239 q 363 -31 574 -31 q 171 4 272 -31 m 382 606 q 333 410 333 522 q 383 202 333 297 q 518 65 432 107 q 583 258 583 149 q 530 463 583 368 q 382 606 476 557 z "},"п":{"ha":1028,"x_min":64,"x_max":946,"o":"m 943 694 l 946 576 q 893 0 946 306 l 561 0 q 593 450 593 226 q 589 604 593 528 l 565 604 q 433 596 486 604 l 433 551 q 386 0 433 272 l 69 0 q 89 325 89 149 q 64 694 89 501 l 943 694 z "},"р":{"ha":924,"x_min":53,"x_max":865,"o":"m 408 174 q 415 0 408 94 l 110 0 q 53 469 53 221 q 68 694 53 596 l 821 694 q 865 321 861 538 q 408 201 660 229 l 408 174 m 410 297 q 558 342 499 308 q 439 603 536 489 q 410 297 417 465 z "},"с":{"ha":878,"x_min":53,"x_max":836,"o":"m 624 610 q 530 618 575 618 q 421 603 485 618 q 400 432 400 515 q 592 101 400 217 q 822 313 719 186 q 829 143 826 257 q 619 17 726 63 q 353 -29 513 -29 l 321 -29 q 124 131 196 25 q 53 353 53 236 q 181 617 53 508 q 551 726 308 726 q 836 692 688 726 q 781 526 814 604 q 600 518 693 518 q 624 610 614 557 z "},"т":{"ha":979,"x_min":1,"x_max":975,"o":"m 656 604 q 619 246 619 385 q 631 0 619 107 l 328 0 q 281 475 281 221 q 283 604 281 518 q 139 444 165 569 l 1 453 l 51 694 l 975 694 q 911 444 947 542 l 771 453 q 776 497 776 475 q 743 578 776 551 q 656 604 710 604 z "},"у":{"ha":949,"x_min":42,"x_max":988,"o":"m 910 668 q 831 657 863 657 q 769 661 799 657 q 692 524 726 610 q 640 369 657 438 q 601 203 622 301 q 390 -511 496 -300 q 218 -551 321 -532 q 443 0 357 -314 l 156 0 q 42 694 46 356 l 447 694 q 418 420 418 565 q 465 89 418 275 q 499 220 475 126 q 533 354 522 314 q 567 468 544 394 q 609 578 590 542 q 656 661 628 615 q 788 772 706 743 q 883 787 811 779 q 988 815 956 794 q 910 668 950 729 z "},"ф":{"ha":1264,"x_min":61,"x_max":1226,"o":"m 61 383 q 122 694 61 557 l 428 694 q 404 849 421 746 q 804 781 671 804 q 808 737 806 765 q 811 694 811 708 l 1179 694 q 1226 446 1226 574 q 1215 313 1226 388 q 819 210 1046 231 q 807 0 815 104 l 456 0 q 463 210 463 115 q 64 313 233 231 q 61 383 61 360 m 440 600 q 374 478 404 556 q 332 335 343 401 q 461 307 383 314 q 440 600 457 451 m 821 381 l 821 307 q 947 335 897 314 q 898 472 938 396 q 817 600 858 547 q 821 381 821 489 z "},"х":{"ha":975,"x_min":13,"x_max":1017,"o":"m 938 668 q 860 657 893 657 q 799 661 828 657 q 601 471 717 603 q 869 0 769 208 l 524 0 q 410 221 467 122 q 172 -168 256 1 q 90 -187 144 -175 q 13 -204 36 -199 q 361 301 129 4 q 38 694 218 525 l 469 694 q 558 539 501 626 q 601 590 569 551 q 651 647 633 628 q 700 694 669 667 q 817 771 756 749 q 913 785 840 778 q 1017 814 985 793 q 938 668 983 738 z "},"ц":{"ha":1042,"x_min":71,"x_max":1033,"o":"m 715 0 l 76 0 q 96 318 96 135 q 71 694 96 501 l 438 694 q 440 553 440 600 q 410 106 440 318 q 579 90 475 90 q 600 421 600 278 q 589 694 600 564 l 950 694 q 953 575 953 614 q 915 97 953 342 q 1033 90 978 92 q 971 -160 1010 -49 l 818 -151 q 832 -86 832 -115 q 715 0 832 0 z "},"ч":{"ha":1007,"x_min":57,"x_max":956,"o":"m 568 303 q 563 483 563 376 q 572 694 563 589 l 956 694 q 904 203 904 438 q 914 0 904 93 l 610 0 q 579 192 589 107 q 340 236 510 236 q 182 226 260 236 q 57 694 88 439 l 411 694 q 568 303 411 335 z "},"ш":{"ha":1490,"x_min":75,"x_max":1419,"o":"m 1419 579 q 1367 0 1419 306 l 82 0 q 100 326 100 136 q 75 694 100 515 l 442 694 q 444 553 444 600 q 414 107 444 319 q 582 92 479 92 q 590 358 590 199 q 565 694 590 518 l 932 694 q 933 624 933 671 q 881 106 933 360 q 1046 92 950 92 q 1065 426 1065 269 q 1056 694 1065 582 l 1417 694 q 1419 579 1419 611 z "},"щ":{"ha":1464,"x_min":39,"x_max":1464,"o":"m 1146 0 l 44 0 q 64 318 64 135 q 39 694 64 501 l 406 694 q 408 551 408 600 q 378 106 408 318 q 544 90 443 90 q 554 345 554 189 q 529 694 554 501 l 894 694 q 896 615 896 669 q 843 106 896 367 q 1010 90 908 90 q 1029 415 1029 265 q 1018 694 1029 564 l 1379 694 q 1382 574 1382 614 q 1344 97 1382 342 q 1464 90 1408 92 q 1400 -160 1438 -53 l 1247 -151 q 1261 -86 1261 -115 q 1146 0 1261 0 z "},"ъ":{"ha":1053,"x_min":14,"x_max":1025,"o":"m 275 0 q 242 310 242 139 q 261 604 242 481 q 185 562 210 589 q 151 478 161 535 l 14 486 l 57 694 l 624 694 q 594 458 601 565 q 1025 336 843 431 q 982 0 1021 143 l 275 0 m 592 363 q 626 93 592 217 q 718 326 699 185 q 592 363 654 357 z "},"ы":{"ha":1326,"x_min":56,"x_max":1271,"o":"m 88 0 q 56 347 56 133 q 94 694 56 561 l 438 694 q 408 457 415 563 q 840 335 651 429 q 796 0 836 150 l 88 0 m 406 361 q 440 92 406 214 q 532 324 513 181 q 406 361 471 356 m 1271 553 q 1224 0 1271 263 l 908 0 q 926 326 926 136 q 901 694 926 515 l 1268 694 q 1271 553 1271 600 z "},"ь":{"ha":874,"x_min":74,"x_max":858,"o":"m 107 0 q 74 348 74 139 q 114 694 74 557 l 456 694 q 426 458 433 565 q 858 336 669 431 q 815 0 854 150 l 107 0 m 424 363 q 458 93 424 217 q 550 325 532 185 q 424 363 489 357 z "},"э":{"ha":889,"x_min":75,"x_max":860,"o":"m 208 458 l 329 463 q 431 444 388 463 q 508 374 474 426 q 513 456 513 403 q 490 601 513 508 q 383 617 429 617 q 288 608 336 617 q 311 517 297 556 q 131 525 214 519 q 75 692 100 593 q 360 726 232 726 q 731 617 603 726 q 860 351 860 507 q 788 129 860 235 q 592 -31 717 24 l 560 -31 q 352 -2 449 -31 q 202 58 256 26 q 82 143 149 90 q 90 313 85 236 q 319 101 196 182 q 483 276 440 172 q 381 347 446 347 l 256 335 l 238 336 l 169 460 q 208 458 182 458 z "},"ю":{"ha":1335,"x_min":49,"x_max":1315,"o":"m 56 0 q 75 326 75 147 q 49 694 75 506 l 415 694 q 418 548 418 642 q 417 413 418 454 q 521 407 478 413 q 692 642 556 557 q 994 726 828 726 q 1217 692 1100 726 q 1315 419 1315 565 q 1170 105 1315 240 q 818 -31 1025 -31 q 631 3 733 -31 q 510 317 513 156 q 411 315 442 317 q 371 0 399 161 l 56 0 m 838 597 q 789 404 789 513 q 838 203 789 296 q 971 71 888 111 q 1033 260 1033 153 q 981 459 1033 367 q 838 597 929 551 z "},"я":{"ha":911,"x_min":29,"x_max":871,"o":"m 96 446 q 126 694 96 556 l 851 694 q 871 374 871 547 q 831 0 871 201 l 528 0 q 536 169 536 97 q 535 264 536 240 q 388 0 417 214 l 29 0 q 86 274 40 157 q 374 313 250 281 q 96 406 213 346 l 96 446 m 506 601 q 407 415 432 507 q 531 361 454 372 q 506 601 522 479 z "},"ё":{"ha":893,"x_min":75,"x_max":818,"o":"m 549 415 l 676 407 q 704 408 694 407 l 640 286 l 628 286 q 554 301 601 286 q 488 315 507 315 q 400 242 432 315 q 392 107 393 172 q 513 92 454 92 q 606 119 571 92 q 656 213 640 146 l 818 207 q 764 0 796 78 l 101 0 q 75 366 75 178 q 93 694 75 554 l 817 694 q 774 483 793 551 q 628 478 693 479 q 639 538 639 510 q 540 603 639 603 l 528 603 q 460 596 501 603 q 415 364 431 475 q 549 415 469 415 m 386 800 l 331 799 q 250 801 303 799 q 292 942 285 883 q 433 933 365 935 q 386 800 417 858 m 635 800 l 578 799 q 499 801 551 799 q 540 942 532 886 q 682 933 613 935 q 635 800 663 856 z "},"ђ":{"ha":1075,"x_min":11,"x_max":1053,"o":"m 1051 289 l 1053 229 q 1010 -96 1053 29 q 744 -233 892 -178 q 540 -172 635 -208 q 547 -19 540 -106 q 711 -136 633 -97 q 746 164 746 -10 q 742 274 746 217 q 632 310 682 306 q 629 165 629 238 q 639 0 629 93 l 336 0 q 289 474 289 222 q 292 603 289 517 q 149 444 175 571 q 11 454 38 451 l 61 694 l 983 694 q 921 444 957 546 q 779 454 846 449 q 785 499 785 476 q 751 577 785 551 q 664 603 718 603 q 639 407 647 507 q 861 365 767 392 q 1051 289 956 339 z "},"ѓ":{"ha":838,"x_min":71,"x_max":833,"o":"m 425 944 l 579 925 q 524 856 560 888 q 457 806 489 824 q 374 764 425 788 l 282 764 q 425 944 382 829 m 650 538 q 550 604 650 604 q 467 596 513 604 q 397 90 397 311 q 400 0 397 29 l 99 0 q 71 373 71 188 q 90 694 71 558 l 833 694 q 789 483 810 558 q 639 478 718 482 q 650 538 650 510 z "},"є":{"ha":857,"x_min":36,"x_max":821,"o":"m 640 335 l 515 347 q 413 276 450 347 q 576 101 456 172 q 806 313 700 182 q 814 143 811 236 q 694 58 747 90 q 544 -2 640 26 q 336 -31 447 -31 l 304 -31 q 108 129 179 24 q 36 351 36 235 q 165 617 36 507 q 536 726 293 726 q 821 692 664 726 q 765 525 796 593 q 585 517 682 519 q 608 608 599 556 q 513 617 560 617 q 406 601 467 617 q 383 456 383 508 q 388 374 383 403 q 465 444 422 426 q 567 463 508 463 l 688 458 q 726 460 714 458 l 658 336 l 640 335 z "},"ѕ":{"ha":882,"x_min":-19,"x_max":876,"o":"m 588 611 q 469 619 532 619 q 346 611 406 619 q 435 507 383 547 q 565 427 486 467 q 692 354 643 388 q 801 244 742 321 q 876 85 861 168 q 700 -67 810 -1 q 475 -156 590 -133 q 278 -112 397 -149 q 100 -75 160 -75 q -19 -112 40 -75 q 63 65 6 -42 l 74 65 q 241 38 163 65 q 384 -18 319 10 q 488 -46 449 -46 q 546 -40 528 -46 q 489 111 546 51 q 437 160 458 143 q 371 208 415 178 l 347 225 q 192 358 253 290 q 103 524 131 425 q 190 694 147 622 q 464 726 322 726 l 525 726 q 799 693 644 726 q 744 528 776 601 q 564 519 628 519 q 588 611 576 551 z "},"і":{"ha":550,"x_min":94,"x_max":474,"o":"m 474 694 l 474 657 q 428 0 474 290 l 94 0 q 121 295 121 128 q 99 694 121 463 l 474 694 z "},"ї":{"ha":550,"x_min":56,"x_max":499,"o":"m 461 553 q 414 0 461 263 l 99 0 q 118 327 118 149 q 92 694 118 506 l 458 694 q 461 553 461 600 m 99 942 q 243 933 172 935 q 194 799 226 860 q 56 800 101 799 q 99 942 90 883 m 353 942 q 499 933 426 935 q 450 799 481 858 q 310 800 357 799 q 353 942 344 883 z "},"ј":{"ha":738,"x_min":7,"x_max":622,"o":"m 267 -62 q 276 237 276 46 q 244 694 276 428 l 619 694 q 622 532 622 642 q 583 0 622 238 q 483 -76 529 -51 q 421 -109 438 -100 q 361 -137 404 -118 q 310 -160 318 -156 q 7 -97 132 -146 q 15 72 10 -6 q 267 -62 144 -21 z "},"љ":{"ha":1339,"x_min":21,"x_max":1317,"o":"m 532 336 q 535 429 532 368 q 413 286 451 376 q 374 94 374 196 q 382 0 374 44 l 21 0 q 82 339 38 199 q 550 583 372 421 q 572 694 557 636 l 915 694 q 886 458 893 565 q 1317 336 1131 431 q 1274 0 1313 143 l 565 0 q 532 336 532 139 m 883 363 q 918 93 883 217 q 1008 325 992 185 q 883 363 950 357 z "},"њ":{"ha":1375,"x_min":58,"x_max":1364,"o":"m 936 694 q 939 576 939 678 q 936 458 939 475 q 1364 336 1181 431 q 1264 1 1353 142 l 556 1 q 585 354 581 183 q 424 408 513 399 q 379 1 415 204 l 64 1 q 83 319 83 136 q 58 694 83 501 l 424 694 q 426 571 426 611 l 426 526 q 586 458 521 494 q 576 694 586 586 l 936 694 m 932 363 q 901 93 921 219 q 1003 196 958 132 q 1056 326 1047 260 q 932 363 994 357 z "},"ћ":{"ha":1164,"x_min":26,"x_max":1138,"o":"m 976 353 q 1044 354 1021 353 q 1138 0 1119 197 l 783 0 q 728 264 783 214 q 646 300 701 288 q 644 183 644 269 q 654 0 644 97 l 351 0 q 304 475 304 222 q 307 604 304 518 q 164 444 188 569 l 26 453 l 75 694 l 999 694 q 936 444 975 556 l 794 453 q 800 497 800 475 q 767 578 800 551 q 679 604 733 604 q 654 406 663 506 q 976 353 806 353 z "},"ќ":{"ha":982,"x_min":57,"x_max":969,"o":"m 792 704 l 838 704 q 969 725 926 704 q 851 568 908 635 l 829 568 q 692 590 758 568 q 540 383 597 513 q 868 339 688 346 q 925 0 910 233 l 565 0 q 494 190 542 103 q 394 308 446 276 q 385 125 385 194 q 389 0 385 56 l 83 0 q 57 345 57 204 q 78 694 57 486 l 464 694 q 407 406 422 522 q 538 578 469 508 q 701 697 607 649 q 792 704 738 704 m 492 944 l 646 925 q 591 856 626 888 q 524 806 556 824 q 440 764 492 788 l 349 764 q 492 944 449 829 z "},"ў":{"ha":1017,"x_min":110,"x_max":1056,"o":"m 503 854 q 617 824 551 824 q 736 869 683 824 q 724 842 739 869 q 672 786 708 815 q 551 747 626 747 q 406 790 475 747 l 386 801 q 412 894 393 843 q 432 944 431 944 l 503 854 m 978 668 q 899 657 931 657 q 838 661 867 657 q 760 524 794 610 q 708 369 725 438 q 669 203 690 301 q 458 -511 564 -300 q 286 -551 389 -532 q 511 0 425 -314 l 224 0 q 110 694 114 356 l 515 694 q 486 420 486 565 q 533 89 486 275 q 567 220 543 126 q 601 354 590 314 q 635 468 613 394 q 677 578 658 542 q 724 661 696 615 q 856 772 774 743 q 951 787 879 779 q 1056 815 1024 794 q 978 668 1018 729 z "},"џ":{"ha":906,"x_min":68,"x_max":853,"o":"m 847 694 q 853 442 853 606 q 832 88 853 279 q 528 0 704 8 q 506 -132 522 -54 q 458 -133 497 -133 q 393 -124 418 -133 q 408 3 406 -68 q 85 88 217 15 q 68 367 68 238 q 88 694 68 497 l 446 694 q 390 138 390 397 q 552 88 450 88 q 713 125 654 88 q 715 240 715 203 q 678 694 715 454 l 847 694 z "},"Ґ":{"ha":826,"x_min":57,"x_max":846,"o":"m 558 694 q 696 815 668 694 q 846 810 768 814 q 790 604 825 688 l 536 604 q 453 597 493 604 q 383 88 383 300 q 386 0 383 29 l 85 0 q 57 373 57 188 q 76 694 57 558 l 558 694 z "},"ґ":{"ha":826,"x_min":57,"x_max":846,"o":"m 558 694 q 696 815 668 694 q 846 810 768 814 q 790 604 825 688 l 536 604 q 453 597 493 604 q 383 88 383 300 q 386 0 383 29 l 85 0 q 57 373 57 188 q 76 694 57 558 l 558 694 z "},"Ḃ":{"ha":965,"x_min":97,"x_max":911,"o":"m 447 90 q 601 106 542 90 q 460 335 576 260 q 447 90 447 211 m 97 417 q 124 694 97 563 l 894 694 q 656 413 832 500 q 911 254 815 356 q 851 0 899 125 l 153 0 q 97 417 97 193 m 471 431 q 597 493 539 449 q 681 603 656 538 q 500 596 569 603 q 471 431 483 515 m 526 800 l 471 799 q 390 801 443 799 q 432 942 425 883 q 574 933 506 935 q 526 800 557 858 z "},"ḃ":{"ha":965,"x_min":97,"x_max":911,"o":"m 447 90 q 601 106 542 90 q 460 335 576 260 q 447 90 447 211 m 97 417 q 124 694 97 563 l 894 694 q 656 413 832 500 q 911 254 815 356 q 851 0 899 125 l 153 0 q 97 417 97 193 m 471 431 q 597 493 539 449 q 681 603 656 538 q 500 596 569 603 q 471 431 483 515 m 526 800 l 471 799 q 390 801 443 799 q 432 942 425 883 q 574 933 506 935 q 526 800 557 858 z "},"Ḋ":{"ha":997,"x_min":103,"x_max":933,"o":"m 438 726 q 874 660 706 726 q 933 418 933 540 q 826 146 933 261 q 406 -19 671 -19 q 157 1 314 -19 q 103 517 103 281 q 111 694 103 599 q 438 726 335 726 m 479 622 q 454 248 454 361 q 458 64 454 135 q 576 199 533 104 q 618 392 618 294 q 583 553 618 490 q 479 622 547 615 m 543 800 l 488 799 q 407 801 460 799 q 449 942 442 883 q 590 933 522 935 q 543 800 574 858 z "},"ḋ":{"ha":997,"x_min":103,"x_max":933,"o":"m 438 726 q 874 660 706 726 q 933 418 933 540 q 826 146 933 261 q 406 -19 671 -19 q 157 1 314 -19 q 103 517 103 281 q 111 694 103 599 q 438 726 335 726 m 479 622 q 454 248 454 361 q 458 64 454 135 q 576 199 533 104 q 618 392 618 294 q 583 553 618 490 q 479 622 547 615 m 543 800 l 488 799 q 407 801 460 799 q 449 942 442 883 q 590 933 522 935 q 543 800 574 858 z "},"Ḟ":{"ha":860,"x_min":92,"x_max":853,"o":"m 574 394 l 706 386 q 733 388 724 386 l 668 265 l 656 265 q 581 280 629 265 q 511 294 532 294 q 424 224 457 294 q 417 99 417 144 q 419 0 417 53 l 118 0 q 92 367 92 178 q 111 693 92 557 l 853 693 q 808 483 828 543 l 658 476 q 671 536 671 511 q 569 603 671 603 q 488 596 525 603 q 438 343 457 472 q 574 394 493 394 m 474 800 l 418 799 q 338 801 390 799 q 379 942 372 883 q 521 933 453 935 q 474 800 504 858 z "},"ḟ":{"ha":860,"x_min":92,"x_max":853,"o":"m 574 394 l 706 386 q 733 388 724 386 l 668 265 l 656 265 q 581 280 629 265 q 511 294 532 294 q 424 224 457 294 q 417 99 417 144 q 419 0 417 53 l 118 0 q 92 367 92 178 q 111 693 92 557 l 853 693 q 808 483 828 543 l 658 476 q 671 536 671 511 q 569 603 671 603 q 488 596 525 603 q 438 343 457 472 q 574 394 493 394 m 474 800 l 418 799 q 338 801 390 799 q 379 942 372 883 q 521 933 453 935 q 474 800 504 858 z "},"Ṁ":{"ha":1461,"x_min":50,"x_max":1397,"o":"m 913 631 q 901 694 913 668 l 1297 694 q 1372 368 1347 561 q 1397 0 1396 175 l 1076 0 q 994 482 1067 250 q 864 0 874 246 l 592 0 q 453 483 556 272 q 378 156 378 307 q 397 0 378 74 l 60 0 q 50 151 50 57 q 78 339 50 244 q 267 435 176 368 q 401 581 358 501 q 325 694 365 640 l 764 694 q 843 383 817 551 q 913 631 913 513 m 775 800 l 719 799 q 639 801 692 799 q 681 942 674 883 q 822 933 754 935 q 775 800 806 858 z "},"ṁ":{"ha":1461,"x_min":50,"x_max":1397,"o":"m 913 631 q 901 694 913 668 l 1297 694 q 1372 368 1347 561 q 1397 0 1396 175 l 1076 0 q 994 482 1067 250 q 864 0 874 246 l 592 0 q 453 483 556 272 q 378 156 378 307 q 397 0 378 74 l 60 0 q 50 151 50 57 q 78 339 50 244 q 267 435 176 368 q 401 581 358 501 q 325 694 365 640 l 764 694 q 843 383 817 551 q 913 631 913 513 m 775 800 l 719 799 q 639 801 692 799 q 681 942 674 883 q 822 933 754 935 q 775 800 806 858 z "},"Ṗ":{"ha":924,"x_min":53,"x_max":865,"o":"m 408 174 q 415 0 408 94 l 110 0 q 53 469 53 221 q 68 694 53 596 l 821 694 q 865 321 861 538 q 408 201 660 229 l 408 174 m 410 297 q 558 342 499 308 q 439 603 536 489 q 410 297 417 465 m 506 800 l 450 799 q 369 801 422 799 q 411 942 404 883 q 553 933 485 935 q 506 800 536 858 z "},"ṗ":{"ha":924,"x_min":53,"x_max":865,"o":"m 408 174 q 415 0 408 94 l 110 0 q 53 469 53 221 q 68 694 53 596 l 821 694 q 865 321 861 538 q 408 201 660 229 l 408 174 m 410 297 q 558 342 499 308 q 439 603 536 489 q 410 297 417 465 m 506 800 l 450 799 q 369 801 422 799 q 411 942 404 883 q 553 933 485 935 q 506 800 536 858 z "},"Ṡ":{"ha":882,"x_min":-19,"x_max":876,"o":"m 588 611 q 469 619 532 619 q 346 611 406 619 q 435 507 383 547 q 565 427 486 467 q 692 354 643 388 q 801 244 742 321 q 876 85 861 168 q 700 -67 810 -1 q 475 -156 590 -133 q 278 -112 397 -149 q 100 -75 160 -75 q -19 -112 40 -75 q 63 65 6 -42 l 74 65 q 241 38 163 65 q 384 -18 319 10 q 488 -46 449 -46 q 546 -40 528 -46 q 489 111 546 51 q 437 160 458 143 q 371 208 415 178 l 347 225 q 192 358 253 290 q 103 524 131 425 q 190 694 147 622 q 464 726 322 726 l 525 726 q 799 693 644 726 q 744 528 776 601 q 564 519 628 519 q 588 611 576 551 m 485 800 l 429 799 q 349 801 401 799 q 390 942 383 883 q 532 933 464 935 q 485 800 515 858 z "},"ṡ":{"ha":882,"x_min":-19,"x_max":876,"o":"m 588 611 q 469 619 532 619 q 346 611 406 619 q 435 507 383 547 q 565 427 486 467 q 692 354 643 388 q 801 244 742 321 q 876 85 861 168 q 700 -67 810 -1 q 475 -156 590 -133 q 278 -112 397 -149 q 100 -75 160 -75 q -19 -112 40 -75 q 63 65 6 -42 l 74 65 q 241 38 163 65 q 384 -18 319 10 q 488 -46 449 -46 q 546 -40 528 -46 q 489 111 546 51 q 437 160 458 143 q 371 208 415 178 l 347 225 q 192 358 253 290 q 103 524 131 425 q 190 694 147 622 q 464 726 322 726 l 525 726 q 799 693 644 726 q 744 528 776 601 q 564 519 628 519 q 588 611 576 551 m 485 800 l 429 799 q 349 801 401 799 q 390 942 383 883 q 532 933 464 935 q 485 800 515 858 z "},"Ṫ":{"ha":979,"x_min":1,"x_max":975,"o":"m 656 604 q 619 246 619 385 q 631 0 619 107 l 328 0 q 281 475 281 221 q 283 604 281 518 q 139 444 165 569 l 1 453 l 51 694 l 975 694 q 911 444 947 542 l 771 453 q 776 497 776 475 q 743 578 776 551 q 656 604 710 604 m 533 800 l 478 799 q 397 801 450 799 q 439 942 432 883 q 581 933 513 935 q 533 800 564 858 z "},"ṫ":{"ha":979,"x_min":1,"x_max":975,"o":"m 656 604 q 619 246 619 385 q 631 0 619 107 l 328 0 q 281 475 281 221 q 283 604 281 518 q 139 444 165 569 l 1 453 l 51 694 l 975 694 q 911 444 947 542 l 771 453 q 776 497 776 475 q 743 578 776 551 q 656 604 710 604 m 533 800 l 478 799 q 397 801 450 799 q 439 942 432 883 q 581 933 513 935 q 533 800 564 858 z "},"Ẁ":{"ha":1444,"x_min":19,"x_max":1431,"o":"m 582 492 q 558 694 582 585 l 889 694 q 1019 199 911 419 q 1090 481 1090 329 q 1057 694 1090 589 l 1429 694 q 1431 633 1431 674 q 1383 339 1431 456 q 1178 243 1260 303 q 1096 120 1096 183 q 1153 0 1096 57 l 803 0 q 657 296 717 128 q 611 120 611 192 q 651 0 611 49 l 303 0 q 121 328 196 142 q 19 694 46 514 l 389 694 q 511 199 413 396 q 582 492 582 319 m 728 944 q 871 764 771 829 l 779 764 q 696 806 728 788 q 628 856 664 824 q 574 925 593 888 l 728 944 z "},"ẁ":{"ha":1444,"x_min":19,"x_max":1431,"o":"m 582 492 q 558 694 582 585 l 889 694 q 1019 199 911 419 q 1090 481 1090 329 q 1057 694 1090 589 l 1429 694 q 1431 633 1431 674 q 1383 339 1431 456 q 1178 243 1260 303 q 1096 120 1096 183 q 1153 0 1096 57 l 803 0 q 657 296 717 128 q 611 120 611 192 q 651 0 611 49 l 303 0 q 121 328 196 142 q 19 694 46 514 l 389 694 q 511 199 413 396 q 582 492 582 319 m 728 944 q 871 764 771 829 l 779 764 q 696 806 728 788 q 628 856 664 824 q 574 925 593 888 l 728 944 z "},"Ẃ":{"ha":1444,"x_min":19,"x_max":1431,"o":"m 1090 481 q 1057 694 1090 589 l 1429 694 q 1431 633 1431 674 q 1383 339 1431 456 q 1178 243 1260 303 q 1096 120 1096 183 q 1153 0 1096 57 l 803 0 q 657 296 717 128 q 611 120 611 192 q 651 0 611 49 l 303 0 q 121 328 196 142 q 19 694 46 514 l 389 694 q 511 199 413 396 q 582 492 582 319 q 558 694 582 585 l 889 694 q 1019 199 911 419 q 1090 481 1090 329 m 717 944 l 871 925 q 816 856 851 888 q 749 806 781 824 q 665 764 717 788 l 574 764 q 717 944 674 829 z "},"ẃ":{"ha":1444,"x_min":19,"x_max":1431,"o":"m 1090 481 q 1057 694 1090 589 l 1429 694 q 1431 633 1431 674 q 1383 339 1431 456 q 1178 243 1260 303 q 1096 120 1096 183 q 1153 0 1096 57 l 803 0 q 657 296 717 128 q 611 120 611 192 q 651 0 611 49 l 303 0 q 121 328 196 142 q 19 694 46 514 l 389 694 q 511 199 413 396 q 582 492 582 319 q 558 694 582 585 l 889 694 q 1019 199 911 419 q 1090 481 1090 329 m 717 944 l 871 925 q 816 856 851 888 q 749 806 781 824 q 665 764 717 788 l 574 764 q 717 944 674 829 z "},"Ẅ":{"ha":1444,"x_min":19,"x_max":1431,"o":"m 1090 481 q 1057 694 1090 589 l 1429 694 q 1431 633 1431 674 q 1383 339 1431 456 q 1178 243 1260 303 q 1096 120 1096 183 q 1153 0 1096 57 l 803 0 q 657 296 717 128 q 611 120 611 192 q 651 0 611 49 l 303 0 q 121 328 196 142 q 19 694 46 514 l 389 694 q 511 199 413 396 q 582 492 582 319 q 558 694 582 585 l 889 694 q 1019 199 911 419 q 1090 481 1090 329 m 642 800 l 586 799 q 506 801 558 799 q 547 942 540 883 q 689 933 621 935 q 642 800 672 858 m 890 800 l 833 799 q 754 801 807 799 q 796 942 788 886 q 938 933 868 935 q 890 800 918 856 z "},"ẅ":{"ha":1444,"x_min":19,"x_max":1431,"o":"m 1090 481 q 1057 694 1090 589 l 1429 694 q 1431 633 1431 674 q 1383 339 1431 456 q 1178 243 1260 303 q 1096 120 1096 183 q 1153 0 1096 57 l 803 0 q 657 296 717 128 q 611 120 611 192 q 651 0 611 49 l 303 0 q 121 328 196 142 q 19 694 46 514 l 389 694 q 511 199 413 396 q 582 492 582 319 q 558 694 582 585 l 889 694 q 1019 199 911 419 q 1090 481 1090 329 m 642 800 l 586 799 q 506 801 558 799 q 547 942 540 883 q 689 933 621 935 q 642 800 672 858 m 890 800 l 833 799 q 754 801 807 799 q 796 942 788 886 q 938 933 868 935 q 890 800 918 856 z "},"Ỳ":{"ha":1017,"x_min":110,"x_max":1056,"o":"m 533 89 q 567 220 543 126 q 601 354 590 314 q 635 468 613 394 q 677 578 658 542 q 724 661 696 615 q 784 733 751 707 q 848 769 817 758 q 951 787 879 779 q 1056 815 1024 794 q 978 668 1018 729 q 899 657 931 657 q 838 661 867 657 q 760 524 794 610 q 708 369 725 438 q 669 203 690 301 q 458 -511 564 -300 q 286 -551 389 -532 q 511 0 425 -314 l 224 0 q 110 694 114 356 l 515 694 q 486 420 486 565 q 533 89 486 275 m 514 944 q 657 764 557 829 l 565 764 q 482 806 514 788 q 415 856 450 824 q 360 925 379 888 l 514 944 z "},"ỳ":{"ha":1017,"x_min":110,"x_max":1056,"o":"m 533 89 q 567 220 543 126 q 601 354 590 314 q 635 468 613 394 q 677 578 658 542 q 724 661 696 615 q 784 733 751 707 q 848 769 817 758 q 951 787 879 779 q 1056 815 1024 794 q 978 668 1018 729 q 899 657 931 657 q 838 661 867 657 q 760 524 794 610 q 708 369 725 438 q 669 203 690 301 q 458 -511 564 -300 q 286 -551 389 -532 q 511 0 425 -314 l 224 0 q 110 694 114 356 l 515 694 q 486 420 486 565 q 533 89 486 275 m 514 944 q 657 764 557 829 l 565 764 q 482 806 514 788 q 415 856 450 824 q 360 925 379 888 l 514 944 z "},"–":{"ha":524,"x_min":69,"x_max":454,"o":"m 69 310 q 262 303 176 303 q 454 310 347 303 l 454 217 q 262 225 358 225 q 69 217 165 225 l 69 310 z "},"—":{"ha":829,"x_min":69,"x_max":760,"o":"m 69 310 q 415 303 261 303 q 760 310 568 303 l 760 217 q 416 226 561 226 q 69 217 271 226 l 69 310 z "},"‘":{"ha":267,"x_min":4,"x_max":263,"o":"m 49 599 l 4 599 q 99 843 26 738 q 163 832 121 840 q 132 732 132 776 q 263 724 217 732 q 232 585 235 664 q 49 599 154 599 z "},"’":{"ha":268,"x_min":4,"x_max":264,"o":"m 35 832 q 264 817 121 817 q 168 574 238 676 q 104 585 126 579 q 136 685 133 639 q 4 693 50 685 q 35 832 32 756 z "},"‚":{"ha":299,"x_min":22,"x_max":286,"o":"m 156 -8 q 22 0 68 -8 q 53 142 50 63 q 286 126 139 126 q 189 -122 261 -11 q 124 -110 154 -118 q 156 -8 156 -56 z "},"“":{"ha":554,"x_min":4,"x_max":550,"o":"m 49 603 l 4 603 q 99 847 26 742 q 163 836 121 844 q 132 736 132 781 q 263 728 217 736 q 232 589 235 668 q 49 603 154 603 m 336 603 l 292 603 q 386 847 314 742 q 450 836 408 844 q 419 736 419 781 q 550 728 504 736 q 519 589 522 668 q 336 603 442 603 z "},"”":{"ha":558,"x_min":4,"x_max":554,"o":"m 35 832 q 264 817 121 817 q 168 574 238 676 q 104 585 126 579 q 136 685 133 639 q 4 693 50 685 q 35 832 32 756 m 325 832 q 554 817 411 817 q 458 574 528 676 q 394 585 417 579 q 426 685 424 639 q 294 693 340 685 q 325 832 322 756 z "},"„":{"ha":615,"x_min":22,"x_max":597,"o":"m 156 -8 q 22 0 68 -8 q 53 142 50 63 q 286 126 139 126 q 189 -122 261 -11 q 124 -110 154 -118 q 156 -8 156 -56 m 467 -8 q 333 0 379 -8 q 364 142 361 63 q 597 126 450 126 q 500 -122 572 -11 q 435 -110 465 -118 q 467 -8 467 -56 z "},"†":{"ha":581,"x_min":26,"x_max":540,"o":"m 322 500 q 321 260 321 446 q 331 -158 321 74 l 238 -158 q 243 500 243 61 q 26 492 135 497 l 26 585 q 242 578 147 578 l 238 840 l 331 840 q 324 578 325 665 q 540 585 468 581 l 540 492 q 322 500 432 499 z "},"‡":{"ha":560,"x_min":19,"x_max":533,"o":"m 238 338 l 236 500 q 19 492 128 497 l 19 585 q 235 578 140 578 l 231 840 l 324 840 q 317 578 318 665 q 533 585 461 581 l 533 492 q 315 500 425 499 q 314 338 314 446 q 315 175 314 229 q 533 182 413 175 l 533 88 q 317 97 438 94 q 324 -158 318 15 l 231 -158 q 235 97 232 -72 q 19 88 115 94 l 19 182 q 236 175 140 175 l 238 338 z "},"•":{"ha":247,"x_min":7,"x_max":246,"o":"m 7 358 q 7 382 7 358 q 42 442 7 407 q 127 476 78 476 q 211 442 176 476 q 246 358 246 407 q 211 273 246 308 q 127 238 176 238 q 42 273 78 238 q 7 358 7 308 z "},"…":{"ha":913,"x_min":25,"x_max":897,"o":"m 240 -7 q 152 -8 225 -8 q 25 0 79 -8 q 56 142 53 64 q 289 128 135 128 q 240 -7 269 50 m 544 -7 q 456 -8 529 -8 q 329 0 383 -8 q 360 142 357 64 q 593 128 439 128 q 544 -7 574 50 m 849 -7 q 760 -8 833 -8 q 633 0 688 -8 q 664 142 661 64 q 897 128 743 128 q 849 -7 878 50 z "},"‰":{"ha":1165,"x_min":6,"x_max":1157,"o":"m 517 283 q 507 199 507 244 q 527 101 507 154 q 579 26 547 47 q 594 110 594 61 q 574 210 594 160 q 517 283 553 260 m 172 -50 l 117 -18 q 560 749 338 347 l 615 717 q 172 -50 375 325 m 160 661 q 150 576 150 622 q 170 477 150 531 q 222 403 190 424 q 238 487 238 438 q 217 586 238 536 q 160 661 196 636 m 63 372 q 6 530 6 450 q 71 665 6 610 q 239 719 136 719 q 335 707 285 719 q 382 566 382 646 q 315 422 382 486 q 151 357 249 357 q 63 372 111 357 m 421 -6 q 364 151 364 69 q 430 288 364 232 q 599 343 496 343 q 693 331 643 343 q 740 189 740 267 q 672 46 740 111 q 507 -19 604 -19 q 421 -6 463 -19 m 933 283 q 924 199 924 244 q 944 101 924 154 q 996 26 964 47 q 1011 110 1011 61 q 990 210 1011 160 q 933 283 969 260 m 838 -6 q 781 151 781 69 q 847 288 781 232 q 1015 343 913 343 q 1110 331 1060 343 q 1157 189 1157 267 q 1089 46 1157 111 q 924 -19 1021 -19 q 838 -6 879 -19 z "},"‹":{"ha":275,"x_min":6,"x_max":271,"o":"m 157 32 l 6 339 l 157 646 l 271 646 l 165 339 l 271 32 l 157 32 z "},"›":{"ha":275,"x_min":6,"x_max":271,"o":"m 271 339 l 119 32 l 6 32 l 111 339 l 6 646 l 119 646 l 271 339 z "},"‾":{"ha":524,"x_min":69,"x_max":454,"o":"m 69 693 q 262 686 176 686 q 454 693 347 686 l 454 600 q 262 608 358 608 q 69 600 165 608 l 69 693 z "},"€":{"ha":903,"x_min":7,"x_max":889,"o":"m 35 464 q 122 461 94 464 q 285 653 163 579 q 607 726 407 726 q 889 693 740 726 q 833 525 865 594 q 653 515 760 518 q 676 610 667 560 q 578 617 625 617 q 474 603 531 617 q 453 460 457 524 q 713 464 583 460 l 689 388 q 454 394 529 393 q 467 321 456 357 q 665 325 578 321 l 640 250 q 492 254 494 254 q 644 100 536 167 q 875 313 769 181 q 883 142 882 232 q 664 14 776 58 q 374 -31 551 -31 q 209 87 275 11 q 118 254 143 163 q 7 250 82 253 l 35 325 l 107 322 l 106 353 q 108 392 106 364 q 7 388 57 392 l 35 464 z "},"№":{"ha":1399,"x_min":42,"x_max":1356,"o":"m 906 694 q 914 381 914 550 q 899 1 914 213 l 767 1 q 274 394 500 144 q 283 187 283 292 q 276 1 283 82 l 115 1 q 143 319 143 175 q 129 547 143 464 q 42 694 78 621 l 435 694 q 594 489 493 594 q 785 322 694 383 l 785 346 q 739 694 785 532 l 906 694 m 971 317 q 1160 310 1075 310 q 1356 317 1244 310 l 1356 224 q 1160 232 1256 232 q 971 224 1064 232 l 971 317 m 1032 371 q 975 528 975 449 q 1040 663 975 608 q 1208 718 1106 718 q 1304 706 1254 718 q 1351 564 1351 642 q 1284 421 1351 486 q 1119 356 1217 356 q 1032 371 1081 356 m 1129 660 q 1119 578 1119 629 q 1140 475 1119 528 q 1192 401 1160 422 q 1207 485 1207 436 q 1186 585 1207 535 q 1129 660 1165 635 z "},"™":{"ha":1218,"x_min":40,"x_max":1147,"o":"m 494 569 l 424 575 q 426 599 426 592 q 367 650 426 650 q 350 473 350 547 q 354 349 350 399 l 203 349 q 179 545 179 461 q 181 650 179 629 q 110 569 124 633 l 96 569 q 40 575 54 572 l 65 694 l 526 694 q 494 569 513 621 m 488 518 q 581 565 536 532 q 649 638 626 599 q 611 694 631 669 l 831 694 q 869 540 857 622 q 904 663 904 603 q 899 694 904 683 l 1097 694 q 1147 349 1144 565 q 986 349 1147 349 q 946 589 982 468 q 879 349 885 471 l 743 349 q 675 590 726 483 q 638 444 638 501 q 647 349 638 386 l 479 349 q 474 425 474 378 q 488 518 474 472 z "},"−":{"ha":524,"x_min":69,"x_max":454,"o":"m 69 401 q 262 394 176 394 q 454 401 347 394 l 454 308 q 262 317 358 317 q 69 308 165 317 l 69 401 z "}}}
